<?xml version="1.0" standalone="no"?>
<!DOCTYPE svg PUBLIC "-//W3C//DTD SVG 1.1//EN" "http://www.w3.org/Graphics/SVG/1.1/DTD/svg11.dtd" >
<svg xmlns="http://www.w3.org/2000/svg" xmlns:xlink="http://www.w3.org/1999/xlink" version="1.1">
<metadata>
Created by FontForge 20170924 at Tue Nov 20 19:08:42 2018
 By www-data
Copyright 2018 The ZCOOL KuaiLe Project Authors (https://www.github.com/googlefonts/zcool-kuaile)
</metadata>
<defs>
<font id="ZCOOLKuaiLe-Regular" horiz-adv-x="920" >
  <font-face 
    font-family="ZCOOL KuaiLe"
    font-weight="400"
    font-stretch="normal"
    units-per-em="1000"
    panose-1="0 0 5 0 0 0 0 0 0 0"
    ascent="880"
    descent="-120"
    x-height="492"
    cap-height="706"
    bbox="-55 -152 1046 913"
    underline-thickness="50"
    underline-position="-100"
    unicode-range="U+000D-FFE5"
  />
<missing-glyph horiz-adv-x="600" 
d="M110 130v400h400v-400h-400zM440 490h-260l130 -130zM150 200l130 130l-130 130v-260zM470 460l-130 -130l130 -130v260zM440 170l-130 130l-130 -130h260z" />
    <glyph glyph-name=".notdef" horiz-adv-x="600" 
d="M110 130v400h400v-400h-400zM440 490h-260l130 -130zM150 200l130 130l-130 130v-260zM470 460l-130 -130l130 -130v260zM440 170l-130 130l-130 -130h260z" />
    <glyph glyph-name="NULL" horiz-adv-x="0" 
 />
    <glyph glyph-name="nonmarkingreturn" unicode="&#xd;" horiz-adv-x="250" 
 />
    <glyph glyph-name="space" unicode=" " horiz-adv-x="250" 
 />
    <glyph glyph-name="A" unicode="A" horiz-adv-x="793" 
d="M476 307l17 -94l-286 -48l-86 -189l-86 38l333 728l86 1l304 -639l-85 -41l-262 548l-156 -342z" />
    <glyph glyph-name="B" unicode="B" horiz-adv-x="726" 
d="M65 30v660l50 46l574 -31l32 -77l-228 -269l197 -238l-31 -77l-541 -61zM159 83l404 45l-168 202l1 60l193 226l-430 24v-557z" />
    <glyph glyph-name="C" unicode="C" horiz-adv-x="774" 
d="M50 47l68 634l53 42l515 -76l-13 -94l-467 69l-56 -526l559 60l10 -94l-616 -66z" />
    <glyph glyph-name="D" unicode="D" horiz-adv-x="769" 
d="M50 53l54 622l59 41l498 -121l37 -44l16 -373l-36 -48l-570 -127zM150 109l469 104l-14 298l-412 102z" />
    <glyph glyph-name="E" unicode="E" horiz-adv-x="713" 
d="M50 54l48 617l48 44l504 -16l-4 -94l-458 14l-15 -196l433 7l2 -95l-443 -7l-17 -227l512 42l8 -94l-567 -46z" />
    <glyph glyph-name="F" unicode="F" horiz-adv-x="663" 
d="M605 396l1 -93l-442 -8l-20 -282l-94 7l48 643l47 43l503 -16l-3 -94l-457 14l-17 -221z" />
    <glyph glyph-name="G" unicode="G" horiz-adv-x="769" 
d="M50 44l46 637l50 44l543 -36l-6 -94l-495 32l-39 -537l476 24l-17 181l-279 12l4 95l320 -15l45 -42l26 -271l-44 -52l-580 -28z" />
    <glyph glyph-name="H" unicode="H" horiz-adv-x="759" 
d="M598 470l2 234l94 -2l-6 -687l-94 1l3 359l-422 -36l-16 -325l-94 5l34 687l94 -5l-14 -268z" />
    <glyph glyph-name="I" unicode="I" horiz-adv-x="239" 
d="M65 19l34 687l95 -5l-35 -687z" />
    <glyph glyph-name="J" unicode="J" horiz-adv-x="475" 
d="M35 88l234 68l-14 460l-155 12l8 93l392 -27l-6 -95l-144 10l15 -486l-34 -47l-268 -78z" />
    <glyph glyph-name="K" unicode="K" horiz-adv-x="629" 
d="M65 -1l96 734l94 -11l-96 -735zM261 292l5 70l294 232l59 -74l-254 -201l241 -254l-67 -65z" />
    <glyph glyph-name="L" unicode="L" horiz-adv-x="604" 
d="M110 16l-45 53l71 647l94 -11l-65 -596l419 -13l-4 -93z" />
    <glyph glyph-name="M" unicode="M" horiz-adv-x="854" 
d="M625 530l-181 -320l-84 4l-136 296l-86 -481l-93 17l113 629l88 11l162 -349l200 353l87 -15l114 -629l-93 -17z" />
    <glyph glyph-name="N" unicode="N" horiz-adv-x="765" 
d="M40 33l79 641l84 24l403 -511v507h94v-642l-84 -29l-417 527l-66 -528z" />
    <glyph glyph-name="O" unicode="O" horiz-adv-x="724" 
d="M106 11l-46 51l45 564l43 42l442 45l53 -46l21 -614l-48 -48zM569 100l-19 515l-355 -37l-36 -473z" />
    <glyph glyph-name="P" unicode="P" horiz-adv-x="759" 
d="M50 -11l45 704l48 43h493l48 -42l35 -351l-45 -53l-455 -29l-6 94l407 26l-26 262h-408l-42 -660z" />
    <glyph glyph-name="Q" unicode="Q" horiz-adv-x="758" 
d="M600 57l-489 -39l-51 51l44 564l42 42l462 45l51 -45l20 -559l59 -42l-55 -76zM159 116l323 26l-103 74l55 77l148 -107l-16 435l-371 -36z" />
    <glyph glyph-name="R" unicode="R" horiz-adv-x="761" 
d="M65 15l31 640l45 45l494 15l48 -41l42 -338l-52 -52l-79 8l137 -242l-81 -46l-169 300l-212 22l10 94l345 -36l-29 236l-407 -14l-29 -596z" />
    <glyph glyph-name="S" unicode="S" horiz-adv-x="753" 
d="M45 93l559 49l-45 203l-433 -50l-52 48l14 333l51 45l527 -49l-8 -94l-478 44l-10 -227l420 47l51 -36l67 -296l-43 -58l-611 -52z" />
    <glyph glyph-name="T" unicode="T" horiz-adv-x="636" 
d="M360 616l-24 -621l-95 3l26 621l-322 11l4 95l742 -27l-2 -93z" />
    <glyph glyph-name="U" unicode="U" horiz-adv-x="721" 
d="M120 43l-44 47l-11 598l94 3l11 -556l370 -28l53 601l93 -8l-56 -647l-51 -43z" />
    <glyph glyph-name="V" unicode="V" horiz-adv-x="638" 
d="M5 548l84 44l234 -458l275 580l85 -41l-315 -665l-85 -1z" />
    <glyph glyph-name="W" unicode="W" horiz-adv-x="766" 
d="M161 32l-156 625l91 23l117 -463l135 429h90l122 -395l163 439l88 -33l-211 -569l-89 3l-118 382l-140 -443z" />
    <glyph glyph-name="X" unicode="X" horiz-adv-x="739" 
d="M379 304l-298 -294l-66 67l299 295l-224 238l69 63l222 -235l274 270l66 -67l-275 -271l278 -294l-68 -65z" />
    <glyph glyph-name="Y" unicode="Y" horiz-adv-x="599" 
d="M-55 678l69 63l237 -256l-68 -64zM219 -21l6 374l16 33l370 329l63 -71l-354 -314l-7 -352z" />
    <glyph glyph-name="Z" unicode="Z" horiz-adv-x="753" 
d="M35 90l466 491l-436 35l9 95l534 -45l30 -79l-449 -472l520 45l9 -94l-644 -56z" />
    <glyph glyph-name="uniFF21" unicode="&#xff21;" 
d="M540 307l17 -94l-286 -48l-86 -189l-86 38l333 728l86 1l304 -639l-85 -41l-262 548l-156 -342z" />
    <glyph glyph-name="uniFF22" unicode="&#xff22;" 
d="M133 30v660l50 46l574 -31l32 -77l-228 -269l197 -238l-31 -77l-541 -61zM227 83l404 45l-168 202l1 60l193 226l-430 24v-557z" />
    <glyph glyph-name="uniFF23" unicode="&#xff23;" 
d="M126 47l68 634l53 42l515 -76l-13 -94l-467 69l-56 -526l559 60l10 -94l-616 -66z" />
    <glyph glyph-name="uniFF24" unicode="&#xff24;" 
d="M128 53l54 622l59 41l498 -121l37 -44l16 -373l-36 -48l-570 -127zM228 109l469 104l-14 298l-412 102z" />
    <glyph glyph-name="uniFF25" unicode="&#xff25;" 
d="M151 54l48 617l48 44l504 -16l-4 -94l-458 14l-15 -196l433 7l2 -95l-443 -7l-17 -227l512 42l8 -94l-567 -46z" />
    <glyph glyph-name="uniFF26" unicode="&#xff26;" 
d="M716 396l1 -93l-442 -8l-20 -282l-94 7l48 643l47 43l503 -16l-3 -94l-457 14l-17 -221z" />
    <glyph glyph-name="uniFF27" unicode="&#xff27;" 
d="M124 44l46 637l50 44l543 -36l-6 -94l-495 32l-39 -537l476 24l-17 181l-279 12l4 95l320 -15l45 -42l26 -271l-44 -52l-580 -28z" />
    <glyph glyph-name="uniFF28" unicode="&#xff28;" 
d="M679 470l2 234l94 -2l-6 -687l-94 1l3 359l-422 -36l-16 -325l-94 5l34 687l94 -5l-14 -268z" />
    <glyph glyph-name="uniFF29" unicode="&#xff29;" 
d="M396 19l34 687l95 -5l-35 -687z" />
    <glyph glyph-name="uniFF2A" unicode="&#xff2a;" 
d="M228 88l234 68l-14 460l-155 12l8 93l392 -27l-6 -95l-144 10l15 -486l-34 -47l-268 -78z" />
    <glyph glyph-name="uniFF2B" unicode="&#xff2b;" 
d="M183 -1l96 734l94 -11l-96 -735zM379 292l5 70l294 232l59 -74l-254 -201l241 -254l-67 -65z" />
    <glyph glyph-name="uniFF2C" unicode="&#xff2c;" 
d="M246 16l-45 53l71 647l94 -11l-65 -596l419 -13l-4 -93z" />
    <glyph glyph-name="uniFF2D" unicode="&#xff2d;" 
d="M659 530l-181 -320l-84 4l-136 296l-86 -481l-93 17l113 629l88 11l162 -349l200 353l87 -15l114 -629l-93 -17z" />
    <glyph glyph-name="uniFF2E" unicode="&#xff2e;" 
d="M130 33l79 641l84 24l403 -511v507h94v-642l-84 -29l-417 527l-66 -528z" />
    <glyph glyph-name="uniFF2F" unicode="&#xff2f;" 
d="M204 11l-46 51l45 564l43 42l442 45l53 -46l21 -614l-48 -48zM667 100l-19 515l-355 -37l-36 -473z" />
    <glyph glyph-name="uniFF30" unicode="&#xff30;" 
d="M126 -11l45 704l48 43h493l48 -42l35 -351l-45 -53l-455 -29l-6 94l407 26l-26 262h-408l-42 -660z" />
    <glyph glyph-name="uniFF31" unicode="&#xff31;" 
d="M662 57l-489 -39l-51 51l44 564l42 42l462 45l51 -45l20 -559l59 -42l-55 -76zM221 116l323 26l-103 74l55 77l148 -107l-16 435l-371 -36z" />
    <glyph glyph-name="uniFF32" unicode="&#xff32;" 
d="M128 15l31 640l45 45l494 15l48 -41l42 -338l-52 -52l-79 8l137 -242l-81 -46l-169 300l-212 22l10 94l345 -36l-29 236l-407 -14l-29 -596z" />
    <glyph glyph-name="uniFF33" unicode="&#xff33;" 
d="M129 93l559 49l-45 203l-433 -50l-52 48l14 333l51 45l527 -49l-8 -94l-478 44l-10 -227l420 47l51 -36l67 -296l-43 -58l-611 -52z" />
    <glyph glyph-name="uniFF34" unicode="&#xff34;" 
d="M502 616l-24 -621l-95 3l26 621l-322 11l4 95l742 -27l-2 -93z" />
    <glyph glyph-name="uniFF35" unicode="&#xff35;" 
d="M205 43l-44 47l-11 598l94 3l11 -556l370 -28l53 601l93 -8l-56 -647l-51 -43z" />
    <glyph glyph-name="uniFF36" unicode="&#xff36;" 
d="M121 548l84 44l234 -458l275 580l85 -41l-315 -665l-85 -1z" />
    <glyph glyph-name="uniFF37" unicode="&#xff37;" 
d="M214 32l-156 625l91 23l117 -463l135 429h90l122 -395l163 439l88 -33l-211 -569l-89 3l-118 382l-140 -443z" />
    <glyph glyph-name="uniFF38" unicode="&#xff38;" 
d="M470 304l-298 -294l-66 67l299 295l-224 238l69 63l222 -235l274 270l66 -67l-275 -271l278 -294l-68 -65z" />
    <glyph glyph-name="uniFF39" unicode="&#xff39;" 
d="M96 678l69 63l237 -256l-68 -64zM370 -21l6 374l16 33l370 329l63 -71l-354 -314l-7 -352z" />
    <glyph glyph-name="uniFF3A" unicode="&#xff3a;" 
d="M119 90l466 491l-436 35l9 95l534 -45l30 -79l-449 -472l520 45l9 -94l-644 -56z" />
    <glyph glyph-name="a" unicode="a" horiz-adv-x="680" 
d="M545 34l-18 21l-413 -66l-54 57l58 229l45 36h316l-21 156l-360 -88l-23 91l411 101l58 -40l56 -415l70 -20l-25 -90zM501 147l-9 69h-292l-31 -122z" />
    <glyph glyph-name="b" unicode="b" horiz-adv-x="541" 
d="M50 59l38 572l95 -6l-12 -168l297 -26l43 -50l-20 -264l-37 -42l-348 -66zM148 112l252 48l14 181l-249 23z" />
    <glyph glyph-name="c" unicode="c" horiz-adv-x="524" 
d="M50 65l46 440l54 41l321 -52l-15 -93l-271 44l-36 -331l334 40l11 -94l-393 -46z" />
    <glyph glyph-name="d" unicode="d" horiz-adv-x="608" 
d="M50 62l46 345l54 40l294 -47l-16 224l95 6l35 -526l-42 -50l-415 -45zM151 109l310 33l-11 162l-267 43z" />
    <glyph glyph-name="e" unicode="e" horiz-adv-x="574" 
d="M88 60l-38 53l48 356l42 40l293 24l46 -25l85 -168l-33 -67l-311 -65l-20 91l251 54l-42 83l-224 -17l-36 -275l344 -64l-18 -92z" />
    <glyph glyph-name="f" unicode="f" horiz-adv-x="476" 
d="M456 207l-8 -94l-173 16l-12 -187l-94 6l12 189l-171 16l9 94l168 -16l21 309l27 40l149 65l37 -86l-122 -54l-18 -282z" />
    <glyph glyph-name="g" unicode="g" horiz-adv-x="539" 
d="M66 35l328 58l-8 172l-290 -61l-56 55l58 299l51 38l277 -26l43 -44l20 -471l-39 -47l-367 -65zM146 310l235 50l-5 120l-193 19z" />
    <glyph glyph-name="h" unicode="h" horiz-adv-x="568" 
d="M425 454l58 -41l35 -392l-94 -9l-30 339l-207 -50l-43 -295l-94 13l104 695l92 -13l-44 -299z" />
    <glyph glyph-name="i" unicode="i" horiz-adv-x="236" 
d="M75 586l91 25l30 -112l-91 -25zM50 19l49 397l94 -11l-49 -397z" />
    <glyph glyph-name="j" unicode="j" horiz-adv-x="251" 
d="M34 596l67 65l98 -100l-68 -65zM-10 -61l125 70l-36 379l94 8l38 -408l-23 -45l-152 -85z" />
    <glyph glyph-name="k" unicode="k" horiz-adv-x="563" 
d="M40 39l143 647l92 -20l-142 -647zM245 208l-1 68l202 193l65 -68l-165 -157l207 -180l-62 -71z" />
    <glyph glyph-name="l" unicode="l" horiz-adv-x="249" 
d="M50 4l86 604l93 -12l-85 -605z" />
    <glyph glyph-name="m" unicode="m" horiz-adv-x="709" 
d="M50 45l40 417l59 41l218 -59l211 59l60 -44l21 -416l-94 -5l-19 357l-137 -37l2 -316l-93 -2l-3 319l-136 38l-35 -360z" />
    <glyph glyph-name="n" unicode="n" horiz-adv-x="563" 
d="M401 380l-213 -34l-44 -295l-94 14l50 329l39 40l300 47l55 -44l19 -393l-95 -5z" />
    <glyph glyph-name="o" unicode="o" horiz-adv-x="580" 
d="M104 54l-44 51l24 343l45 43l332 14l49 -46l10 -378l-50 -48zM425 130l-7 279l-243 -10l-17 -254z" />
    <glyph glyph-name="p" unicode="p" horiz-adv-x="561" 
d="M50 -49l35 591l56 44l312 -64l36 -41l32 -249l-37 -53l-268 -56l-20 91l227 49l-23 173l-225 46l-31 -536z" />
    <glyph glyph-name="q" unicode="q" horiz-adv-x="559" 
d="M384 -16l36 496l-274 -47l8 -167l197 -18l-8 -94l-239 22l-43 44l-11 250l39 49l375 64l55 -50l-41 -555z" />
    <glyph glyph-name="r" unicode="r" horiz-adv-x="405" 
d="M60 532l94 3l3 -123l228 108l40 -87l-265 -124l10 -302l-95 -2z" />
    <glyph glyph-name="s" unicode="s" horiz-adv-x="530" 
d="M50 32l18 93l252 -48l74 128l-298 42l-40 52l15 193l44 43l320 25l6 -94l-278 -21l-9 -110l321 -46l35 -70l-125 -218l-49 -22z" />
    <glyph glyph-name="t" unicode="t" horiz-adv-x="601" 
d="M308 123l196 -56l-25 -90l-235 66l-34 50l25 269l-197 -14l-8 95l214 15l10 105l94 -9l-8 -90l225 16l6 -93l-240 -18z" />
    <glyph glyph-name="u" unicode="u" horiz-adv-x="588" 
d="M431 90l-316 -52l-55 49l24 404l94 -5l-20 -345l251 40l21 311l95 -8l-22 -327l85 -51l-49 -80z" />
    <glyph glyph-name="v" unicode="v" horiz-adv-x="554" 
d="M171 47l-151 490l90 28l123 -399l255 354l76 -55l-310 -431z" />
    <glyph glyph-name="w" unicode="w" horiz-adv-x="731" 
d="M181 71l-161 425l89 32l117 -312l102 246l86 3l104 -228l140 275l83 -42l-182 -363l-85 1l-100 218l-105 -256z" />
    <glyph glyph-name="x" unicode="x" horiz-adv-x="631" 
d="M322 265l-247 -235l-65 67l236 226l-176 134l58 75l187 -143l190 181l65 -69l-179 -170l240 -183l-56 -75z" />
    <glyph glyph-name="y" unicode="y" horiz-adv-x="500" 
d="M10 15l169 205l-169 205l73 60l158 -191l197 239l72 -60l-427 -518z" />
    <glyph glyph-name="z" unicode="z" horiz-adv-x="548" 
d="M58 90l307 365l-315 38l11 93l402 -47l30 -78l-290 -346l307 25l8 -95l-420 -32z" />
    <glyph glyph-name="uniFF41" unicode="&#xff41;" 
d="M640 34l-18 21l-413 -66l-54 57l58 229l45 36h316l-21 156l-360 -88l-23 91l411 101l58 -40l56 -415l70 -20l-25 -90zM596 147l-9 69h-292l-31 -122z" />
    <glyph glyph-name="uniFF42" unicode="&#xff42;" 
d="M230 59l38 572l95 -6l-12 -168l297 -26l43 -50l-20 -264l-37 -42l-348 -66zM328 112l252 48l14 181l-249 23z" />
    <glyph glyph-name="uniFF43" unicode="&#xff43;" 
d="M238 65l46 440l54 41l321 -52l-15 -93l-271 44l-36 -331l334 40l11 -94l-393 -46z" />
    <glyph glyph-name="uniFF44" unicode="&#xff44;" 
d="M206 62l46 345l54 40l294 -47l-16 224l95 6l35 -526l-42 -50l-415 -45zM307 109l310 33l-11 162l-267 43z" />
    <glyph glyph-name="uniFF45" unicode="&#xff45;" 
d="M241 60l-38 53l48 356l42 40l293 24l46 -25l85 -168l-33 -67l-311 -65l-20 91l251 54l-42 83l-224 -17l-36 -275l344 -64l-18 -92z" />
    <glyph glyph-name="uniFF46" unicode="&#xff46;" 
d="M683 207l-8 -94l-173 16l-12 -187l-94 6l12 189l-171 16l9 94l168 -16l21 309l27 40l149 65l37 -86l-122 -54l-18 -282z" />
    <glyph glyph-name="uniFF47" unicode="&#xff47;" 
d="M262 35l328 58l-8 172l-290 -61l-56 55l58 299l51 38l277 -26l43 -44l20 -471l-39 -47l-367 -65zM342 310l235 50l-5 120l-193 19z" />
    <glyph glyph-name="uniFF48" unicode="&#xff48;" 
d="M601 454l58 -41l35 -392l-94 -9l-30 339l-207 -50l-43 -295l-94 13l104 695l92 -13l-44 -299z" />
    <glyph glyph-name="uniFF49" unicode="&#xff49;" 
d="M412 586l91 25l30 -112l-91 -25zM387 19l49 397l94 -11l-49 -397z" />
    <glyph glyph-name="uniFF4A" unicode="&#xff4a;" 
d="M394 596l67 65l98 -100l-68 -65zM350 -61l125 70l-36 379l94 8l38 -408l-23 -45l-152 -85z" />
    <glyph glyph-name="uniFF4B" unicode="&#xff4b;" 
d="M204 39l143 647l92 -20l-142 -647zM409 208l-1 68l202 193l65 -68l-165 -157l207 -180l-62 -71z" />
    <glyph glyph-name="uniFF4C" unicode="&#xff4c;" 
d="M371 4l86 604l93 -12l-85 -605z" />
    <glyph glyph-name="uniFF4D" unicode="&#xff4d;" 
d="M156 45l40 417l59 41l218 -59l211 59l60 -44l21 -416l-94 -5l-19 357l-137 -37l2 -316l-93 -2l-3 319l-136 38l-35 -360z" />
    <glyph glyph-name="uniFF4E" unicode="&#xff4e;" 
d="M580 380l-213 -34l-44 -295l-94 14l50 329l39 40l300 47l55 -44l19 -393l-95 -5z" />
    <glyph glyph-name="uniFF4F" unicode="&#xff4f;" 
d="M274 54l-44 51l24 343l45 43l332 14l49 -46l10 -378l-50 -48zM595 130l-7 279l-243 -10l-17 -254z" />
    <glyph glyph-name="uniFF50" unicode="&#xff50;" 
d="M225 -49l35 591l56 44l312 -64l36 -41l32 -249l-37 -53l-268 -56l-20 91l227 49l-23 173l-225 46l-31 -536z" />
    <glyph glyph-name="uniFF51" unicode="&#xff51;" 
d="M560 -16l36 496l-274 -47l8 -167l197 -18l-8 -94l-239 22l-43 44l-11 250l39 49l375 64l55 -50l-41 -555z" />
    <glyph glyph-name="uniFF52" unicode="&#xff52;" 
d="M278 532l94 3l3 -123l228 108l40 -87l-265 -124l10 -302l-95 -2z" />
    <glyph glyph-name="uniFF53" unicode="&#xff53;" 
d="M230 32l18 93l252 -48l74 128l-298 42l-40 52l15 193l44 43l320 25l6 -94l-278 -21l-9 -110l321 -46l35 -70l-125 -218l-49 -22z" />
    <glyph glyph-name="uniFF54" unicode="&#xff54;" 
d="M468 123l196 -56l-25 -90l-235 66l-34 50l25 269l-197 -14l-8 95l214 15l10 105l94 -9l-8 -90l225 16l6 -93l-240 -18z" />
    <glyph glyph-name="uniFF55" unicode="&#xff55;" 
d="M567 90l-316 -52l-55 49l24 404l94 -5l-20 -345l251 40l21 311l95 -8l-22 -327l85 -51l-49 -80z" />
    <glyph glyph-name="uniFF56" unicode="&#xff56;" 
d="M339 47l-151 490l90 28l123 -399l255 354l76 -55l-310 -431z" />
    <glyph glyph-name="uniFF57" unicode="&#xff57;" 
d="M261 71l-161 425l89 32l117 -312l102 246l86 3l104 -228l140 275l83 -42l-182 -363l-85 1l-100 218l-105 -256z" />
    <glyph glyph-name="uniFF58" unicode="&#xff58;" 
d="M462 265l-247 -235l-65 67l236 226l-176 134l58 75l187 -143l190 181l65 -69l-179 -170l240 -183l-56 -75z" />
    <glyph glyph-name="uniFF59" unicode="&#xff59;" 
d="M210 15l169 205l-169 205l73 60l158 -191l197 239l72 -60l-427 -518z" />
    <glyph glyph-name="uniFF5A" unicode="&#xff5a;" 
d="M234 90l307 365l-315 38l11 93l402 -47l30 -78l-290 -346l307 25l8 -95l-420 -32z" />
    <glyph glyph-name="uni4E00" unicode="&#x4e00;" 
d="M837 433l7 -94l-760 -53l-8 93z" />
    <glyph glyph-name="uni4E01" unicode="&#x4e01;" 
d="M840 745l2 -95l-286 -5l-27 -630l-65 -41l-234 96l37 87l170 -70l24 556l-379 -6l-3 95z" />
    <glyph glyph-name="uni4E03" unicode="&#x4e03;" 
d="M348 121l360 -62l-15 -93l-406 68l-40 53l38 285l-217 -18l-9 95l239 19l39 285l95 -12l-36 -265l457 38l7 -95l-477 -39z" />
    <glyph glyph-name="uni4E07" unicode="&#x4e07;" 
d="M319 455l406 31l50 -45l11 -440l-57 -46l-259 53l20 93l200 -43l-7 330l-397 -30l-137 -397l-89 30l221 644l-205 -12l-6 94l784 48l6 -94l-476 -29z" />
    <glyph glyph-name="uni4E08" unicode="&#x4e08;" 
d="M484 656l37 110l90 -30l-25 -74l253 15l6 -93l-291 -18l-92 -271l366 -264l-55 -77l-342 246l-26 -76l-22 -27l-263 -142l-45 82l248 134l29 86l-173 125l55 78l149 -108l70 208l-363 -21l-6 93z" />
    <glyph glyph-name="uni4E09" unicode="&#x4e09;" 
d="M145 696l627 -35l-5 -94l-627 35zM700 450l6 -95l-506 -31l-5 93zM855 162l5 -93l-794 -45l-5 93z" />
    <glyph glyph-name="uni4E0A" unicode="&#x4e0a;" 
d="M404 82l-32 654l95 4l11 -242l280 44l15 -93l-290 -47l15 -317l368 11l2 -94l-813 -23l-3 93z" />
    <glyph glyph-name="uni4E0B" unicode="&#x4e0b;" 
d="M401 636l-348 -10l-3 94l816 23l4 -93l-373 -11l-39 -664l-95 5zM601 500l222 -222l-67 -66l-221 220z" />
    <glyph glyph-name="uni4E0C" unicode="&#x4e0c;" 
d="M630 606l-265 -12l17 -366l-14 -35l-178 -183l-67 66l164 169l-17 345l-167 -7l-4 94l718 31l3 -93l-96 -5l-34 -587l-93 5z" />
    <glyph glyph-name="uni4E0D" unicode="&#x4e0d;" 
d="M850 758l2 -94l-257 -6l-158 -163l91 -6l-5 -76l354 -132l-32 -87l-328 120l-22 -351l-94 6l34 523l-325 -337l-68 65l418 434l-383 -9l-2 94z" />
    <glyph glyph-name="uni4E0E" unicode="&#x4e0e;" 
d="M220 430l580 45l52 -50l-32 -376l-33 -42l-240 -73l-29 90l211 65l24 288l-585 -46l-50 55l61 400l94 -15l-20 -129l562 48l8 -95l-585 -49zM69 127l576 138l22 -91l-575 -138z" />
    <glyph glyph-name="uni4E10" unicode="&#x4e10;" 
d="M407 643l-320 -16l-5 95l748 36l5 -94l-333 -17l-5 -92l280 18l6 -94l-291 -17l-5 -85l-95 5zM411 89l282 -31l40 186l-582 -22l-49 51l24 243l94 -10l-19 -188l589 23l47 -58l-60 -286l-51 -36l-326 35z" />
    <glyph glyph-name="uni4E11" unicode="&#x4e11;" 
d="M859 109l6 -94l-803 -48l-6 95l223 13l19 199l-127 -19l-14 93l151 22l26 275l-188 14l6 94l639 -45l43 -60l-163 -550zM404 385l264 39l58 194l-297 21zM570 92l69 233l-244 -37l-21 -208z" />
    <glyph glyph-name="uni4E13" unicode="&#x4e13;" 
d="M621 4l-38 -86l-329 147l39 86l172 -77l140 121l-387 13l-40 68l57 111l-180 4l1 95l227 -4l61 119l-201 20l10 94l237 -24l56 110l84 -43l-39 -77l272 -27l-9 -94l-310 31l-57 -111l478 -9l-1 -95l-525 9l-44 -85l434 -15l30 -84l-199 -170z" />
    <glyph glyph-name="uni4E14" unicode="&#x4e14;" 
d="M191 297l-35 405l46 51h498l47 -49l-16 -608l129 7l5 -95l-805 -41l-4 95l155 8l-12 133l-59 -4l-6 95zM264 545l384 -15l4 129h-397zM305 75l331 16l10 345l-374 14l13 -147l292 19l5 -94l-289 -19z" />
    <glyph glyph-name="uni4E15" unicode="&#x4e15;" 
d="M867 756l8 -93l-821 -68l-8 94zM100 76l319 -9l-12 391l-277 -240l-61 71l352 304l78 -34l15 -495l310 -8l-3 -93l-724 20zM572 501l252 -141l-47 -82l-251 141z" />
    <glyph glyph-name="uni4E16" unicode="&#x4e16;" 
d="M391 468l-155 -18l-13 -356l609 -22l-3 -93l-657 22l-45 50l14 388l-81 -9l-11 92l95 11l8 208l95 -4l-7 -193l148 17l-5 161l94 3l5 -153l141 17l-13 132l94 9l13 -130l143 17l12 -93l-146 -17l27 -272l-45 -53l-259 -11l-50 45zM485 479l7 -212l162 8l-22 221z" />
    <glyph glyph-name="uni4E18" unicode="&#x4e18;" 
d="M202 58l-63 531l38 52l575 119l18 -93l-532 -110l10 -92l526 7l1 -93l-104 -2l-31 -298l212 10l3 -94l-786 -36l-5 93zM544 74l32 301l-317 -5l36 -307z" />
    <glyph glyph-name="uni4E19" unicode="&#x4e19;" 
d="M813 765l3 -94l-300 -13l-36 -121l319 -6l46 -52l-49 -483l-55 -42l-180 28l14 94l133 -21l38 382l-294 6l-9 -31l173 -151l-62 -71l-140 122l-69 -232l-91 26l100 340l-170 4v-449h-95v496l49 48l244 -6l34 115l-337 -14l-4 95z" />
    <glyph glyph-name="uni4E1A" unicode="&#x4e1a;" 
d="M872 74l3 -95l-831 -26l-3 95l244 7l-46 695l95 6l46 -698l145 5l30 705l94 -4l-29 -698zM649 171l141 404l89 -31l-140 -404zM42 495l87 38l135 -312l-87 -37z" />
    <glyph glyph-name="uni4E1B" unicode="&#x4e1b;" 
d="M864 227l-77 -55l-188 259l-167 -328l-85 44l313 611l84 -42l-97 -191zM384 412l-44 -84l-113 58l-92 -249l-89 32l210 567l89 -33l-84 -227zM104 54l767 30l4 -92l-768 -31z" />
    <glyph glyph-name="uni4E1C" unicode="&#x4e1c;" 
d="M560 50l-30 -49l-178 -68l-35 86l145 57l-22 210l-284 -17l-44 70l142 248l-203 -9l-4 93l262 12l60 105l82 -48l-30 -52l414 20l5 -95l-474 -21l-129 -224l193 12l-14 136l94 10l14 -140l311 19l5 -95l-306 -19zM36 8l233 240l67 -65l-232 -240zM627 180l70 63l187 -209
l-72 -63z" />
    <glyph glyph-name="uni4E1D" unicode="&#x4e1d;" 
d="M482 182l136 209l-121 21l-30 72l191 279l78 -54l-150 -217l88 -15l88 135l79 -51l-220 -338l235 43l16 -93l-343 -62zM86 178l143 214l-157 49l-23 75l202 246l73 -60l-157 -191l117 -37l93 139l77 -52l-222 -334l196 47l23 -92l-314 -75zM38 -39l1 95l843 -7v-93z" />
    <glyph glyph-name="uni4E1E" unicode="&#x4e1e;" 
d="M460 210l-31 252l11 38l144 161l-374 25l6 94l469 -31l33 -78l-127 -144l57 -70l171 103l47 -81l-158 -96l146 -179l-74 -59l-252 311l-3 -4l33 -272l-34 -51l-175 -47l-24 92zM250 411l-200 73l33 88l255 -92l23 -70l-182 -288l-80 50zM864 77l6 -95l-774 -43l-5 92z
" />
    <glyph glyph-name="uni4E22" unicode="&#x4e22;" 
d="M271 71l417 38l-31 90l89 30l82 -245l-88 -28l-21 61l-593 -55l-34 84l231 188l-278 -22l-8 94l383 30l-4 92l-269 -10l-4 95l269 10l-4 101l-311 -36l-11 94l704 81l10 -94l-297 -34l4 -109l283 11l3 -95l-283 -11l4 -87l361 29l7 -94l-395 -32z" />
    <glyph glyph-name="uni4E24" unicode="&#x4e24;" 
d="M575 288l-35 -199l-92 16l17 97l-68 -56l-90 110l-20 -122l-94 16l55 324l-109 6l14 -514l-94 -2l-15 565l49 47l170 -10l19 113h-158v94h674v-94h-154l-23 -133l209 -11l45 -46v-434l-33 -45l-197 -62l-27 90l162 51v355l-176 10l-9 -56l177 -159l-63 -70zM527 552
l22 127h-172l-19 -118zM466 210l44 249l-168 9l-14 -87z" />
    <glyph glyph-name="uni4E25" unicode="&#x4e25;" 
d="M679 392l113 249l85 -38l-95 -212l83 -1l-1 -94l-631 8l6 -218l-12 -32l-112 -126l-71 62l100 113l-7 247l48 49l139 -2l-19 273l-178 -9l-5 95l731 37l5 -94l-210 -11h2l-36 -295zM519 394l36 289l-156 -8l18 -279zM135 565l75 58l92 -120l-74 -58z" />
    <glyph glyph-name="uni4E27" unicode="&#x4e27;" 
d="M693 189l140 114l59 -73l-141 -116l97 -128l-75 -56l-287 375l-187 -18l-41 -246l188 51l25 -90l-259 -70l-59 53l49 293l-166 -15l-9 94l213 20l-67 114l82 47l90 -152l84 8l-7 205l-306 -11l-4 95l306 11l-3 91l95 3l3 -91l277 10l2 -95l-275 -10l7 -199l85 8l61 167
l88 -32l-46 -125l164 15l9 -94l-288 -27z" />
    <glyph glyph-name="uni4E28" unicode="&#x4e28;" 
d="M422 671l93 -2l-16 -621l-95 2z" />
    <glyph glyph-name="uni4E2A" unicode="&#x4e2a;" 
d="M887 416l-45 -82l-435 239l-310 -287l-64 69l465 431l64 -69l-83 -76zM379 -59l40 496l95 -7l-41 -496z" />
    <glyph glyph-name="uni4E2B" unicode="&#x4e2b;" 
d="M758 763l64 -70l-282 -254l-63 71zM158 734l234 -203l-62 -71l-233 203zM480 434l11 -474l-94 -2l-11 473z" />
    <glyph glyph-name="uni4E2C" unicode="&#x4e2c;" 
d="M573 246q-17 -13 -37 -29q-34 -27 -71.5 -57.5t-70.5 -57t-57 -45t-29 -22.5l-56 75q5 4 39 30.5t80.5 65t100 81.5t98.5 79l2 -3l-2 401l95 1l3 -811h-93zM322 595l56 76l173 -125l-56 -76z" />
    <glyph glyph-name="uni4E2D" unicode="&#x4e2d;" 
d="M62 522l45 59l322 5l3 177l95 -1l-3 -175l288 5l46 -59l-76 -288l-40 -35l-225 -28l-4 -227l-93 1l3 214l-222 -28l-51 35zM518 276l182 22l51 199l-229 -4zM424 264l4 227l-260 -4l63 -246z" />
    <glyph glyph-name="uni4E30" unicode="&#x4e30;" 
d="M498 62l-7 -128l-94 6l7 123l-363 2l1 95l368 -2l10 169l-259 -15l-6 95l270 15l10 165l-334 -3l-1 95l341 3l6 104l94 -5l-6 -98l264 2l1 -94l-271 -3l-9 -160l231 13l5 -94l-242 -15l-10 -175l376 -2v-95z" />
    <glyph glyph-name="uni4E32" unicode="&#x4e32;" 
d="M161 635l47 49l230 -2l4 96l95 -4l-4 -93l195 -1l47 -46l2 -179l-46 -48l-208 -3l-3 -78l271 4l47 -47l-5 -225l-46 -46l-279 -8l-2 -62l-94 3l2 57l-264 -7l-49 43l-19 232l46 52l298 3l2 78l-215 -3l-48 45zM432 497l3 91l-179 1l2 -94zM527 498l155 2l-1 87h-151z
M512 98l228 6l2 131l-225 -3zM417 96l5 135l-241 -3l10 -138z" />
    <glyph glyph-name="uni4E34" unicode="&#x4e34;" 
d="M754 453l-66 -66l-180 176l-48 -1l-67 -179l-89 34l136 361l89 -34l-33 -86l341 10l2 -95l-201 -6zM185 763l94 3l20 -812l-95 -2zM34 99l11 507l94 -3l-11 -506zM423 -56l-46 42l-44 301l45 54l459 20l48 -55l-51 -327l-47 -38zM653 35l94 -1l36 229l-109 -5zM559 36
l20 218l-145 -6l30 -210z" />
    <glyph glyph-name="uni4E36" unicode="&#x4e36;" 
d="M425 511l150 -255l-81 -47l-150 255z" />
    <glyph glyph-name="uni4E38" unicode="&#x4e38;" 
d="M611 155l89 342l-314 29l-39 -183l161 -81l-42 -85l-139 70l-25 -120l-15 -26l-167 -147l-63 70l156 137l27 130l-124 64l42 85l103 -53l31 147l-172 16l8 94l183 -17l30 138l91 -20l-27 -127l358 -32l42 -59l-94 -365l152 -118l-57 -75l-178 137z" />
    <glyph glyph-name="uni4E39" unicode="&#x4e39;" 
d="M156 411l27 313l45 44l477 20l50 -45l13 -312l128 4l2 -95l-126 -4l14 -346l-63 -47l-202 66l30 90l137 -45l-11 279l-433 -14l-34 -387l-95 8l32 376l-122 -4l-3 95zM673 428l-11 264l-387 -17l-23 -261zM455 629l87 -147l-81 -49l-88 147z" />
    <glyph glyph-name="uni4E3A" unicode="&#x4e3a;" 
d="M795 564l50 -53l-70 -534l-51 -38l-209 21l9 92l164 -17l56 431l-317 -17l-269 -507l-83 43l244 458l-238 -12l-5 95l295 15l127 239l82 -44l-101 -189zM145 712l85 43l80 -160l-84 -43zM439 311l77 54l134 -189l-77 -54z" />
    <glyph glyph-name="uni4E3B" unicode="&#x4e3b;" 
d="M393 55l12 223l-258 5l2 94l261 -5l11 193l-347 8l2 95l323 -8l-37 78l85 42l58 -122l330 -8l-3 -94l-317 7l-10 -192l255 -4l-1 -95l-259 5l-12 -216l386 24l6 -95l-833 -50l-6 93z" />
    <glyph glyph-name="uni4E3D" unicode="&#x4e3d;" 
d="M69 673l1 93l804 -17l-3 -94zM687 48l77 43l-20 425l-159 -27l-5 -148l150 -32l-20 -93l-133 29l-8 -257l-94 3l17 539l39 45l249 43l55 -44l24 -506l-23 -43l-100 -57zM254 21l93 85l-11 372l-159 -4l-9 -122l149 -51l-30 -90l-127 44l-20 -271l-94 7l48 622l93 -7
l-3 -38l196 6l49 -46l13 -440l-15 -37l-111 -98z" />
    <glyph glyph-name="uni4E3E" unicode="&#x4e3e;" 
d="M890 315l-61 -71l-284 243l-166 -6l-281 -300l-69 65l215 230l-179 -7l-3 94l163 6l-70 116l82 49l96 -161l313 12l-46 48l165 163l67 -66l-146 -144l171 7l3 -94l-177 -7zM364 713l86 38l55 -126l-86 -37zM515 38l5 -112l-93 -3l-5 119l-288 12l4 94l280 -11l-5 101
l-161 2l1 95l156 -2l-2 62l93 4l3 -67l207 -1l-1 -95l-202 1l4 -104l324 -13l-3 -95z" />
    <glyph glyph-name="uni4E3F" unicode="&#x4e3f;" 
d="M503 305l-63 413l93 13l65 -430l-7 -33l-191 -280l-78 53z" />
    <glyph glyph-name="uni4E43" unicode="&#x4e43;" 
d="M295 660l-158 1v94h570l43 -64l-97 -251l160 -28l39 -53l-58 -355l-61 -38l-244 78l29 90l192 -62l40 255l-170 29l-36 64l94 240h-242l-238 -696l-89 31z" />
    <glyph glyph-name="uni4E45" unicode="&#x4e45;" 
d="M267 768l85 -42l-30 -62l425 -26l44 -48l-1 -137l-20 -38l-254 -181l337 -170l-42 -85l-382 193l-307 -219l-55 75l629 450v68l-418 26l-83 -171l-85 42z" />
    <glyph glyph-name="uni4E47" unicode="&#x4e47;" 
d="M754 783l10 -94l-287 -31l-33 -273l437 34l8 -94l-457 -36l-26 -209l416 -50l-11 -92l-462 55l-42 52l29 237l-297 -23l-8 94l317 24l33 271l-196 -20l-10 93z" />
    <glyph glyph-name="uni4E48" unicode="&#x4e48;" 
d="M60 375l373 408l70 -63l-373 -409zM723 63l-629 -87l-40 81l579 553l65 -68l-473 -452l459 63l-44 102l87 37l138 -319l-86 -38z" />
    <glyph glyph-name="uni4E49" unicode="&#x4e49;" 
d="M437 267l-303 -316l-68 65l304 317l-288 283l65 67l288 -283l352 368l68 -65l-353 -368l324 -318l-66 -67zM316 711l79 50l117 -183l-78 -51z" />
    <glyph glyph-name="uni4E4B" unicode="&#x4e4b;" 
d="M568 507l-456 41l9 94l254 -23l-71 105l78 54l114 -169l-1 -1l183 -16l29 -80l-418 -409l144 -65l403 119l26 -92l-419 -122l-32 2l-195 87l-92 -90l-66 67z" />
    <glyph glyph-name="uni4E4C" unicode="&#x4e4c;" 
d="M427 399l7 93l202 -13l28 123l-473 -16l-42 70l87 154l81 -48l-45 -78l450 15l48 -58l-51 -222l-49 -38zM359 -53l11 94l294 -35l67 244l-545 -16l-46 60l75 262l90 -26l-56 -200l543 16l48 -60l-96 -344l-52 -33zM81 95l538 110l20 -91l-539 -112z" />
    <glyph glyph-name="uni4E4D" unicode="&#x4e4d;" 
d="M194 766l90 -31l-41 -121l609 63l10 -93l-455 -48l-3 -106l430 35l8 -94l-442 -36l-3 -106h428v-94h-431l-6 -181l-95 3l20 569l-103 -11l-61 -179l-90 30z" />
    <glyph glyph-name="uni4E4E" unicode="&#x4e4e;" 
d="M446 96l-6 69l-349 14l4 95l192 -8l-140 200l78 55l151 -217l-55 -39l112 -5l-24 307l-243 -18l-7 95l506 37l91 90l66 -67l-102 -103l-30 -13l-186 -14l24 -317l302 -12l-4 -95l-291 11l7 -92l-30 -48l-191 -73l-35 86zM704 565l77 -55l-142 -202l-78 53z" />
    <glyph glyph-name="uni4E4F" unicode="&#x4e4f;" 
d="M811 783l19 -93l-756 -151l-19 93zM89 72l451 273l-402 -70l-17 94l360 63l-82 113l76 57l96 -130l-43 -32l242 42l34 -88l-536 -325l597 -39l-6 -93l-748 47z" />
    <glyph glyph-name="uni4E50" unicode="&#x4e50;" 
d="M552 137l-14 -36l-158 -157l-66 67l143 141l-17 186l-285 -8l-47 50l21 307l44 44l636 44l6 -95l-595 -40l-15 -215l227 7l-14 165l94 9l14 -171l286 9l2 -95l-280 -8zM632 242l76 55l159 -221l-77 -55zM54 27l174 254l77 -52l-173 -255z" />
    <glyph glyph-name="uni4E52" unicode="&#x4e52;" 
d="M702 324l147 10l6 -95l-784 -49l-5 94l97 6l-18 371l44 49l637 48l6 -94l-591 -44l3 -66l538 -11l-2 -95l-61 1zM606 318l18 133l-375 9l8 -164zM240 183l71 -63l-139 -157l-70 62z" />
    <glyph glyph-name="uni4E53" unicode="&#x4e53;" 
d="M192 236l-44 390l38 51l554 103l17 -93l-510 -93l8 -75l530 27l5 -94l-107 -6l-9 -184l174 9l5 -95l-781 -41l-5 95zM579 257l10 184l-323 -16l20 -184zM640 150l163 -140l-61 -71l-164 138z" />
    <glyph glyph-name="uni4E54" unicode="&#x4e54;" 
d="M867 298l-65 -66l-232 228l-241 -12l-201 -247l-73 59l148 182l-147 -7l-4 95l232 11l95 117l-257 -30l-10 94l620 73l11 -94l-230 -27l-103 -127l426 20l4 -94l-143 -7zM101 -4l159 129l-17 206l94 7l18 -231l-17 -40l-178 -142zM567 -49l10 385l94 -3l-10 -385z" />
    <glyph glyph-name="uni4E56" unicode="&#x4e56;" 
d="M407 474l-327 -15l-5 95l333 16l1 64l-230 -23l-10 93l576 59l10 -95l-251 -25l-1 -69l302 15l5 -95l-308 -15l-8 -523l-95 2zM542 184l26 267l94 -9l-6 -63l186 38l20 -94l-216 -44l-6 -66l203 -70l-30 -90l-239 83zM240 228l3 74l-176 -14l-8 95l188 15l1 31l94 -3
l-13 -365l-95 3l2 64l-117 -35l-27 91z" />
    <glyph glyph-name="uni4E58" unicode="&#x4e58;" 
d="M763 785l11 -94l-231 -29l-2 -53l323 12l4 -95l-330 -12l-12 -356l349 -125l-31 -88l-321 113l-4 -121l-95 3l6 181l-307 -186l-49 80l360 218l9 278l-394 -14l-4 94l402 14l1 45l-264 -32l-13 94zM564 485l92 12l9 -60l121 39l29 -89l-137 -44l7 -45l154 35l21 -91
l-205 -47l-56 38zM265 432v43l94 1l4 -233l-38 -46l-219 -44l-18 93l180 36l-1 55l-152 -9l-6 95z" />
    <glyph glyph-name="uni4E59" unicode="&#x4e59;" 
d="M595 634l-499 -17l-4 95l609 21l37 -79l-502 -570l489 23l-28 142l93 19l38 -197l-45 -57l-653 -28l-38 77z" />
    <glyph glyph-name="uni4E5C" unicode="&#x4e5c;" 
d="M614 545l-341 -64v-429l602 67l10 -94l-655 -73l-52 46v465l-126 -24l-18 93l144 27v209h95v-191l387 73l57 -52l-55 -379l-94 14z" />
    <glyph glyph-name="uni4E5D" unicode="&#x4e5d;" 
d="M295 525l-158 13l7 93l195 -15l65 135l85 -40l-49 -103l227 -17l44 -48l-14 -472l165 18l10 -94l-219 -24l-52 48l13 481l-218 17l-263 -549l-85 41z" />
    <glyph glyph-name="uni4E5E" unicode="&#x4e5e;" 
d="M822 686l8 -94l-610 -43l-83 -170l-85 41l175 356l85 -41l-43 -87zM266 -50l-31 84l383 345l-392 -8l-1 95l520 9l32 -83l-389 -348l367 -5l20 97l92 -20l-27 -135l-48 -37z" />
    <glyph glyph-name="uni4E5F" unicode="&#x4e5f;" 
d="M275 487l-31 -404l500 -25l28 106l92 -24l-39 -143l-48 -35l-587 30l-44 51l33 430l-109 -16l-14 92l131 19l13 172l94 -7l-12 -151l156 23l-8 147l94 6l7 -139l263 39l53 -51l-30 -289l-33 -41l-115 -32l-25 90l83 24l20 198l-211 -31l19 -326l-94 -5l-18 317z" />
    <glyph glyph-name="uni4E60" unicode="&#x4e60;" 
d="M493 -9l10 93l197 -21l30 583l-636 12l1 95l687 -15l45 -49l-34 -680l-53 -43zM198 509l42 84l244 -121l-42 -85zM98 93l452 266l48 -81l-453 -266z" />
    <glyph glyph-name="uni4E61" unicode="&#x4e61;" 
d="M621 684l57 -75l-392 -303l297 -12l222 129l47 -82l-737 -428l-48 81l364 211l-278 13l-26 83l225 175l-221 28l-20 87l341 217l51 -79l-231 -148l184 -23v-2z" />
    <glyph glyph-name="uni4E66" unicode="&#x4e66;" 
d="M631 721l69 65l146 -153l-67 -65zM600 19l26 90l102 -30l41 169l-361 -16l-29 -299l-94 8l28 286l-264 -11l-4 95l278 12l19 198l-237 14l5 94l241 -14l13 126l94 -10l-12 -121l265 -14l44 -50l-11 -205l84 4l47 -59l-67 -278l-60 -34zM418 327l232 10l9 167l-223 12z
" />
    <glyph glyph-name="uni4E69" unicode="&#x4e69;" 
d="M646 758l94 -7l-59 -693l191 18l8 -94l-246 -22l-52 51zM85 6l-44 309l44 53l124 8l-9 375l94 2l4 -167l208 41l19 -92l-224 -45l3 -108l171 11l49 -56l-63 -339l-47 -38l-283 6zM420 295l-279 -18l31 -219l203 -3z" />
    <glyph glyph-name="uni4E70" unicode="&#x4e70;" 
d="M673 445l63 237l-644 -35l-5 94l709 39l49 -59l-80 -300zM201 562l51 79l156 -101l-51 -79zM418 228l-190 -288l-78 52l157 238l-250 6l3 94l308 -7l204 309l79 -51l-172 -261l383 -8l-2 -94zM130 402l31 89l179 -64l-32 -89zM466 128l41 87l334 -159l-40 -85z" />
    <glyph glyph-name="uni4E71" unicode="&#x4e71;" 
d="M571 -30l-41 50l41 755l95 -6l-40 -709l131 -14l53 110l85 -40l-66 -140l-48 -26zM338 335l99 6l50 -49l-12 -302l-48 -46l-287 5l-46 45l-14 278l44 50l119 7l-8 92l-196 -25l-13 94l200 26l-10 102l-139 -17l-11 93l388 50l12 -94l-156 -20l9 -102l167 22l13 -94
l-171 -23zM384 39l7 206l-215 -14l10 -189z" />
    <glyph glyph-name="uni4E73" unicode="&#x4e73;" 
d="M355 724l108 64l47 -81l-117 -69l-20 -6l-301 -24l-8 94zM563 79l36 618l95 -6l-35 -575l203 -37l-18 -92l-242 44zM463 632l89 -29l-54 -170l-90 29zM143 607l99 -140l-78 -55l-99 141zM330 604l54 -143l-89 -34l-52 144zM262 190v1l11 52l65 59l-225 -20l-9 94l364 33
l36 -81l-126 -117l146 27l18 -92l-150 -28l25 -61l-20 -59l-123 -67l-46 80l86 50l-16 40l-221 -40l-18 92z" />
    <glyph glyph-name="uni4E7E" unicode="&#x4e7e;" 
d="M324 -77l-94 11l11 92l-174 -13l-8 95l193 15l6 51l-111 -10l-53 47v135h-30l-1 95h31v100l49 48l56 -1l16 37l-161 8l5 95l196 -10l33 78l87 -37l-20 -46l113 -5l-4 -94l-148 7l-15 -36l116 -2l46 -48v-300l-44 -46l-64 -6l-6 -53l158 13l7 -95l-177 -14zM833 700l1 -95
l-230 -2l-22 -74l-92 26l68 221l90 -27l-15 -51zM189 264l179 15v210l-179 4v-50l150 3l1 -95l-151 -3v-84zM598 -40l-36 71l183 322l-238 18l7 95l314 -25l37 -71l-185 -324l159 -17l-11 -94z" />
    <glyph glyph-name="uni4E86" unicode="&#x4e86;" 
d="M503 75l-50 321l12 39l198 225l-546 6l1 94l649 -8l35 -77l-252 -287l53 -348l-41 -55l-286 -25l-9 92z" />
    <glyph glyph-name="uni4E88" unicode="&#x4e88;" 
d="M754 399l-235 -24l30 -377l-52 -50l-288 31l11 94l231 -25l-24 317l-366 -37l-10 93l242 25l-106 128l73 60l146 -177l116 12l128 186l-545 23l5 95l629 -28l36 -74l-130 -189l175 18l49 -64l-83 -220l-89 33z" />
    <glyph glyph-name="uni4E89" unicode="&#x4e89;" 
d="M537 -30l-50 -51l-360 30l8 93l305 -25l-7 79h-318v95h311l-6 65l-371 -12l-3 93l367 13l-6 71l-307 -11l-4 95l339 12l92 84l-298 -15l-88 -67l-57 75l268 206l58 -75l-50 -38l294 14l35 -81l-108 -98l175 7l49 -50l-10 -115l76 3l3 -95l-87 -3l-10 -128l-47 -44
l-203 -1zM507 354l193 7l6 71l-205 -8zM692 265l-178 -6l6 -68l166 1z" />
    <glyph glyph-name="uni4E8B" unicode="&#x4e8b;" 
d="M517 35l-27 -43l-132 -60l-38 85l61 28l-271 9l2 94l308 -10l-1 37h-357v94h354l-1 27l-283 -12l-5 94l285 12v14l-212 -6l-48 39l-19 112l45 55l228 8v19l-341 -11l-3 94l341 11l-1 60l94 3l1 -60l310 11l3 -95l-310 -10v-18l233 9l49 -56l-22 -119l-45 -37l-209 -6v-13
l227 10l49 -47v-88h75v-94h-75v-93l-49 -48l-216 7v-6zM503 500l172 5l3 24l-175 -6v-23zM409 497v22l-174 -6l3 -20zM510 269h178v39l-179 -8zM688 175h-175l1 -40l174 -5v45z" />
    <glyph glyph-name="uni4E8C" unicode="&#x4e8c;" 
d="M639 670l21 -93l-447 -102l-21 92zM852 219l8 -94l-791 -76l-10 95z" />
    <glyph glyph-name="uni4E8D" unicode="&#x4e8d;" 
d="M706 753l4 -94l-465 -21l-5 95zM846 513l6 -95l-322 -18l28 -281l-22 -45l-180 -108l-49 80l155 93l-26 256l-364 -19l-5 95z" />
    <glyph glyph-name="uni4E8E" unicode="&#x4e8e;" 
d="M532 424l331 31l9 -94l-329 -31l30 -255l-35 -52l-245 -68l-25 91l207 57l-26 219l-393 -36l-9 94l391 36l-29 249l-259 5l2 93l646 -11l-2 -94l-291 5z" />
    <glyph glyph-name="uni4E8F" unicode="&#x4e8f;" 
d="M195 754l480 16l4 -94l-480 -16zM302 330l397 27l50 -56l-44 -224l-28 -35l-245 -93l-34 86l220 86l26 138l-390 -28l-50 51l11 151l-150 -11l-6 94l794 60l7 -94l-550 -42z" />
    <glyph glyph-name="uni4E91" unicode="&#x4e91;" 
d="M145 766l593 9l2 -94l-594 -9zM203 62l466 81l-43 79l84 44l148 -276l-82 -45l-60 111l-591 -101l-50 67l191 360l-219 -12l-5 95l830 47l6 -94l-501 -29z" />
    <glyph glyph-name="uni4E92" unicode="&#x4e92;" 
d="M808 728l3 -95l-374 -9l-159 -319l225 1l2 -95l-304 -1l-43 68l172 343l-192 -4l-2 95zM502 105l161 272l-263 36l13 94l333 -46l35 -71l-165 -279l207 11l5 -94l-731 -38l-5 93z" />
    <glyph glyph-name="uni4E93" unicode="&#x4e93;" 
d="M227 773l559 -45l-8 -95l-559 47zM859 523l3 -95l-149 -6l20 -435l-94 -5l-20 437l-256 -10l-151 -464l-90 28l141 432l-202 -7l-3 94z" />
    <glyph glyph-name="uni4E94" unicode="&#x4e94;" 
d="M432 468l269 18l50 -52l-42 -341l128 7l5 -95l-760 -37l-5 93l223 11l27 296l-150 -10l-6 93l165 11l18 186l-223 10l4 95l666 -29l-5 -95l-348 15zM395 77l219 11l36 301l-227 -15z" />
    <glyph glyph-name="uni4E95" unicode="&#x4e95;" 
d="M226 321l38 244l-133 6l4 93l144 -6l18 115l94 -15l-17 -104l185 -7v117h95v-121l133 -5l-3 -94l-129 5v-209l200 9l4 -93l-203 -9l1 -301h-95l-1 296l-253 -11l-31 -194l-93 15l27 175l-145 -6l-5 93zM560 336v217l-200 8l-37 -236z" />
    <glyph glyph-name="uni4E98" unicode="&#x4e98;" 
d="M69 679l4 94l777 -32l-3 -95zM195 149l-20 147l-65 -8l-11 93l63 8l-22 166l52 53l536 -45l41 -60l-90 -325l-41 -34l-391 -35zM256 401l311 39l11 -94l-309 -39l14 -101l315 29l66 239l-422 35zM69 41l756 29l4 -94l-757 -28z" />
    <glyph glyph-name="uni4E9A" unicode="&#x4e9a;" 
d="M601 41l252 -2l-1 -93l-803 7v94l231 -3l-29 613l-186 -6l-3 93l772 29l4 -95l-192 -7zM506 42l46 626l-207 -7l28 -618zM627 133l157 389l88 -35l-158 -390zM92 401l88 30l84 -244l-90 -30z" />
    <glyph glyph-name="uni4E9B" unicode="&#x4e9b;" 
d="M47 574l94 12l27 -229l72 13v398h93v-142l85 6l7 -94l-92 -6v-144l109 20l18 -92l-324 -60l-55 40zM501 353l51 401l94 -12l-19 -149l179 84l40 -85l-234 -109l-12 -96l272 -39l-14 -94l-317 47zM716 246l6 -95l-470 -27l-5 94zM828 103l8 -94l-716 -58l-8 95z" />
    <glyph glyph-name="uni4E9F" unicode="&#x4e9f;" 
d="M417 232l-25 268l18 41l142 111l-398 13l2 93l529 -16l27 -84l-223 -176l25 -271l-22 -44l-117 -74l-50 80zM639 295l-70 58l58 73l71 -59l56 68l-147 46l29 90l213 -68l21 -75l-99 -120l78 -63l-59 -73l-78 64l-90 -110l-72 60zM62 478l43 53l205 20l52 -51l-26 -273
l-44 -42l-145 -12l-50 40zM246 276l16 176l-100 -10l23 -171zM862 90l4 -94l-810 -36l-5 95z" />
    <glyph glyph-name="uni4EA0" unicode="&#x4ea0;" 
d="M402 366l-43 30l52 77l105 -71l-18 -27l302 28l9 -94l-689 -63l-9 93z" />
    <glyph glyph-name="uni4EA1" unicode="&#x4ea1;" 
d="M280 100l498 90l16 -92l-559 -101l-55 51l41 465l-151 4l3 93l353 -7l-25 95l90 25l34 -122l325 -6l-1 -95l-533 11z" />
    <glyph glyph-name="uni4EA2" unicode="&#x4ea2;" 
d="M430 655l-45 87l83 44l65 -124l322 22l6 -94l-793 -55l-6 95zM200 149l33 271l44 41l340 18l49 -42l44 -361l101 66l52 -78l-165 -108l-72 34l-48 392l-256 -12l-31 -248l-13 -26l-152 -162l-69 63z" />
    <glyph glyph-name="uni4EA4" unicode="&#x4ea4;" 
d="M103 675l306 -7l-49 65l73 58l98 -125l317 -7l-2 -94l-745 16zM541 222l259 -159l-50 -80l-293 180l-330 -235l-55 76l299 212l-159 98l-59 -63l-68 65l233 248l69 -65l-109 -115l176 -108l185 131l-61 57l64 70l206 -191l-63 -70l-75 69z" />
    <glyph glyph-name="uni4EA5" unicode="&#x4ea5;" 
d="M384 659l-41 43l68 66l99 -101l327 21l6 -95l-441 -28l-147 -197l152 2l245 192l59 -74l-575 -452l-59 74l207 163h-124l-38 77l155 207l-167 -10l-7 95zM753 462l63 -72l-204 -172l211 -182l-62 -71l-223 190l-243 -205l-62 72z" />
    <glyph glyph-name="uni4EA6" unicode="&#x4ea6;" 
d="M426 663l-27 80l90 30l34 -104l367 20l5 -95l-258 -14l60 -547l-38 -51l-161 -33l-20 90l120 26l-56 510l-159 -9l-100 -619l-94 15l97 599l-222 -12l-5 94zM754 465l141 -167l-72 -61l-141 167zM129 462l89 -33l-106 -281l-88 34z" />
    <glyph glyph-name="uni4EA7" unicode="&#x4ea7;" 
d="M116 653l257 22l-47 43l64 70l112 -102l313 27l7 -94l-698 -60zM252 336l-85 -404l-91 20l82 387l-38 1l4 94l212 -7l-79 53l53 79l179 -120l180 141l58 -73l-112 -88l229 -7l-3 -94z" />
    <glyph glyph-name="uni4EA8" unicode="&#x4ea8;" 
d="M428 682l-28 50l83 46l47 -84l295 37l12 -95l-740 -92l-13 95zM212 491l40 57l428 51l53 -47v-146l-44 -48l-401 -29l-49 38zM638 451v47l-323 -39l8 -32zM473 48l-30 46l17 69l104 54l-389 -31l-8 95l622 50l26 -90l-265 -138l48 -71l-38 -74l-277 -17l-5 95z" />
    <glyph glyph-name="uni4EA9" unicode="&#x4ea9;" 
d="M33 659l357 23l-24 77l88 29l32 -100l395 26l6 -94l-849 -55zM126 -26l-52 507l94 10l3 -25l597 53l51 -51l-36 -469l-45 -41l-564 -25zM537 275l117 -7l-5 -94l-118 7l-8 -140l169 8l29 371l-176 -16zM443 281l7 115l-271 -23l8 -77zM428 37l9 150l-240 14l19 -173z" />
    <glyph glyph-name="uni4EAB" unicode="&#x4eab;" 
d="M371 706l-16 21l75 58l55 -72l351 19l5 -93l-763 -43l-6 94zM222 416l-11 111l44 52l413 27l50 -47l-1 -154l-49 -46l-401 15zM625 509l-315 -22l2 -21l311 -11zM447 167l14 28l74 45h-355v95l522 -1l25 -88l-109 -66l224 16l6 -94l-307 -23l7 -70l-40 -52l-190 -23
l-12 92l144 18l-3 28l-350 -25l-6 95z" />
    <glyph glyph-name="uni4EAC" unicode="&#x4eac;" 
d="M387 684l-38 62l80 50l66 -106l367 20l5 -94l-793 -44l-5 95zM201 482l42 57l475 37l50 -49l-6 -207l-44 -45l-186 -10l19 -228l-29 -48l-165 -65l-35 87l132 53l-15 196l-151 -8l-49 38zM669 366l4 111l-370 -28l20 -100zM656 221l206 -180l-61 -71l-208 180zM284 199
l53 -79l-231 -154l-53 78z" />
    <glyph glyph-name="uni4EAD" unicode="&#x4ead;" 
d="M421 738v35h94v-32l331 12l4 -93l-760 -29l-4 95zM141 545l44 55l515 33l50 -50l-9 -133l-45 -44l-486 -19l-48 39zM650 498l2 38l-410 -28l5 -25zM762 298l-587 -46l5 -22l-93 -19l-30 147l93 18l6 -31l657 51l50 -53l-15 -106l-93 13zM833 220l4 -94l-289 -10l-8 -128
l-52 -43l-216 22l10 94l168 -18l4 70l-319 -11l-4 94z" />
    <glyph glyph-name="uni4EAE" unicode="&#x4eae;" 
d="M426 715l-18 59l92 27l23 -81l300 13l5 -94l-733 -31l-4 93zM162 516l43 60l522 30l49 -60l-43 -143l-43 -34l-445 -11l-47 33zM653 463l13 46l-398 -24l10 -32zM92 334l735 16l46 -57l-35 -158l-91 20l21 99l-613 -13l28 -95l-91 -27l-45 155zM585 3l25 122l-290 -4
l-14 -121l-38 -40l-162 -35l-20 91l130 28l15 130l46 41l390 4l46 -56l-26 -130l159 -23l-13 -92l-208 30z" />
    <glyph glyph-name="uni4EB2" unicode="&#x4eb2;" 
d="M584 39l-28 -47l-155 -70l-38 85l125 57l-13 154l-346 -6l-3 93l341 7l-7 73l-396 -33l-9 93l198 17l-37 57l78 51l65 -99l183 16l112 121l-570 -20l-4 95l324 11l-31 60l83 44l52 -100l326 12l4 -95l-177 -7l65 -60l-45 -49l175 16l9 -95l-310 -27l7 -79l237 5l2 -95
l-232 -5zM89 12l226 176l58 -74l-227 -175zM619 103l55 76l189 -136l-55 -76z" />
    <glyph glyph-name="uni4EB3" unicode="&#x4eb3;" 
d="M282 732l-25 31l72 60l64 -79l335 38l10 -94l-658 -74l-10 94zM184 552l40 60l379 40l52 -55l-27 -159l-44 -39l-311 -19l-48 34zM540 490l12 62l-262 -28l14 -47zM88 347l731 50l50 -48v-152h-94v102l-633 -44l6 -65l-95 -7l-9 112zM647 280l13 -93l-157 -23l1 -48
l366 24l7 -93l-372 -25v-22l230 -10l-5 -93l-273 12l-45 46l-1 60l-333 -22l-5 95l337 22l-1 41l-144 -21l-13 94z" />
    <glyph glyph-name="uni4EB5" unicode="&#x4eb5;" 
d="M39 697l310 17l-24 43l83 46l46 -84l356 20l5 -94l-771 -42zM629 305l28 158l-86 1l-15 -63l69 -29l-37 -87l-55 24l-6 -26l-92 22l10 42l-46 20l38 86l31 -14l6 26l-154 2l1 -20l51 10l17 -93l-61 -12l6 -70l-35 -49l-185 -49l-24 91l148 39l-2 20l-99 -19l-18 93
l110 21l-3 39l-134 2l1 95l126 -2l-2 34l93 7l3 -43l184 -3l17 69l91 -22l-12 -48l121 -2l45 -55l-22 -127l118 47l35 -87l-197 -79zM473 192l67 66l102 -103l122 75l50 -80l-104 -64l103 -103l-68 -66zM280 30l187 69l32 -87l-244 -92l-63 40l-9 98l-121 -44l-33 89
l364 134l32 -89l-150 -56z" />
    <glyph glyph-name="uni4EBA" unicode="&#x4eba;" 
d="M500 758l80 -49l-449 -748l-80 48zM490 424l379 -356l-65 -69l-379 357z" />
    <glyph glyph-name="uni4EBB" unicode="&#x4ebb;" 
d="M684 776l53 -79l-500 -333l-53 78zM478 522l94 -5l-30 -573l-95 3z" />
    <glyph glyph-name="uni4EBF" unicode="&#x4ebf;" 
d="M281 -49l-94 -7l-48 519l-46 -58l-75 59l245 311l74 -59l-114 -145zM378 0l-36 75l381 545l-355 14l4 95l441 -18l36 -74l-381 -548l303 -19l38 211l93 -16l-46 -253l-49 -38z" />
    <glyph glyph-name="uni4EC0" unicode="&#x4ec0;" 
d="M377 755l47 -82l-162 -94l13 -612l-94 -2l-11 561l-91 -53l-48 82zM546 432l-6 314l94 2l6 -303l236 31l13 -94l-247 -32l8 -383l-94 -2l-8 373l-231 -30l-11 93z" />
    <glyph glyph-name="uni4EC1" unicode="&#x4ec1;" 
d="M327 753l69 -65l-146 -154h27v-566h-93v496l-70 -73l-68 65zM799 619l16 -93l-446 -78l-17 93zM302 140l572 -16l-4 -94l-570 16z" />
    <glyph glyph-name="uni4EC2" unicode="&#x4ec2;" 
d="M276 783l66 -66l-114 -114l24 -664l-95 -3l-19 578l-40 -40l-66 68zM453 525l-147 -11l-8 95l182 14l35 125l90 -25l-25 -92l256 20l51 -53l-76 -614l-65 -37l-176 72l35 88l120 -50l61 495l-233 -19l-158 -574l-90 25z" />
    <glyph glyph-name="uni4EC3" unicode="&#x4ec3;" 
d="M283 780l59 -74l-95 -76h8l-12 -675l-93 1l9 604l-63 -50l-59 74zM878 706l5 -94l-176 -9v-618l-56 -46l-270 51l17 92l214 -41v557l-262 -13l-5 94z" />
    <glyph glyph-name="uni4EC4" unicode="&#x4ec4;" 
d="M135 695l46 44l649 22l4 -95l-608 -20l-47 -687l-94 6zM513 577l87 -36l-240 -579l-87 37zM549 269l286 -220l-57 -74l-287 219z" />
    <glyph glyph-name="uni4EC5" unicode="&#x4ec5;" 
d="M239 537l38 -558l-94 -6l-32 467l-52 -67l-75 59l266 341l74 -59l-139 -178zM860 49l-70 -62l-193 218l-204 -258l-74 56l215 272l-171 194l70 63l160 -182l185 234l-379 90l21 91l452 -106l25 -75l-241 -305z" />
    <glyph glyph-name="uni4EC6" unicode="&#x4ec6;" 
d="M612 760l7 -258l266 -97l-31 -89l-232 84l12 -439l-94 -2l-23 798zM360 755l52 -79l-116 -78l-31 -639l-94 5l27 569l-109 -73l-53 77z" />
    <glyph glyph-name="uni4EC7" unicode="&#x4ec7;" 
d="M451 472l-137 -14l-10 93l173 18l55 197l90 -25l-45 -162l193 20l52 -53l-55 -453l118 -55l-40 -85l-150 68l-26 48l53 431l-171 -18l-141 -514l-91 25zM199 405l-131 -6l-34 82l270 248l64 -69l-174 -160l55 3l50 -53l-57 -475l-94 11z" />
    <glyph glyph-name="uni4EC9" unicode="&#x4ec9;" 
d="M158 567l-89 -51l-48 82l305 175l48 -81l-120 -70l-19 -677l-94 2zM685 66l44 554l-259 -18l-58 -636l-93 9l61 676l44 42l353 25l50 -51l-46 -572l119 -43l-33 -89l-151 55z" />
    <glyph glyph-name="uni4ECA" unicode="&#x4eca;" 
d="M470 791l59 -73l-26 -21l392 -219l-46 -83l-426 238l-339 -273l-59 74zM439 573l174 -144l-62 -73l-172 145zM609 238l-381 26l6 94l484 -34l31 -80l-313 -316l-67 66z" />
    <glyph glyph-name="uni4ECB" unicode="&#x4ecb;" 
d="M428 768l68 -66l-383 -384l-66 66zM510 647l362 -159l-37 -86l-364 158zM692 450l31 -493l-93 -5l-33 493zM253 159l35 278l94 -13l-36 -292l-14 -27l-142 -150l-69 64z" />
    <glyph glyph-name="uni4ECD" unicode="&#x4ecd;" 
d="M421 310l33 350l-90 6l7 94l416 -26l39 -69l-112 -211l125 -24l38 -54l-49 -307l-27 -35l-169 -75l-38 86l144 64l39 237l-143 26l-32 69l106 203l-160 10l-35 -359l-1 -10l-104 -309l-89 29zM264 745l68 -66l-120 -125l69 -3l-19 -562l-95 3l19 535l-75 -78l-68 65z" />
    <glyph glyph-name="uni4ECE" unicode="&#x4ece;" 
d="M879 116l-68 -66l-241 246l-134 -341l-87 35l305 775l87 -35l-133 -339zM425 230l-66 -68l-139 138l-89 -280l-90 28l226 713l90 -28l-105 -331z" />
    <glyph glyph-name="uni4ED1" unicode="&#x4ed1;" 
d="M434 607l-120 -102h3l6 -249l345 146l36 -86l-379 -160l3 -91l354 -40l91 237l89 -33l-105 -270l-49 -30l-431 47l-41 45l-11 407l-121 -104l-61 71l458 395l61 -73l-47 -40l362 -130l-33 -87z" />
    <glyph glyph-name="uni4ED3" unicode="&#x4ed3;" 
d="M868 536l-37 -87l-395 171l-333 -213l-51 80l465 296l51 -79l-36 -23zM225 -31l-45 50l21 370l44 44l435 29l50 -54l-38 -245l-57 -39l-225 54l22 91l174 -41l21 136l-335 -22l-15 -281l424 -28l29 143l92 -19l-36 -183l-49 -38z" />
    <glyph glyph-name="uni4ED4" unicode="&#x4ed4;" 
d="M216 788l77 -53l-131 -193l85 2l11 -571l-93 -3l-13 557l-62 -92l-78 53zM554 332l-7 125l15 37l154 139l-380 24l6 95l491 -33l28 -81l-219 -199l6 -94l247 34l12 -92l-254 -35l12 -187l-22 -42l-141 -91l-51 78l119 77l-10 152l-253 -35l-12 93z" />
    <glyph glyph-name="uni4ED5" unicode="&#x4ed5;" 
d="M622 80l215 9l3 -95l-491 -19l-4 95l182 7l29 400l-231 5l3 94l235 -5l14 190l93 -6l-14 -186l214 -4l-1 -94l-219 4zM260 750l68 -66l-152 -154l83 5l34 -571l-94 -5l-34 561l-50 -51l-66 66z" />
    <glyph glyph-name="uni4ED6" unicode="&#x4ed6;" 
d="M472 459v-335l391 -80l-19 -92l-429 88l-38 47v344l-60 -17l-27 90l87 25v131h95v-103l74 21l-16 181l95 9l14 -162l168 49l60 -47l-10 -371l-23 -39l-95 -59l-49 80l73 46l9 282l-125 -37l22 -245l-94 -8l-21 226zM274 735l59 -72l-80 -65l32 -633l-95 -5l-28 564
l-49 -40l-59 74z" />
    <glyph glyph-name="uni4ED7" unicode="&#x4ed7;" 
d="M150 583l-77 -43l-46 82l263 148l46 -83l-90 -50l-14 -674l-94 3zM747 432l-10 -26l-122 -154l230 -190l-60 -72l-229 188l-181 -228l-74 58l182 230l-111 92l60 73l110 -91l111 140l6 110l-326 13l4 93l327 -13l6 113l95 -3l-6 -113l133 -5l-4 -94l-134 5z" />
    <glyph glyph-name="uni4ED8" unicode="&#x4ed8;" 
d="M274 753l73 -60l-109 -131l54 -568l-95 -8l-45 473l-48 -58l-73 61zM698 608l4 144l95 -3l-4 -135l91 5l5 -95l-99 -6l-15 -506l-48 -46l-207 5l2 95l160 -4l13 451l-354 -20l-5 95zM469 419l167 -257l-79 -51l-168 256z" />
    <glyph glyph-name="uni4ED9" unicode="&#x4ed9;" 
d="M280 751l66 -67l-86 -86l33 -623l-93 -5l-29 540l-78 -78l-66 67zM332 464l94 3l11 -333l128 17l-10 594l93 1l11 -583l116 16l25 350l93 -7l-40 -553l-93 6l8 108l-371 -49l-52 45z" />
    <glyph glyph-name="uni4EDD" unicode="&#x4edd;" 
d="M457 763l66 -67l-43 -42l377 -268l-55 -78l-390 279l-282 -278l-66 68zM682 388l3 -94l-185 -7l9 -231l274 7l2 -95l-615 -12l-1 93l245 5l-8 230l-186 -7l-3 94z" />
    <glyph glyph-name="uni4EDE" unicode="&#x4ede;" 
d="M263 761l69 -63l-95 -103l20 1l15 -625l-94 -2l-14 547l-72 -77l-69 65zM554 625l-178 15l7 94l470 -39l44 -49l-33 -622l-57 -44l-184 44l21 91l129 -30l28 520l-150 12l-174 -659l-91 23zM393 536l93 -21l-60 -274l-93 20z" />
    <glyph glyph-name="uni4EDF" unicode="&#x4edf;" 
d="M376 689l439 92l20 -92l-440 -93zM289 586l-44 -644l-95 5l38 564l-66 -112l-81 47l196 334l83 -48l-85 -143zM692 -58l-95 -3l-13 360l-240 -27l-12 94l249 28l-7 218l95 3l7 -211l194 22l10 -94l-201 -23z" />
    <glyph glyph-name="uni4EE1" unicode="&#x4ee1;" 
d="M259 773l72 -62l-105 -120l20 1l26 -640l-94 -4l-23 562l-41 -47l-71 63zM448 767l80 -50l-47 -75l367 65l16 -92l-471 -85l-49 71zM386 96l320 285l-343 -35l-10 94l488 50l36 -83l-354 -315l341 -55l-15 -92l-440 70z" />
    <glyph glyph-name="uni4EE3" unicode="&#x4ee3;" 
d="M491 522l-11 197l95 5l11 -186l163 27l-105 167l80 51l109 -174l-66 -41l115 19l15 -94l-306 -51l17 -282l254 -140l-47 -83l-276 153l-25 39l-17 298l-170 -28l-15 94zM244 770l66 -67l-76 -75h31l-20 -684l-95 4l18 616l-78 -76l-66 67z" />
    <glyph glyph-name="uni4EE4" unicode="&#x4ee4;" 
d="M503 790l56 -75l-58 -43l371 -181l-41 -85l-414 204l-313 -231l-56 75zM406 566l162 -140l-61 -71l-163 140zM292 186l152 -95l148 153l-401 -4l-2 94l515 5l35 -80l-213 -219l50 -31l-52 -80l-282 177z" />
    <glyph glyph-name="uni4EE5" unicode="&#x4ee5;" 
d="M710 758l86 -40l-159 -348l223 -279l-74 -59l-193 242l-143 -314l-86 37zM82 755l94 -3l-17 -617l162 145l63 -70l-244 -218l-79 36zM384 738l118 -263l-86 -39l-119 264z" />
    <glyph glyph-name="uni4EE8" unicode="&#x4ee8;" 
d="M259 768l70 -61l-124 -141l37 1l20 -613l-95 -2l-16 552l-54 -61l-71 61zM849 682l7 -94l-505 -44l-9 94zM421 414l351 -21l-5 -94l-352 20zM889 90l6 -93l-576 -35l-7 93z" />
    <glyph glyph-name="uni4EEA" unicode="&#x4eea;" 
d="M247 553l-13 -599l-94 2l12 506l-53 -98l-83 45l195 364l83 -45l-93 -174zM487 724l83 46l84 -149l-83 -46zM585 217l-178 -269l-78 52l195 295l-225 286l73 59l207 -263l247 373l79 -52l-265 -398l226 -285l-74 -59z" />
    <glyph glyph-name="uni4EEB" unicode="&#x4eeb;" 
d="M593 768l74 -58l-300 -386l-75 57zM227 764l74 -59l-83 -104l52 -1l-17 -642l-93 2l14 587l-89 -112l-73 59zM701 591l76 -55l-317 -447l259 54l-34 62l81 46l142 -252l-82 -46l-59 104l-406 -86l-49 74z" />
    <glyph glyph-name="uni4EEC" unicode="&#x4eec;" 
d="M127 502l-41 -50l-74 60l224 271l72 -60l-93 -113l38 -650l-93 -7zM332 717l74 60l137 -166l-72 -60zM673 26l129 34l11 583l-253 -23l-10 93l307 29l51 -47l-12 -673l-35 -45l-164 -42zM322 580l94 2l15 -629l-94 -2z" />
    <glyph glyph-name="uni4EF0" unicode="&#x4ef0;" 
d="M262 776l71 -61l-132 -153l59 -3l-32 -579l-95 5l29 531l-57 -66l-71 61zM593 656l47 46h199l48 -47v-519l-67 -42l-112 46l36 87l48 -20v400h-105l-9 -663l-94 1zM298 557l27 47l183 83l39 -85l-152 -70l30 -336l108 55l42 -85l-170 -85l-67 38z" />
    <glyph glyph-name="uni4EF2" unicode="&#x4ef2;" 
d="M343 517l45 53l203 9l2 187h95l-1 -183l156 7l49 -54l-42 -307l-38 -40l-128 -26l-1 -209h-95l1 190l-144 -29l-57 40zM263 761l73 -59l-146 -181l78 9l53 -550l-94 -9l-51 533l-75 -93l-74 59zM685 259l76 16l30 217l-105 -4zM589 240l2 244l-148 -5l33 -262z" />
    <glyph glyph-name="uni4EF3" unicode="&#x4ef3;" 
d="M186 758l82 -49l-60 -99l45 -2l-34 -646l-94 5l29 555l-59 -97l-80 49zM576 93l70 625l94 -11l-22 -195l146 70l41 -85l-200 -95l-31 -283l186 -70l-32 -87l-222 81zM309 665l95 3l3 -158l148 17l10 -94l-156 -17l6 -256l93 80l61 -72l-169 -143l-77 34z" />
    <glyph glyph-name="uni4EF5" unicode="&#x4ef5;" 
d="M560 257l-237 -18l-8 94l246 19l4 215l-112 10l-58 -124l-85 40l134 285l85 -40l-33 -69l369 -33l-8 -94l-199 17l-2 -200l243 19l8 -94l-253 -20l-4 -323l-95 1zM178 752l84 -44l-76 -149l31 4l62 -612l-94 -9l-52 513l-35 -68l-84 44z" />
    <glyph glyph-name="uni4EF6" unicode="&#x4ef6;" 
d="M426 761l88 -36l-51 -119l107 8l5 136l95 -4l-5 -125l141 10l6 -93l-150 -12l-7 -201l236 23l9 -94l-249 -24l-9 -272l-95 3l9 260l-250 -23l-9 93l262 25l8 203l-145 -11l-38 -90l-87 37zM291 750l68 -65l-169 -175l61 1l10 -526l-94 -1l-11 492l-67 -70l-68 65z" />
    <glyph glyph-name="uni4EF7" unicode="&#x4ef7;" 
d="M566 613l-245 -183l-56 75l370 278l56 -76l-45 -34l247 -170l-53 -77zM138 484l-48 -44l-63 70l228 206l62 -70l-86 -78l10 -632l-94 -1zM658 447l94 9l49 -509l-94 -9zM297 11l131 130l-3 291l95 1l2 -312l-14 -34l-145 -142z" />
    <glyph glyph-name="uni4EFB" unicode="&#x4efb;" 
d="M810 763l20 -92l-150 -32l-3 -229l206 -11l-5 -93l-203 10l-3 -253l193 5l2 -94l-511 -12l-3 94l224 5l4 260l-245 13l5 94l241 -13l3 203l-189 -40l-20 93zM302 748l70 -62l-114 -124h5l13 -604l-94 -2l-10 511l-65 -71l-70 63z" />
    <glyph glyph-name="uni4EFD" unicode="&#x4efd;" 
d="M288 786l63 -72l-164 -140l65 -3l-25 -616l-95 4l25 589l-77 -66l-63 72zM493 760l70 -63l-226 -253l-70 62zM658 712l244 -165l-54 -78l-243 165zM472 334l-106 -8l-8 95l407 30l51 -51l-41 -426l-59 -40l-169 41l24 92l115 -30l30 315l-135 -10l-186 -397l-87 39z" />
    <glyph glyph-name="uni4EFF" unicode="&#x4eff;" 
d="M746 319l-224 -14l-52 -237l-10 -20l-93 -111l-72 61l85 102l93 429l-132 -12l-9 95l241 21l-52 109l85 41l67 -141l195 18l9 -95l-305 -27l-29 -137l250 17l52 -50l-28 -419l-95 6zM313 755l60 -73l-111 -92l15 -620l-95 -2l-13 545l-67 -56l-60 73z" />
    <glyph glyph-name="uni4F01" unicode="&#x4f01;" 
d="M887 533l-34 -89l-436 168l-329 -245l-56 76l470 350l56 -77l-51 -38zM587 269l-23 -233l319 11l3 -95l-810 -26l-3 95l156 5l-12 342l95 4l12 -343l145 4l46 460l93 -10l-12 -119h274v-95h-283z" />
    <glyph glyph-name="uni4F09" unicode="&#x4f09;" 
d="M310 765l54 -78l-145 -101l43 -1l-18 -628l-94 3l17 589l-84 -58l-54 78zM539 632l-32 105l90 28l39 -127l248 17l6 -94l-563 -39l-7 95zM679 30l8 314l-207 15l-75 -403l-92 18l82 443l50 39l293 -22l44 -48l-8 -319l115 -21l-16 -92l-156 28z" />
    <glyph glyph-name="uni4F0A" unicode="&#x4f0a;" 
d="M257 773l76 -56l-124 -169l45 3l25 -589l-93 -4l-23 528l-59 -81l-76 55zM819 247l-43 -44l-186 -13l-4 -13l-174 -232l-75 56l135 181l-96 -6l-7 94l134 9l5 147l-182 7l3 94l183 -7l4 127l-142 1l2 94l425 -5l46 -50l-12 -178l57 -2l-3 -95l-60 2zM605 517l136 -5
l8 133l-139 1zM735 417l-133 5l-5 -136l131 9z" />
    <glyph glyph-name="uni4F0D" unicode="&#x4f0d;" 
d="M245 773l75 -59l-113 -142l14 1l31 -622l-94 -5l-27 531l-40 -51l-74 58zM604 454l181 -10l43 -53l-44 -299l114 4l4 -94l-606 -21l-3 95l170 5l35 285l-156 10l6 93l161 -9l17 137l-196 12l5 95l521 -31l-5 -95l-230 14zM559 84l130 5l39 264l-135 8z" />
    <glyph glyph-name="uni4F0E" unicode="&#x4f0e;" 
d="M565 668l5 115l93 -4l-5 -104l177 13l7 -95l-188 -13l-5 -124l167 -36l21 -82l-182 -155l222 -158l-55 -76l-241 172l-216 -184l-62 71l199 169l-134 97l55 76l153 -110l127 108l-317 69l20 92l151 -33l4 97l-194 -13l-6 94zM282 750l53 -77l-239 -164l-54 78zM171 522
l94 -7l-38 -551l-94 6z" />
    <glyph glyph-name="uni4F0F" unicode="&#x4f0f;" 
d="M314 775l76 -58l-138 -182h2l40 -570l-95 -7l-33 462l-52 -69l-75 57zM487 481l81 270l91 -28l-67 -224l271 46l16 -94l-317 -53l-20 -67l338 -309l-63 -70l-306 277l-84 -284l-92 27l122 408l-122 -20l-16 93zM742 743l86 -151l-83 -46l-86 150z" />
    <glyph glyph-name="uni4F10" unicode="&#x4f10;" 
d="M746 768l129 -119l-65 -69l-129 119zM506 513l-14 247l95 6l13 -238l266 43l15 -93l-275 -45l10 -182l8 -6l177 158l64 -72l-165 -146l185 -146l-59 -74l-198 156l-189 -168l-64 70l177 158l-11 9l-19 34l-11 194l-167 -27l-15 94zM287 739l74 -60l-91 -109h2l12 -614
l-95 -1l-10 504l-70 -84l-73 61z" />
    <glyph glyph-name="uni4F11" unicode="&#x4f11;" 
d="M270 770l77 -54l-128 -186l42 -3l-35 -552l-94 6l28 463l-46 -68l-78 54zM520 616l-3 135l94 3l3 -128l251 28l10 -94l-258 -28l17 -581l-95 -2l-16 572l-189 -20l-10 94zM410 434l86 -38l-155 -354l-86 39zM761 371l124 -315l-88 -34l-123 314z" />
    <glyph glyph-name="uni4F17" unicode="&#x4f17;" 
d="M840 492l-44 -84l-406 213l-274 -252l-64 69l385 355l64 -69l-38 -35zM868 18l-62 -70l-208 185l-98 -207l-85 41l212 446l85 -41l-72 -151zM456 147l-56 -75l-132 98l-126 -233l-84 45l229 422l84 -45l-58 -106z" />
    <glyph glyph-name="uni4F18" unicode="&#x4f18;" 
d="M657 740l83 45l82 -153l-82 -45zM200 -54l-94 5l29 578l-64 -53l-60 73l278 233l61 -72l-117 -98zM386 -66l-91 25l136 495l-154 -9l-5 94l185 10l62 226l90 -25l-54 -195l299 17l6 -93l-331 -20zM630 -20l-50 415l92 11l44 -350l153 71l40 -85l-212 -100z" />
    <glyph glyph-name="uni4F19" unicode="&#x4f19;" 
d="M480 435l-168 137l60 73l143 -116l90 244l88 -33l-293 -793l-89 32zM245 767l65 -68l-137 -132l80 -4l-26 -599l-95 3l27 587l-67 -64l-65 68zM583 325l220 309l78 -54l-200 -280l211 -260l-74 -60l-232 288z" />
    <glyph glyph-name="uni4F1A" unicode="&#x4f1a;" 
d="M393 627l-305 -249l-59 72l404 333l60 -74l-17 -14l416 -181l-38 -86zM243 472l382 22l5 -95l-382 -22zM273 52l368 68l-26 40l79 52l129 -199l-79 -51l-47 72l-523 -97l-47 75l144 198l-191 -16l-7 94l680 56l7 -94l-364 -30z" />
    <glyph glyph-name="uni4F1B" unicode="&#x4f1b;" 
d="M275 -51l-95 -6l-34 561l-66 -76l-71 61l248 289l71 -63l-94 -109zM378 1l-45 49l20 618l47 45h459v-94h-412l-18 -525l483 -20l-4 -95zM834 245l-72 -62l-81 93l-121 -165l-76 55l134 183l-114 132l71 62l100 -116l118 161l76 -55l-131 -178z" />
    <glyph glyph-name="uni4F1E" unicode="&#x4f1e;" 
d="M917 449l-50 -79l-420 263l-386 -298l-58 75l496 383l58 -75l-30 -23zM509 -72l-93 3l6 171l-338 -17l-5 94l346 18l13 346l94 -4l-13 -337l37 2l100 236l87 -37l-82 -194l200 11l5 -95l-351 -18zM194 399l78 52l95 -138l-78 -53z" />
    <glyph glyph-name="uni4F1F" unicode="&#x4f1f;" 
d="M661 12l28 91l88 -27l12 104l-171 -11l-14 -233l-94 6l13 222l-197 -12l-5 94l208 12l6 104l-163 -11l-6 94l175 12l6 110l-205 -5l-2 94l213 5l8 124l94 -7l-7 -115l199 5l2 -93l-207 -5l-6 -107l210 15l6 -95l-222 -15l-6 -104l215 13l50 -52l-24 -215l-60 -40z
M160 557l-73 -54l-56 75l246 184l57 -76l-83 -61h1l39 -685l-95 -5z" />
    <glyph glyph-name="uni4F20" unicode="&#x4f20;" 
d="M838 27l-24 -91l-404 105l24 91l202 -53l58 135l-272 7l-44 62l38 105l-117 -9l-7 94l159 13l39 107h-117v94h151l35 96l89 -31l-24 -65h154v-94h-188l-36 -99l304 25l7 -93l-346 -29l-30 -84l276 -5l43 -66l-79 -187zM94 -38l74 447l-95 44l-19 70l160 226l78 -53
l-128 -182l75 -33l28 -50l-80 -484z" />
    <glyph glyph-name="uni4F22" unicode="&#x4f22;" 
d="M849 783l10 -94l-486 -55l-10 94zM213 755l76 -55l-74 -102l39 -1l-15 -649l-94 2l13 569l-47 -65l-76 55zM811 58l-32 -50l-213 -71l-30 90l178 58l-26 236l-328 3l-44 64l72 201l88 -31l-50 -140l252 -2l-22 211l94 10l23 -222l112 -1l-1 -95l-101 1zM533 308l70 -64
l-249 -275l-70 64z" />
    <glyph glyph-name="uni4F24" unicode="&#x4f24;" 
d="M363 618l120 168l76 -55l-65 -90l379 13l4 -94l-474 -16zM269 -50l-94 -5l-28 574l-49 -45l-64 70l248 227l63 -70l-108 -99zM590 -9l24 92l143 -37l31 293l-194 -19l-171 -387l-86 37l149 340l-121 -12l-10 93l175 17l53 120l86 -38l-32 -72l198 20l52 -52l-43 -405
l-59 -40z" />
    <glyph glyph-name="uni4F25" unicode="&#x4f25;" 
d="M22 520l235 258l70 -64l-236 -257zM561 550l189 225l72 -60l-189 -225zM897 -16l-84 -42l-226 426l-113 -19l-16 -267l137 -34l-23 -91l-175 42l-35 49l16 285l-58 -9l-15 94l79 13l17 297l95 -6l-16 -275l368 62l17 -94l-181 -30zM141 -33l35 575l95 -7l-36 -575z" />
    <glyph glyph-name="uni4F26" unicode="&#x4f26;" 
d="M231 578l20 -636l-95 -2l-17 573l-52 -58l-71 62l245 273l70 -63l-135 -150zM905 476l-48 -81l-312 182l-230 -194l-61 73l387 325l61 -71l-81 -69zM462 81l392 -59l-14 -92l-435 63l-40 52l37 380l94 -10l-14 -131l302 114l32 -88l-344 -131z" />
    <glyph glyph-name="uni4F27" unicode="&#x4f27;" 
d="M905 529l-42 -84l-313 162l-224 -213l-65 68l334 318l65 -68l-37 -36zM15 437l241 315l75 -57l-241 -315zM126 -56l28 506l94 -5l-28 -506zM398 -19l-29 409l49 50l331 -9l45 -51l-23 -208l-46 -41l-130 -2l-1 93l87 3l14 114l-229 6l23 -310l287 16l15 88l93 -18
l-21 -122l-44 -39l-371 -21z" />
    <glyph glyph-name="uni4F2A" unicode="&#x4f2a;" 
d="M846 576l53 -49l-17 -491l-36 -45l-177 -38l-19 93l140 30l14 399l-179 -22l-224 -513l-87 37l202 462l-177 -21l-13 94l234 29l104 237l87 -37l-82 -187zM151 573l-74 -55l-56 75l246 184l57 -76l-85 -63h3l23 -685l-94 -2zM356 701l81 49l87 -143l-82 -49zM566 282
l80 49l113 -183l-82 -50z" />
    <glyph glyph-name="uni4F2B" unicode="&#x4f2b;" 
d="M26 533l193 235l72 -60l-192 -235zM754 405l35 173l-399 -43l27 -120l-92 -21l-39 172l41 58l210 22l-20 90l93 22l23 -102l209 22l52 -57l-48 -235zM114 -40l43 554l95 -8l-45 -553zM329 78l526 30l5 -95l-526 -29z" />
    <glyph glyph-name="uni4F2F" unicode="&#x4f2f;" 
d="M171 381l-106 7l-38 71l193 324l81 -47l-154 -259l75 -5l44 -48v-481h-95v438zM341 323l-14 255l45 50l76 4l62 146l86 -36l-44 -105l290 15l50 -48l-15 -562l-40 -45l-424 -61l-53 45l-14 247l-28 -4l-13 94zM660 371l13 -94l-233 -35l11 -205l334 47l12 472l-372 -20
l10 -199z" />
    <glyph glyph-name="uni4F30" unicode="&#x4f30;" 
d="M539 588l10 167l95 -6l-8 -145l218 37l16 -94l-240 -41l-9 -155l158 11l51 -51l-28 -290l-51 -44l-307 28l-44 44l-14 238l44 50l95 7l9 146l-179 -30l-16 94zM316 742l58 -76l-151 -113l66 2l11 -589l-95 -2l-11 567l-85 -64l-58 75zM730 264l-246 -18l8 -150l220 -20z
" />
    <glyph glyph-name="uni4F32" unicode="&#x4f32;" 
d="M279 783l71 -61l-112 -132h50l-9 -642l-95 2l8 587l-79 -92l-73 61zM394 666l44 44l387 27l51 -47v-215l-47 -47h-360l-38 -473l-93 7zM781 640l-297 -22l-8 -96h305v118zM494 22l20 351l94 -5l-7 -123l243 105l36 -88l-286 -123l-4 -78l278 -33l-12 -93l-321 37z" />
    <glyph glyph-name="uni4F34" unicode="&#x4f34;" 
d="M523 111l-228 10l3 94l225 -10v206h-167v94h167v265h95v-265h10l132 221l81 -49l-103 -172h65v-94h-185v-210l270 -11l-3 -95l-267 12v-157h-95v161zM157 445l-112 46l-13 80l214 182l61 -72l-155 -133l71 -28l29 -44l-4 -526l-93 1zM410 713l72 -130l-82 -45l-73 129z
" />
    <glyph glyph-name="uni4F36" unicode="&#x4f36;" 
d="M420 778l89 -30l-18 -52l236 62l55 -29l113 -293l-87 -35l-99 254l-253 -67l-66 -199l-90 30zM293 755l66 -67l-95 -93h6l-23 -627l-94 3l18 532l-81 -80l-66 67zM580 608l109 -150l-76 -55l-109 150zM467 193l124 -77l111 159l-274 40l14 94l348 -53l32 -73l-151 -217
l71 -43l-50 -80l-274 170z" />
    <glyph glyph-name="uni4F38" unicode="&#x4f38;" 
d="M380 404l-9 210l45 50l169 5l3 107l94 -2l-3 -102l149 5l49 -51l-31 -442l-42 -44l-142 -16l-5 -180l-94 3l5 167l-125 -14l-52 45l-7 164l-61 -3l-5 95zM309 760l67 -66l-162 -162l62 3l23 -559l-95 -4l-21 529l-74 -74l-66 68zM671 420l61 4l5 -94l-69 -4l-3 -106
l89 10l25 351l-103 -4zM577 415l5 159l-115 -3l7 -162zM571 209l3 111l-96 -5l5 -115z" />
    <glyph glyph-name="uni4F3A" unicode="&#x4f3a;" 
d="M216 765l85 -41l-113 -236l81 6l37 -527l-94 -6l-36 503l-40 -84l-85 40zM757 114l15 531l-436 5l1 94l485 -5l47 -49l-18 -603l-21 -37l-141 -96l-53 78zM347 589h338v-94h-338v94zM337 380l47 52l268 3l48 -53l-29 -243l-44 -42l-208 -15l-52 42zM582 189l18 151
l-163 -1l19 -159z" />
    <glyph glyph-name="uni4F3C" unicode="&#x4f3c;" 
d="M167 378l-99 -7l-46 63l125 337l89 -32l-100 -270l79 6l51 -51l-33 -476l-93 6zM748 721l87 -37l-310 -726l-87 36zM328 688l94 -8l-32 -479l68 50l55 -76l-150 -109l-75 42zM525 659l71 -214l-89 -30l-72 214zM725 256l173 -236l-75 -55l-175 235z" />
    <glyph glyph-name="uni4F3D" unicode="&#x4f3d;" 
d="M222 778l62 -70l-96 -87l44 -2l-23 -668l-93 3l20 620l-49 -45l-64 70zM429 84l49 -24l9 486l-54 -10v-181l-1 -14l-116 -391l-90 26l113 385v158l-77 -14l-18 93l95 17v139h94v-122l94 17l55 -48l-11 -618l-69 -40l-115 57zM603 653l50 50l200 -14l44 -49l-24 -569
l-39 -43l-138 -27l-55 43zM781 113l20 486l-100 6l30 -501z" />
    <glyph glyph-name="uni4F43" unicode="&#x4f43;" 
d="M298 780l76 -58l-169 -220l51 1l18 -561l-95 -2l-17 506l-62 -81l-75 57zM362 338l-52 3l5 95l49 -3l6 243l44 46l415 26l51 -46l15 -664l-42 -48l-447 -39l-51 49zM569 421l4 199l95 -3l-4 -201l116 -6l-6 -95l-112 6l-6 -253l144 13l-14 570l-322 -21l-5 -203zM561 60
l6 266l-110 6l-6 -282z" />
    <glyph glyph-name="uni4F46" unicode="&#x4f46;" 
d="M281 776l65 -68l-116 -109l14 -655l-95 -1l-13 569l-45 -43l-65 69zM320 374l-38 2l5 95l31 -2l-3 125l41 49l460 60l54 -48l-9 -429l-46 -46l-440 -20l-50 46zM726 453l-4 -95l-306 12l3 -114l347 17l8 328l-363 -47l2 -89zM887 74l7 -95l-610 -36l-7 95z" />
    <glyph glyph-name="uni4F4D" unicode="&#x4f4d;" 
d="M550 631l-38 106l89 33l45 -127l241 32l13 -94l-539 -70l-11 94zM327 728l57 -76l-143 -107l61 -585l-93 -10l-55 530l-77 -58l-56 75zM357 82l283 -9l129 384l90 -30l-120 -357l156 -4l-3 -95l-538 17zM476 416l68 -278l-92 -22l-68 277z" />
    <glyph glyph-name="uni4F4E" unicode="&#x4f4e;" 
d="M330 780l28 -90l-138 -43l27 -704l-95 -3l-26 677l-68 -21l-29 91zM317 616l36 45l462 110l23 -93l-179 -43l33 -196l146 21l14 -95l-144 -21l32 -189l150 -127l-61 -71l-164 136l-16 29l-35 209l-214 -31l-7 -205l87 72l70 -11l88 -133l-79 -51l-59 88l-128 -103l-78 38
zM598 425l-32 188l-157 -37l-6 -179z" />
    <glyph glyph-name="uni4F4F" unicode="&#x4f4f;" 
d="M517 665l-39 63l80 50l66 -107l228 12l5 -94l-214 -12l3 -184l207 -11l-5 -95l-200 11l3 -238l246 13l5 -95l-599 -30l-5 95l259 13l-4 247l-211 12l5 94l204 -11l-3 174l-240 -12l-5 94zM253 765l68 -66l-98 -98l29 -656l-94 -3l-25 569l-49 -49l-66 66z" />
    <glyph glyph-name="uni4F50" unicode="&#x4f50;" 
d="M473 606l60 166l89 -33l-44 -121l269 29l10 -94l-314 -34l-148 -411l-89 31l132 369l-118 -13l-10 94zM278 755l69 -65l-139 -148h58l-4 -579h-94l3 539l-70 -75l-69 65zM709 68l171 14l8 -94l-485 -41l-8 95l218 18l15 267l-102 8l7 95l295 -21l-7 -95l-100 7z" />
    <glyph glyph-name="uni4F51" unicode="&#x4f51;" 
d="M460 617l91 156l81 -47l-57 -98l298 28l9 -94l-366 -34l-88 -152l364 -32l43 -51l-24 -277l-43 -43l-302 -27l-51 40l-39 302l-55 -95l-81 48l161 276l-110 -10l-9 94zM286 757l36 -88l-83 -34l-29 -682l-94 4l26 640l-69 -28l-36 88zM720 63l17 191l-264 24l30 -236z
" />
    <glyph glyph-name="uni4F53" unicode="&#x4f53;" 
d="M627 241l61 10l15 -93l-81 -14l-11 -209l-95 5l10 188l-96 -16l-17 93l118 20l16 303l-50 -6l-167 -540l-90 29l154 498l-137 -16l-11 94l306 37l9 159l94 -3l-8 -145l200 25l11 -94l-216 -27zM212 -60l-94 -3l-14 574l-44 -45l-68 66l216 218l68 -67l-79 -79zM646 437
l84 43l198 -400l-83 -42z" />
    <glyph glyph-name="uni4F55" unicode="&#x4f55;" 
d="M856 746l4 -95l-45 -2l32 -566l-31 -48l-177 -62l-32 88l143 52l-29 533l-331 -12l-4 95zM192 373l-107 28l-24 77l200 233l73 -61l-152 -176l73 -19l35 -49l-21 -368l-95 6zM351 455l41 45l243 29l54 -44l18 -266l-43 -50l-272 -25l-52 49zM609 259l-12 170l-153 -19
l-7 -167z" />
    <glyph glyph-name="uni4F57" unicode="&#x4f57;" 
d="M374 664l163 3l-19 83l91 23l24 -104l209 4l45 -61l-45 -142l-90 29l25 79l-351 -6l7 -124l-94 -5l-11 171zM238 769l79 -52l-110 -164l72 2l15 -585l-95 -2l-13 555l-74 -111l-79 52zM417 25l41 472l95 -9l-16 -169l241 109l39 -86l-290 -130l-13 -148l295 -24l-7 -93
l-343 27z" />
    <glyph glyph-name="uni4F58" unicode="&#x4f58;" 
d="M457 808l65 -69l-21 -20l366 -288l-59 -73l-149 116v-83h-399v95h384l-213 166l-312 -296l-65 69zM513 -42l-66 -45l-123 52l36 88l57 -25l-3 218h-200v94h493v-94h-199zM658 206l131 -182l-76 -55l-131 182zM280 193l79 -53l-115 -171l-79 52z" />
    <glyph glyph-name="uni4F59" unicode="&#x4f59;" 
d="M897 488l-43 -84l-431 226l-342 -258l-58 75l468 351l56 -75l-42 -31zM539 -22l-56 -48l-200 40l19 93l141 -28l-5 171l-341 -23l-6 94l345 22l-2 76l-236 -25l-10 94l460 49l10 -94l-131 -14l2 -80l292 20l6 -93l-295 -20zM629 149l78 54l150 -216l-78 -54zM49 -12
l180 184l68 -67l-180 -183z" />
    <glyph glyph-name="uni4F5A" unicode="&#x4f5a;" 
d="M467 367l75 171l-152 4l-44 60l35 122l90 -26l-18 -64l129 -3l64 147l86 -37l-48 -112l138 -2l-1 -95l-178 4l-71 -165l284 12l4 -94l-330 -13l-145 -335l-87 37l128 294l-121 -5l-4 94zM296 752l46 -81l-134 -78l45 -2l-33 -630l-95 5l33 598l-73 -42l-48 81zM642 213
l241 -189l-58 -75l-242 190z" />
    <glyph glyph-name="uni4F5B" unicode="&#x4f5b;" 
d="M452 169l-97 -15l-54 50l14 269l49 45l104 -4l4 82l-133 -12l-9 95l146 13l3 81l95 -4l-3 -68l57 5l1 61l95 -1l-1 -51l101 9l51 -47v-223l-49 -47l-107 3l-1 -104l115 17l53 -44l14 -263l-95 -5l-11 211l-77 -12l-3 -248l-95 1l3 232l-73 -11l-1 -35l-12 -28l-157 -175
l-71 61zM273 748l46 -82l-78 -44h3l-38 -649l-95 5l34 590l-79 -44l-46 83zM720 505l60 -2v123l-58 -6zM625 508l2 103l-60 -6l-4 -95zM458 267l6 153l-56 2l-9 -164zM623 292l1 122l-65 2l-6 -135z" />
    <glyph glyph-name="uni4F5C" unicode="&#x4f5c;" 
d="M552 173l324 31l9 -93l-339 -33l-1 3l-9 -140l-95 6l42 595l-98 -115l-73 60l248 291l71 -61l-33 -38l281 -13l-4 -94l-295 13l-10 -149l281 -3l-2 -95l-286 4zM282 763l68 -66l-79 -80l35 -669l-95 -5l-30 584l-79 -80l-66 66z" />
    <glyph glyph-name="uni4F5D" unicode="&#x4f5d;" 
d="M774 71l13 500l-405 -35l-43 72l108 170l79 -50l-56 -90l362 31l52 -47l-18 -589l-35 -44l-185 -48l-24 91zM271 776l66 -68l-131 -128l54 -1l-6 -617l-94 1l5 577l-64 -63l-65 67zM349 411l48 51l260 -10l45 -53l-31 -253l-37 -40l-202 -44l-56 42zM581 191l21 168
l-155 7l18 -200z" />
    <glyph glyph-name="uni4F5E" unicode="&#x4f5e;" 
d="M730 790l9 -95l-315 -28l-8 94zM262 771l69 -66l-123 -129l43 -3l-36 -615l-95 7l33 553l-49 -51l-68 65zM865 628l2 -93l-530 -15l-2 95zM429 414l28 78l89 -32l-13 -37l342 30l9 -93l-386 -35l-37 -104l124 -39l171 118l54 -78l-111 -76l146 -45l-28 -90l-216 68
l-217 -149l-53 77l156 107l-101 32l-30 60l39 109l-119 -10l-9 95z" />
    <glyph glyph-name="uni4F5F" unicode="&#x4f5f;" 
d="M458 357l-131 59l39 87l174 -80l120 98l-234 54l-29 71l88 140l79 -50l-52 -83l263 -62l20 -82l-159 -129l263 -120l-40 -85l-305 138l-260 -210l-60 72zM246 778l71 -62l-103 -120l42 -2l-46 -638l-94 7l41 568l-65 -75l-71 62zM532 266l169 -105l-50 -80l-169 105z
M425 145l319 -125l-34 -87l-320 123z" />
    <glyph glyph-name="uni4F60" unicode="&#x4f60;" 
d="M777 571l-418 -11l-41 71l85 140l81 -48l-41 -67l388 10l47 -53l-27 -180l-94 15zM238 765l76 -56l-121 -163l58 -3l-27 -580l-95 3l25 527l-50 -68l-76 56zM562 98l-38 385l94 8l41 -420l-30 -48l-188 -75l-35 88zM416 380l76 -54l-165 -233l-76 53zM757 348l135 -218
l-81 -50l-134 218z" />
    <glyph glyph-name="uni4F63" unicode="&#x4f63;" 
d="M244 560v-616h-94v528l-49 -64l-75 57l238 313l75 -56l-123 -162h28zM637 -40l-93 4l10 245l-128 -15l-10 -252l-94 3l29 753l48 45h425l47 -45l24 -710l-64 -45l-145 55l34 86l77 -30l-12 379l-128 -14l-5 -104l108 13l11 -94l-123 -14zM567 504l6 145h-129l-6 -158z
M661 514l121 12l-3 123h-112zM558 305l5 104l-129 -14l-4 -105z" />
    <glyph glyph-name="uni4F64" unicode="&#x4f64;" 
d="M254 766l74 -57l-100 -130l10 1l26 -619l-94 -4l-22 519l-44 -57l-75 57zM684 114l25 275l-214 33l-7 -58l157 -95l-47 -80l-122 72l-22 -196l126 36l27 -90l-194 -57l-60 51l70 616l-78 -1l-1 94l509 8l2 -95l-337 -5l-12 -106l262 -42l39 -50l-27 -295l110 -99l-63 -70
l-127 114z" />
    <glyph glyph-name="uni4F65" unicode="&#x4f65;" 
d="M883 476l-43 -85l-429 222l-310 -291l-64 68l424 400l65 -69l-42 -40zM217 415l428 47l11 -93l-429 -48zM611 104l111 207l84 -45l-111 -206zM816 52l4 -93l-740 -30l-4 93l124 5l-83 179l86 40l99 -215l91 3l-48 246l92 17l51 -258l-4 -1z" />
    <glyph glyph-name="uni4F67" unicode="&#x4f67;" 
d="M534 455l-23 322l94 8l7 -104l199 16l8 -93l-200 -18l10 -130l275 3l1 -95l-627 -7l-2 95zM254 775l67 -66l-107 -110l39 1l13 -663l-93 -1l-14 607l-76 -78l-68 66zM540 345l94 -6l-29 -405l-94 6zM678 244l185 -127l-54 -78l-185 127z" />
    <glyph glyph-name="uni4F69" unicode="&#x4f69;" 
d="M734 666l-352 -19l-46 -643l-94 7l49 683l44 44l442 25l50 -46l10 -628l25 13l43 -84l-93 -46l-68 41zM209 761l67 -65l-80 -84l26 -1l-35 -655l-93 5l31 576l-40 -41l-69 65zM514 336l-28 3v-260h-95v314l53 46l72 -9l2 68l-84 -9l-10 94l251 26l10 -93l-74 -8l-2 -88
l81 -9l42 -49l-11 -298l-94 4l9 254l-28 3l-7 -353l-94 1z" />
    <glyph glyph-name="uni4F6C" unicode="&#x4f6c;" 
d="M500 705v85h95v-66l145 30l20 -93l-165 -34v-163l196 182l64 -70l-115 -106l150 6l4 -94l-260 -10l-119 -110l-13 -228h335l-1 -94l-384 1l-47 49l11 180l-85 -78l-64 69l222 205l-188 -7l-4 93l203 8v148l-134 -27l-19 93zM261 749l76 -57l-119 -159l36 -1l-14 -603
l-95 1l13 523l-57 -76l-75 57zM796 291l40 -86l-264 -124l-40 85z" />
    <glyph glyph-name="uni4F6F" unicode="&#x4f6f;" 
d="M437 780l102 -127l-74 -58l-101 126zM527 66l-228 6l1 95l232 -6l7 127l-162 -13l-8 93l175 15l6 105l-217 -20l-9 94l288 26l117 179l79 -51l-77 -117l153 14l8 -93l-248 -23l-6 -106l181 15l8 -94l-194 -16l-7 -138l271 -6l-3 -94l-273 6l-6 -124l-95 5zM267 765
l57 -75l-55 -43v-704h-95v631l-92 -71l-58 75z" />
    <glyph glyph-name="uni4F70" unicode="&#x4f70;" 
d="M173 466l-122 11l-34 76l165 215l75 -57l-112 -148l83 -7l43 -50l-43 -556l-93 6zM350 297l-4 199l95 2l3 -184l287 53l17 -92l-303 -56l3 -168l325 26l24 379l-314 6l-37 75l94 130l-207 6l3 94l567 -16l-2 -94l-247 7l-78 -109l272 -7l45 -50l-27 -468l-44 -44
l-416 -33l-50 47l-4 201l-24 -4l-16 93z" />
    <glyph glyph-name="uni4F73" unicode="&#x4f73;" 
d="M537 645l5 108l95 -5l-5 -101l193 4l2 -93l-200 -5l-3 -68l233 15l7 -94l-538 -35l-5 95l209 13l3 72l-171 -3l-1 93zM142 575l-76 -35l-40 86l254 115l39 -85l-80 -37l-35 -646l-94 5zM526 291l5 59l94 -7l-4 -46l185 11l5 -94l-197 -12l-10 -127l290 -12l-5 -95
l-604 27l5 94l220 -10l9 118l-185 -11l-5 94z" />
    <glyph glyph-name="uni4F74" unicode="&#x4f74;" 
d="M224 786l73 -60l-91 -111h49v-681h-95v624l-52 -64l-74 60zM692 46l-370 -57l-14 92l105 16l-5 544l-76 1l1 95l554 -7l-2 -94l-84 1l-3 -101l61 5l8 -94l-71 -6l-7 -286l68 11l15 -92l-85 -13l-2 -104l-95 3zM703 529l3 109l-204 2l3 -318l194 15l2 97l-158 -12l-8 94z
M694 141l3 101l-191 -15l1 -115z" />
    <glyph glyph-name="uni4F76" unicode="&#x4f76;" 
d="M284 768l67 -67l-135 -138h59l-15 -607l-95 3l15 567l-76 -77l-68 65zM556 658l-4 95l94 5l4 -93l227 18l8 -94l-231 -18l6 -125l152 -6l-3 -95l-417 18l4 93l168 -7l-4 114l-221 -17l-8 95zM375 221l41 55l385 37l51 -54l-37 -261l-46 -40l-307 -5l-47 38zM727 50
l23 163l-274 -25l25 -140z" />
    <glyph glyph-name="uni4F7B" unicode="&#x4f7b;" 
d="M258 778l68 -65l-136 -141l51 -2l-20 -627l-95 3l18 579l-43 -45l-68 66zM603 66l5 700h95l-2 -219l108 92l62 -73l-154 -128l170 -157l-64 -70l-124 113l-1 -225l181 -63l-31 -88l-212 73zM411 342l-4 99l-115 47l34 87l77 -30l-9 210l94 4l25 -586l-9 -29l-133 -190
l-77 54l124 176l-3 58l-118 -46l-34 88z" />
    <glyph glyph-name="uni4F7C" unicode="&#x4f7c;" 
d="M515 664l-34 65l84 44l52 -99l238 24l9 -94l-524 -52l-10 94zM260 748l69 -65l-137 -141l59 -3l-29 -593l-93 5l26 552l-75 -77l-69 66zM465 518l75 -56l-47 -64l118 -106l131 128l-60 69l72 63l156 -181l-71 -62l-35 40l-123 -119l211 -188l-63 -70l-216 192l-224 -218
l-65 67l219 213l-106 95l-43 -59l-77 56z" />
    <glyph glyph-name="uni4F7E" unicode="&#x4f7e;" 
d="M656 778l259 -206l-60 -74l-257 206zM509 766l57 -74l-231 -181l-57 75zM218 751l71 -63l-103 -116l47 2l22 -631l-94 -2l-21 580l-64 -73l-71 63zM374 370v137l46 47l311 5l48 -45l24 -487l-34 -48l-129 -38l-27 90l93 27l-5 89l-233 -22l1 -169h-95v321l-16 -1l-5 93z
M468 219l229 22l-11 223l-218 -3v-85l170 10l5 -94l-175 -10v-63z" />
    <glyph glyph-name="uni4F7F" unicode="&#x4f7f;" 
d="M675 214l-17 -35l-28 -22l246 -98l-35 -88l-295 118l-151 -121l-59 73l109 89l-97 39l35 87l146 -59l52 43l2 38h-144l-46 40l-30 187l48 55l187 -11l2 39l-242 3l1 95l247 -3l4 70l94 -7l-4 -64l166 -2l-1 -94l-170 1l-2 -44l145 -8l42 -59l-44 -163l-45 -35h-113z
M261 730l69 -65l-106 -112l66 -3l-27 -575l-94 5l24 541l-84 -88l-69 65zM593 455l-128 8l14 -92h109zM683 371h72l19 73l-86 5z" />
    <glyph glyph-name="uni4F83" unicode="&#x4f83;" 
d="M209 781l79 -50l-74 -116l50 -1l-11 -657l-94 2l9 582l-70 -110l-79 51zM355 675l44 54l379 28l50 -52l-25 -270l-46 -44l-318 -10l-49 40zM713 485l16 174l-274 -20l23 -163zM548 344l95 -4l-16 -371l-95 3zM703 55l12 289l94 -4l-10 -254l103 -34l-30 -88l-137 45z
M374 92l10 249l94 -4l-11 -265l-10 -27l-87 -106l-72 58z" />
    <glyph glyph-name="uni4F84" unicode="&#x4f84;" 
d="M203 773l78 -55l-173 -244l-76 55zM826 736l2 -95l-317 -10l-63 -156l237 45l-12 20l80 49l114 -185l-80 -49l-50 80l-115 -22l-8 -127l179 -5l-2 -95l-184 5l-8 -129l282 17l6 -94l-576 -34l-5 94l198 11l10 137l-154 5l2 95l158 -5l7 107l-145 -27l-52 63l78 197
l-93 -3l-3 95zM165 499l93 -5l-30 -546l-93 5z" />
    <glyph glyph-name="uni4F88" unicode="&#x4f88;" 
d="M500 450l-38 49l74 57l43 -56l96 61l-161 67l-126 -107l-61 71l233 198l60 -71l-26 -22l201 -83l7 -84l-422 -266l-50 78zM180 359l-93 -32l-55 70l190 290l79 -51l-115 -176l29 10l62 -48l-24 -452l-95 5zM481 73l-33 38l72 61l54 -64l189 71l-121 94l-152 -92l-49 81
l329 198l48 -81l-91 -55l160 -123l-12 -81l-509 -191l-33 88z" />
    <glyph glyph-name="uni4F89" unicode="&#x4f89;" 
d="M738 589l-209 -16l-55 -67l214 6l4 -93l-229 -7l-2 79l-125 -150l-73 60l136 162l-96 -7l-7 94l187 14l105 126l72 -60l-46 -55l254 20l8 -95l-119 -9l150 -141l-65 -69l-157 150zM236 777l77 -51l-86 -129h14l9 -633l-95 -2l-7 516l-58 -88l-78 52zM833 364l9 -95
l-251 -23l-71 -91l238 -11l40 -68l-73 -147l-84 42l41 83l-257 11l-35 76l73 93l-130 -12l-8 94z" />
    <glyph glyph-name="uni4F8B" unicode="&#x4f8b;" 
d="M231 766l76 -55l-97 -136h35l-17 -585l-93 4l13 496l-45 -63l-76 55zM800 105v634h93v-668l-32 -45l-199 -66l-29 89zM471 228l-73 34l39 87l74 -35l41 87l-115 61l-96 -260l-89 33l146 397l-72 8l10 94l320 -34l-10 -94l-150 16l-26 -70l166 -88l21 -62l-211 -448
l-85 40zM682 619l95 -4l-19 -476l-95 3z" />
    <glyph glyph-name="uni4F8D" unicode="&#x4f8d;" 
d="M646 512l248 -10l-4 -95l-579 24l4 94l236 -10v93l-150 8l5 94l145 -8v81h95v-85l159 -8l-5 -95l-154 8v-91zM282 745l63 -72l-105 -92l9 -640l-95 -1l-7 559l-58 -51l-63 72zM784 83l-15 -40l-117 -108l-65 68l100 94l-15 135h-335v94h325l-7 71l94 10l8 -81h90v-94h-79
zM471 217l89 -200l-86 -37l-89 198z" />
    <glyph glyph-name="uni4F8F" unicode="&#x4f8f;" 
d="M460 310l-153 -8l-4 95l241 12l4 115l-192 3l-43 67l68 147l86 -39l-37 -82l121 -2l5 158l95 -4l-6 -156l186 -2l-1 -95l-188 3l-4 -109l230 12l5 -94l-238 -12l-12 -352l-93 4l9 287l-159 -289l-83 45zM226 771l72 -61l-107 -124l46 1l20 -640l-94 -3l-19 588l-56 -65
l-71 62zM741 261l162 -201l-73 -59l-163 201z" />
    <glyph glyph-name="uni4F91" unicode="&#x4f91;" 
d="M747 221v207l-284 -3l2 -66l234 23l9 -94l-239 -22l14 -330l-94 -4l-14 343l-28 -69l-88 35l132 325l-90 -6l-7 93l136 9l52 128l87 -35l-35 -85l360 25l8 -94l-407 -28l-22 -55l320 5l48 -47v-248l32 3l6 -94l-38 -3v-74l-25 -42l-174 -88l-43 83l148 75v39l-246 -17
l-8 93zM234 786l70 -63l-103 -115l36 -1l-29 -640l-94 4l25 568l-51 -58l-70 62z" />
    <glyph glyph-name="uni4F94" unicode="&#x4f94;" 
d="M377 770l91 -27l-36 -126l297 16l-33 67l83 42l68 -131l-40 -69l-436 -22l-48 60zM233 761l65 -68l-108 -104l31 1l6 -639l-94 -1l-7 578l-47 -46l-66 68zM338 485l91 -28l-20 -65l136 14l6 85l93 -6l-5 -69l183 19l10 -94l-199 -21l-10 -153l275 25l9 -94l-290 -26
l-8 -121l-95 6l7 106l-237 -21l-8 94l252 22l10 152l-189 -19l-50 60z" />
    <glyph glyph-name="uni4F97" unicode="&#x4f97;" 
d="M253 778l75 -59l-141 -180l68 5l44 -596l-95 -6l-42 565l-78 -99l-74 59zM676 57l124 -8l14 616l-365 -12l-16 -689l-95 3l17 732l46 46l459 18l50 -49l-16 -716l-50 -45l-174 10zM498 614l266 -26l-10 -95l-266 26zM473 397l48 51l177 -6l45 -42l30 -207l-40 -54
l-189 -29l-54 44zM671 225l-16 123l-84 2l10 -138z" />
    <glyph glyph-name="uni4F9B" unicode="&#x4f9b;" 
d="M266 780l71 -63l-98 -112l-26 -649l-95 4l21 530l-41 -47l-71 63zM419 226l-142 -11l-7 95l120 9v176l-55 -8l-15 94l70 11v141h95v-126l153 23l3 111l95 -3l-2 -93l81 13l15 -93l-99 -16l-4 -205l158 12l7 -94l-367 -28l-122 -294l-87 36zM632 337l4 197l-151 -24v-184z
M693 197l143 -149l-69 -65l-142 148z" />
    <glyph glyph-name="uni4F9D" unicode="&#x4f9d;" 
d="M554 666l-27 86l90 29l33 -108l227 17l8 -94l-306 -22l-120 -236l60 -4l-17 -263l144 66l40 -85l-216 -100l-68 45l17 262l-42 -83l-83 43l176 347l-126 -9l-8 94zM289 759l70 -63l-182 -200l69 4l31 -555l-95 -6l-29 531l-58 -64l-69 64zM691 505l50 -126l79 83l69 -65
l-109 -114l115 -283l-88 -36l-203 506z" />
    <glyph glyph-name="uni4FA0" unicode="&#x4fa0;" 
d="M292 573l-16 -614l-94 3l14 564l-86 -128l-78 54l228 336l78 -53l-109 -161zM463 -68l-88 30l73 215l-117 -14l-13 92l163 20l15 45l-49 -18l-72 190l88 33l54 -143l63 185l-214 -17l-8 94l255 20l37 110l90 -30l-25 -72l102 8l8 -93l-143 -12l-98 -287l287 37l11 -93
l-331 -42zM653 354l113 220l84 -42l-113 -222zM631 138l66 67l191 -186l-65 -66z" />
    <glyph glyph-name="uni4FA3" unicode="&#x4fa3;" 
d="M298 -37l-94 -8l-53 518l-37 -52l-76 55l220 307l76 -55l-99 -139zM414 433l-20 292l48 50h367l47 -52l-28 -273l-45 -43l-319 -17zM506 486l232 14l19 181h-265zM354 -20l-17 312l46 49h451l48 -51l-28 -288l-43 -42l-407 -25zM446 32l318 19l19 196h-350z" />
    <glyph glyph-name="uni4FA5" unicode="&#x4fa5;" 
d="M226 534l29 -601l-94 -4l-28 562l-80 -90l-71 61l293 331l71 -62l-178 -200zM761 391l142 57l35 -87l-175 -72l-56 17l-69 94l-247 -102l-36 88l226 92l-57 78l-207 -28l-14 94l157 21l-47 65l77 56l77 -106l214 29l12 -94l-163 -22l41 -56l120 49l36 -86l-100 -41z
M685 48l226 -26l-10 -93l-276 30l-42 55l28 161l-73 -3l-141 -246l-82 47l111 193l-150 -7l-4 95l596 29l5 -95l-165 -8z" />
    <glyph glyph-name="uni4FA6" unicode="&#x4fa6;" 
d="M611 545l230 -14l42 -57l-62 -305l-93 18l53 253l-350 21l36 -276l-94 -13l-42 334l50 53l136 -9l4 250l94 -1l-1 -71l181 19l10 -93l-193 -21zM273 -59l-95 -4l-23 569l-53 -51l-65 69l253 238l63 -68l-107 -102zM373 -41l219 468l85 -40l-217 -468zM623 79l67 67
l160 -156l-67 -68z" />
    <glyph glyph-name="uni4FA7" unicode="&#x4fa7;" 
d="M235 588l2 -628l-94 -1l-3 499l-37 -64l-81 48l195 331l81 -48l-81 -137h18zM647 42l155 73l-22 633l93 2l24 -662l-26 -45l-184 -86zM593 89l-60 -74l-120 99l-48 -167l-90 26l90 312l-92 3l8 331l42 46l264 30l53 -48l-17 -422l-93 3l13 367l-168 -20l-7 -279l58 201
l90 -27l-74 -256zM643 155l29 453l94 -5l-29 -454z" />
    <glyph glyph-name="uni4FA8" unicode="&#x4fa8;" 
d="M210 -48l-94 2l13 544l-39 -45l-70 63l226 257l70 -62l-89 -101zM900 343l-75 -56l-137 180l-197 -26l-143 -208l-78 54l94 137l-76 -10l-13 94l162 21l71 103l-148 -19l-12 94l480 61l12 -94l-206 -26l-71 -102l317 42l13 -94l-97 -13zM679 333l94 9l36 -353l-94 -10z
M304 23l142 94l8 217l95 -3l-9 -242l-21 -37l-164 -106z" />
    <glyph glyph-name="uni4FA9" unicode="&#x4fa9;" 
d="M905 494l-50 -78l-309 194l-248 -221l-63 72l354 312l61 -71l-30 -27zM118 544l-50 -33l-53 77l263 176l52 -78l-121 -81l34 -652l-94 -5zM429 461l276 22l8 -94l-277 -23zM444 57l256 48l-34 62l84 45l111 -205l-82 -45l-32 57l-396 -73l-47 70l138 209l-166 -3l-2 94
l566 12l1 -95l-285 -6z" />
    <glyph glyph-name="uni4FAA" unicode="&#x4faa;" 
d="M645 353l-92 53l-54 -34l28 -247l-16 -42l-161 -138l-62 71l143 122l-21 178l-48 -31l-50 78l150 96l-94 54l47 82l136 -79l145 92l-398 9l3 95l230 -6l-11 42l91 25l19 -69l273 -7l-1 -94l-93 2l16 -25l-183 -117l236 -135l-47 -81l-90 51l12 -336l-95 -4zM17 520
l196 245l74 -60l-196 -245zM106 -32l84 529l92 -15l-84 -529z" />
    <glyph glyph-name="uni4FAC" unicode="&#x4fac;" 
d="M874 -17l-86 -38l-82 185l-204 -192l-80 27l-32 254l-52 -86l-81 50l220 359l-95 -10l10 -89l-94 -10l-24 228l94 10l4 -45l167 18l84 137l80 -48l-47 -77l194 20l50 -61l-50 -150l-90 30l28 80l-167 -18l117 -267l85 80l65 -69l-109 -103zM19 523l196 245l74 -59
l-197 -245zM599 555h-5l-1 -3zM107 -29l83 529l94 -15l-84 -529zM665 222l-115 261l-80 -133l34 -280z" />
    <glyph glyph-name="uni4FAE" unicode="&#x4fae;" 
d="M484 780l77 -54l-39 -56h319v-94h-384l-62 -89l-78 54zM246 686l65 -69l-140 -131l71 4l28 -488l-95 -5l-27 467l-42 -39l-65 69zM391 295l39 194l50 37l297 -19l44 -50l-11 -156l65 1l1 -93l-72 -1l-8 -116l76 5l8 -93l-90 -7l-4 -58l-95 6l4 45l-308 -24l-50 56l35 179
l-78 -1l-2 94zM556 298l-19 82l92 20l22 -101l65 1l8 116l-209 14l-27 -133zM637 80l64 5l8 121l-240 -4l-27 -137l94 7l-32 65l85 42z" />
    <glyph glyph-name="uni4FAF" unicode="&#x4faf;" 
d="M202 453l-106 48l-14 77l181 175l67 -67l-132 -128l73 -31l27 -46l-32 -510l-95 6zM326 563l292 -7l43 78l-255 22l9 95l326 -28l37 -70l-53 -100l112 -2l-2 -95l-512 12zM387 447l85 -43l-12 -25l311 34l10 -94l-145 -16l-43 -78l204 31l14 -94l-101 -15l108 -114
l-70 -65l-152 162l-62 -9l-86 -155l-83 46l51 91l-84 -12l-14 93l156 23l46 84l-137 -15l-47 68z" />
    <glyph glyph-name="uni4FB5" unicode="&#x4fb5;" 
d="M701 656l-2 20h-382v95h425l46 -42l23 -227l-45 -51l-463 -26l-5 94l414 23l-2 20l-351 -21l-6 94zM238 727l61 -71l-81 -70l26 -1l-37 -603l-94 7l34 536l-53 -45l-61 71zM787 321l-450 -19l6 -85l-94 -6l-10 133l45 50l554 23l49 -52l-20 -166l-94 10zM389 88l-23 8
l30 89l112 -38l69 34l-184 20l10 94l345 -38l16 -88l-129 -64l199 -66l-28 -90l-290 97l-194 -96l-41 85z" />
    <glyph glyph-name="uni4FBF" unicode="&#x4fbf;" 
d="M414 127l-92 36l34 89l141 -56l30 25l1 25l-156 8l-45 47v278l47 47l174 5l2 43h-229v94h543v-94h-219l-2 -40l196 7l47 -57l-56 -311l-49 -39l-159 8l-2 -48l-16 -33l-6 -5l292 -115l-34 -88l-341 134l-164 -135l-60 72zM162 409h-91l-40 73l184 280l79 -51l-137 -208
h59l48 -54l-68 -498l-92 12zM635 491l138 -7l11 60l-146 -5zM541 495l2 41l-121 -3v-32zM536 402l-114 5v-61l111 -5zM756 392l-126 5l-3 -61l118 -5z" />
    <glyph glyph-name="uni4FC3" unicode="&#x4fc3;" 
d="M176 410l-114 7l-36 73l188 296l80 -50l-147 -230l88 -5l44 -56l-87 -483l-93 17zM336 710l46 50l409 4l48 -45l12 -258l-45 -49l-399 -25l-50 44zM755 504l-8 165l-313 -3l13 -182zM419 375l87 -35l-61 -150l152 -138l290 25l8 -93l-310 -28l-36 13l-142 127l-65 -162
l-87 35zM625 365l94 -1l-2 -133l118 6l5 -93l-169 -9l-49 47z" />
    <glyph glyph-name="uni4FC4" unicode="&#x4fc4;" 
d="M136 426l-70 -6l-46 70l169 295l82 -46l-122 -217l34 4l52 -50l-34 -542l-95 5zM399 741l82 -47l-107 -185l51 4l13 106l93 -13l-11 -86l111 8l-35 226l94 15l36 -234l157 12l7 -95l-149 -12l22 -138l75 64l62 -72l-119 -102l38 -243l-95 -14l-29 184l-105 -90l-62 72
l150 128l-32 204l-137 -10l-21 -170l75 23l27 -90l-114 -36l-25 -208l-93 12l20 166l-105 -33l-29 90l146 45l23 194l-122 -9l-45 70zM793 756l88 -154l-82 -47l-88 154z" />
    <glyph glyph-name="uni4FC5" unicode="&#x4fc5;" 
d="M530 621l-7 132l95 5l6 -129l97 8l-46 109l87 37l58 -138l65 6l8 -93l-264 -22l7 -130l37 -46l85 119l77 -55l-100 -139l165 -202l-73 -60l-183 224l10 -194l-25 -44l-135 -71l-44 82l109 58l-6 114l-230 -162l-54 78l278 194l-12 226l-201 -17l-7 94zM200 756l72 -61
l-64 -76l44 -1l-19 -653l-95 3l18 590l-64 -75l-73 61zM343 470l184 -80l-38 -86l-184 80z" />
    <glyph glyph-name="uni4FCA" unicode="&#x4fca;" 
d="M482 783l74 -59l-72 -90h220l-17 30l83 48l92 -164l-81 -46l-23 39l-373 -2l-36 77zM279 732l62 -70l-129 -115l47 -1l-25 -579l-94 4l23 533l-69 -61l-63 71zM414 532l75 -59l-138 -175l-74 58zM677 516l212 -153l-57 -76l-210 152zM457 100l-88 38l37 88l150 -65l86 53
l-205 27l-31 75l86 113l75 -57l-37 -49l256 -32l19 -88l-143 -88l168 -72l-38 -86l-229 97l-192 -118l-49 81z" />
    <glyph glyph-name="uni4FCE" unicode="&#x4fce;" 
d="M451 60l-28 646l48 49h292l48 -49l-24 -638l98 3l2 -95l-549 -11l-2 93zM206 738l82 -43l-45 -85l179 -107l-49 -81l-175 105l-83 -154l-83 45zM526 515l183 12l6 134h-195zM701 307l5 125l-176 -12l5 -113h166zM193 411l89 -30l-42 -124l157 -101l-51 -80l-138 88
l-61 -182l-89 30zM692 66l5 146h-158l7 -149z" />
    <glyph glyph-name="uni4FCF" unicode="&#x4fcf;" 
d="M374 362l-3 122l44 49l150 9l13 241l94 -5l-12 -230l18 1l113 211l82 -45l-86 -159l34 2l50 -48l-5 -446l-31 -44l-160 -57l-32 89l129 46l5 364l-311 -20l1 -70l254 26l10 -94l-261 -27l1 -63h277v-95h-274l4 -159l-95 -2l-7 310l-48 -5l-10 94zM263 767l82 -48
l-88 -151l4 1l51 -625l-94 -7l-41 494l-49 -83l-81 47zM441 742l96 -142l-79 -53l-95 141z" />
    <glyph glyph-name="uni4FD0" unicode="&#x4fd0;" 
d="M226 773l77 -54l-95 -135l42 -1l-17 -581l-93 4l14 502l-51 -72l-76 53zM593 773l15 -94l-89 -15l2 -114l102 6l5 -94l-105 -6l3 -106l122 -33l-23 -91l-97 25l7 -303l-94 -2l-11 505l-125 -7l-5 94l128 7l-2 104l-81 -13l-15 93zM797 114l-12 642l95 2l12 -675l-32 -46
l-174 -61l-31 88zM751 629l19 -492l-95 -4l-19 493zM327 353l93 -19l-72 -331l-92 20z" />
    <glyph glyph-name="uni4FD1" unicode="&#x4fd1;" 
d="M527 86l-99 -4l3 -125l-94 -2l-3 123l-65 -3l-5 95l68 3l-6 300l46 48h123l-64 45l55 76l78 -56l100 75l-292 24l8 93l415 -32l25 -85l-174 -133l11 -7h159l46 -44l27 -385l-20 -41l-148 -104l-54 78l125 87l-21 315h-145l-1 -73l120 -4l-4 -95l-117 4l-1 -74l127 6
l4 -95l-133 -6l-2 -150l-94 1zM276 776l63 -70l-139 -126l62 -2l-11 -623l-94 1l11 595l-73 -66l-64 70zM532 357l1 70h-112l1 -66zM529 181l1 81l-106 4l2 -89z" />
    <glyph glyph-name="uni4FD7" unicode="&#x4fd7;" 
d="M279 763l68 -64l-110 -119l24 -585l-94 -4l-19 492l-48 -52l-69 64zM511 761l60 -72l-195 -164l-60 73zM712 744l169 -128l-56 -75l-169 128zM597 630l70 -62l-48 -54l271 -126l-40 -87l-297 139l-186 -210l-71 64zM372 188l44 56l343 16l48 -55l-33 -201l-45 -39
l-272 -7l-47 36zM687 58l18 106l-230 -13l20 -100z" />
    <glyph glyph-name="uni4FD8" unicode="&#x4fd8;" 
d="M853 783l10 -95l-518 -55l-10 93zM248 749l77 -54l-111 -159h26l-2 -572h-95l1 471l-52 -76l-78 54zM804 659l80 -53l-111 -168l-80 52zM417 621l58 -77l48 69l75 6l99 -111l-70 -64l-59 66l-51 -75l-78 -1l-99 130zM573 243l70 88l-210 -16l-8 95l317 25l41 -76
l-78 -101l190 21l12 -95l-262 -30l-11 -178l-70 -38l-144 76l44 84l79 -42l5 87l-228 -25l-11 95z" />
    <glyph glyph-name="uni4FDA" unicode="&#x4fda;" 
d="M268 770l55 -77l-141 -102l61 2l24 -640l-95 -3l-22 618l-71 -51l-55 76zM647 48l247 4l1 -94l-585 -8l-1 93l243 3v90l-162 11l7 94l155 -10v73l-117 -3l-47 40l-18 102l-60 -6l-8 94l52 5l-19 114l39 55l429 62l54 -50l-24 -361l-46 -45l-140 -4v-83l176 -11l-6 -95
l-170 11v-81zM647 402l95 3l16 260l-111 -16v-84l72 7l10 -94l-82 -8v-68zM552 555v80l-117 -17l13 -73zM552 399v61l-88 -8l10 -55z" />
    <glyph glyph-name="uni4FDC" unicode="&#x4fdc;" 
d="M332 405l-21 269l47 51l175 -1v62h95v-63l174 -1l48 -55l-11 -65l46 2l2 -94l-63 -2l-19 -113l-48 -40l-380 7zM213 765l74 -58l-96 -123l49 1l5 -628h-94l-6 568l-38 -49l-75 58zM533 594v35l-125 1l14 -175l111 -2v48l-83 -2l-3 93zM628 597l114 3l5 29h-119v-32z
M727 506l-99 -3v-52l90 -1zM876 332l2 -93l-382 -11l-29 -86l313 2l46 -58l-36 -152l-92 20l22 95h-319l-45 62l39 114l-118 -3l-2 94z" />
    <glyph glyph-name="uni4FDD" unicode="&#x4fdd;" 
d="M402 235l-134 -19l-14 93l284 40l3 66l-139 -9l-50 43l-28 250l44 52l419 24l50 -50l-18 -249l-43 -44l-140 -10l-3 -59l265 38l14 -94l-284 -40l-16 -323l-94 5l15 304l-13 -2l-164 -281l-82 47zM153 389l-110 1l-35 77l241 294l73 -60l-179 -219h60l46 -50l-21 -456
l-95 4zM728 524l10 153l-315 -17l18 -156zM713 236l190 -145l-57 -75l-190 145z" />
    <glyph glyph-name="uni4FDE" unicode="&#x4fde;" 
d="M680 453l-404 -22l-5 94l378 20l-232 89l-293 -196l-53 79l409 273l52 -79l-19 -13l336 -128l-34 -88l-140 53zM736 55l-9 392l94 1l10 -427l-34 -46l-145 -45l-28 90zM113 244l-2 107l48 47h307l46 -48l-12 -402l-94 3l2 61l-195 -3l2 -63l-95 -1l-5 206l-28 -1l-3 93z
M669 395l11 -308l-95 -2l-10 307zM211 104l200 3l6 198h-211l1 -56l170 9l4 -93l-171 -9z" />
    <glyph glyph-name="uni4FDF" unicode="&#x4fdf;" 
d="M418 773l85 -42l-67 -138l280 32l-35 60l81 48l73 -123l-35 -70l-438 -50l-47 68zM247 751l66 -68l-77 -74l32 -1l-33 -639l-94 5l28 571l-77 -75l-65 69zM420 159l-129 2l1 94l197 -3l56 76l-173 -7l-44 69l49 93l83 -43l-10 -21l380 16l3 -94l-166 -7l-62 -84l287 -5
l-1 -94l-355 6l-145 -196l-75 57zM642 138l170 -112l-51 -78l-171 111z" />
    <glyph glyph-name="uni4FE1" unicode="&#x4fe1;" 
d="M522 653l-41 75l81 45l61 -108l-10 -6l257 18l7 -95l-567 -37l-7 93zM262 752l68 -66l-83 -84l5 1l55 -650l-94 -8l-50 574l-55 -56l-66 67zM810 533l10 -93l-435 -45l-10 93zM800 398l10 -93l-435 -43l-9 94zM350 175l46 55l429 -2l43 -60l-52 -171l-43 -32l-338 -14
l-49 37zM736 57l24 78l-307 1l18 -90z" />
    <glyph glyph-name="uni4FE3" unicode="&#x4fe3;" 
d="M369 504l8 231l48 45l409 -10l45 -60l-55 -199l-42 -35l-363 -21zM34 522l206 244l73 -60l-208 -245zM465 552l277 17l30 108l-303 8zM127 -30l88 574l93 -15l-88 -573zM868 -9l-81 -50l-141 231l-91 -5l-93 -228l-88 36l76 186l-90 -5l-5 95l135 7l28 68l-143 5l3 94
l456 -14l-2 -94l-213 6l-24 -59l287 16l5 -94l-133 -8z" />
    <glyph glyph-name="uni4FE6" unicode="&#x4fe6;" 
d="M346 -58l-89 33l109 296l-56 -9l-15 94l108 18l26 69l-63 -7l-10 94l109 12l21 57l-86 -7l-8 94l130 10l36 99l89 -32l-22 -59l138 11l7 -94l-181 -14l-19 -54l225 25l10 -93l-271 -31l-23 -62l345 58l16 -93l-399 -68zM7 516l196 245l74 -59l-196 -245zM96 -35l84 573
l92 -13l-84 -574zM830 153l16 -138l-35 -52l-151 -38l-23 91l110 29l-13 109l-263 1v95l252 -1l-7 67l94 10l9 -78h93v-95h-82zM493 92l87 39l55 -123l-87 -38z" />
    <glyph glyph-name="uni4FE8" unicode="&#x4fe8;" 
d="M761 421l131 9l6 -94l-455 -30l28 -212l-10 -37l-106 -128l-74 58l94 115l-32 242l44 52l111 7l-13 80l-43 -47l-91 81l62 72l65 -58l-18 110l-117 -15l-12 94l539 71l12 -94l-127 -17l2 -90l58 54l63 -69l-118 -109zM22 524l196 245l74 -59l-196 -245zM667 414l-5 254
l-109 -14l38 -245zM110 -28l83 574l94 -14l-84 -573z" />
    <glyph glyph-name="uni4FE9" unicode="&#x4fe9;" 
d="M730 38l78 47v208l-32 -53l-78 46l-56 -202l-91 25l37 132l-85 71l-60 -192l-44 14l6 -159l-95 -4l-20 548l47 49h147l28 92l-147 9l6 94l499 -32l-7 -93l-66 4l-21 -73h80l46 -46l1 -465l-23 -40l-102 -60zM142 549l-70 -50l-55 76l245 176l55 -76l-114 -82l33 1
l14 -619l-94 -2zM679 568l22 80l-91 6l-27 -86h96zM724 381l84 -50v144h-58zM454 474h-68l7 -196zM615 341l38 133h-99l-20 -64z" />
    <glyph glyph-name="uni4FEA" unicode="&#x4fea;" 
d="M16 530l198 243l72 -58l-196 -245zM281 676l584 61l9 -94l-583 -61zM75 -29l84 574l93 -14l-83 -574zM256 477l45 51l218 10l48 -47v-508h-93v155l-63 -21l-42 127l23 -292l-93 -7zM580 485l47 50l230 -5l47 -49l-24 -500l-94 5l6 145l-41 -13l-68 228l27 -394l-95 -6z
M474 226v215l-120 -5l6 -77l62 21zM799 286l7 150l-129 4l5 -78l87 26z" />
    <glyph glyph-name="uni4FED" unicode="&#x4fed;" 
d="M887 549l-39 -85l-333 149l-209 -173l-60 72l317 264l62 -72l-29 -24zM126 546l-66 -44l-53 79l271 179l53 -79l-116 -76h5l13 -660l-95 -1zM343 451l432 34l7 -94l-431 -34zM905 95l8 -94l-612 -55l-9 94l351 31l89 296l91 -27l-78 -260zM467 272l85 40l79 -168l-85 -40
zM290 264l83 43l97 -182l-84 -44z" />
    <glyph glyph-name="uni4FEE" unicode="&#x4fee;" 
d="M542 791l77 -55l-20 -29l247 -85l7 -85l-91 -52l140 -63l-40 -86l-200 91l-189 -108l-46 82l130 74l-34 16l39 85l95 -43l60 34l-175 60l-94 -133l-77 53zM269 727l58 -75l-94 -71l9 -596l-94 -1l-9 525l-63 -48l-58 75zM293 500l94 -4l-18 -376l-93 4zM758 354l23 -92
l-325 -81l-23 93zM748 239l26 -90l-252 -74l-26 91zM818 135l28 -91l-383 -115l-26 90z" />
    <glyph glyph-name="uni4FEF" unicode="&#x4fef;" 
d="M301 595l44 47l189 12l-37 79l86 40l53 -113l196 13l6 -95l-443 -28l-3 -90l153 75l42 -85l-55 -27v-404h-95v357l-47 -23l-8 -313l-95 3zM132 631v2h1l124 120l66 -68l-95 -93l23 -638l-95 -2l-20 550l-38 -37l-66 69zM801 -10l-56 -43l-138 28l20 93l83 -16l16 326
h-134v95h138l5 90l95 -4l-5 -86h62v-95h-66zM640 330l47 -242l-92 -19l-49 244z" />
    <glyph glyph-name="uni4FF1" unicode="&#x4ff1;" 
d="M387 91l-90 -6l-7 94l76 5l-3 338l-27 -2l-6 94l32 2l-1 114l48 48l390 -1l46 -50l-29 -510l73 6l6 -94l-389 -29l-104 -158l-78 52zM286 752l54 -78l-130 -90l34 1l13 -592l-95 -3l-11 554l-71 -49l-54 78zM458 490l281 24l10 168l-293 2v-62l259 18l6 -95l-264 -17z
M461 191l259 19l13 209l-274 -24v-50l235 13l5 -94l-239 -13zM681 100l176 -66l-32 -87l-176 65z" />
    <glyph glyph-name="uni4FF3" unicode="&#x4ff3;" 
d="M274 761l57 -75l-134 -103l60 -2l-18 -603l-94 2l18 576l-74 -57l-58 75zM692 759l5 -136l145 12l8 -94l-149 -13l4 -79l137 12l9 -93l-142 -13l6 -155l174 4l1 -94l-171 -5l6 -144l-95 -3l-31 797zM444 217l2 119h-126v95h127l1 88h-126v94h127l2 137h94l-9 -772l-94 1
l1 143l-166 -11l-6 94z" />
    <glyph glyph-name="uni4FF8" unicode="&#x4ff8;" 
d="M534 704l53 87l80 -49l-21 -34l165 7l4 -95l-228 -9l-21 -36l214 9l4 -94l-277 -11l-15 -25l353 -5l-1 -94l-107 1l172 -76l-39 -86l-190 85l35 78l-279 4l-101 -166l-80 49l72 119l-58 1l1 93l113 -2l12 20l-33 -1l-3 93l94 4l22 36l-135 -5l-4 94zM231 734l65 -68
l-95 -91l23 1l21 -644l-94 -3l-20 578l-55 -53l-65 67zM524 236v83h93v-80l95 3l3 -95l-98 -3v-52l238 -7l-4 -95l-234 8v-54h-93v57l-217 8l4 93l213 -7v47l-128 -3l-2 93z" />
    <glyph glyph-name="uni4FFA" unicode="&#x4ffa;" 
d="M565 594l-182 -214l148 34l-4 104l95 3l3 -86l171 39l57 -50l-27 -328l-45 -42l-140 -5l1 -15l235 -1l-1 -95l-279 2l-48 45l-3 61l-163 -5l-47 45l-14 240l36 49l22 5l-69 60l123 144l-82 -6l-8 93l175 13l83 97l71 -60l-23 -27l202 16l6 -94l-83 -6l54 -30l-46 -82
l-179 99zM159 339l-87 17l-29 74l184 256l77 -55l-142 -196l59 -11l37 -53l-45 -408l-94 11zM632 267l72 4l5 -93l-73 -4l1 -31l99 3l18 222l-125 -28zM538 262l-3 57l-117 -26l2 -38zM542 141l-1 27l-116 -7l2 -23z" />
    <glyph glyph-name="uni4FFE" unicode="&#x4ffe;" 
d="M369 524l-4 99l44 50l94 7l99 108l70 -63l-32 -35l172 13l52 -45l6 -315l-45 -48l-265 -12l-71 -137l118 -4l14 126l94 -10l-13 -118l149 -4l-2 -94l-157 4l-12 -116l-94 10l11 108l-186 5l-41 69l81 156l-25 -1l-49 45l-5 108l-48 -3l-8 94zM256 733l69 -63l-101 -110
l55 3l35 -618l-94 -5l-33 580l-66 -72l-70 64zM647 381l128 6l-5 219l-86 -7l-9 -53l55 4l6 -95l-77 -5zM578 539l10 53l-127 -10l2 -51zM549 376l12 67l-94 -6l3 -64z" />
    <glyph glyph-name="uni500C" unicode="&#x500c;" 
d="M326 689l189 5l-19 30l79 51l50 -78l220 7l48 -49l-5 -141l-93 3l2 92l-421 -14l2 -95l-93 -3l-5 143zM162 424l-99 8l-36 72l140 240l81 -48l-102 -176l69 -6l42 -48l-12 -522l-94 2zM385 447l43 50l334 29l51 -49l-8 -151l-43 -44l-274 -25l2 -35l295 22l50 -53
l-23 -172l-44 -42l-311 -20l-50 44zM713 372l3 55l-235 -20l4 -56zM723 70l10 76l-238 -17l3 -75z" />
    <glyph glyph-name="uni500D" unicode="&#x500d;" 
d="M485 669l-37 58l79 51l66 -102l209 13l6 -95l-511 -31l-6 94zM151 399l-84 13l-35 69l129 238l82 -43l-96 -180l58 -9l40 -48v-495h-94v455zM436 434l-78 42l45 82l184 -97l84 116l76 -55l-48 -66l182 15l7 -94l-591 -49l-7 94zM376 -19l-41 251l43 55l403 19l47 -57
l-50 -270l-46 -38h-310zM726 208l-290 -12l26 -162h231z" />
    <glyph glyph-name="uni500F" unicode="&#x500f;" 
d="M549 464l-36 15l35 87l90 -36l68 51l-231 24l-37 69l64 119l83 -45l-30 -57l281 -28l24 -85l-119 -89l151 -59l-35 -87l-205 81l-185 -138l-56 75zM251 736l66 -67l-109 -106l40 1l7 -621l-94 -2l-6 571l-62 -61l-66 68zM312 529l94 -8l-31 -361l-94 9zM559 238l68 111
l80 -50l-32 -52l91 8l-13 34l89 32l34 -92l-40 -63l-222 -18l-134 -220l-82 48l100 162l-55 -4l-8 94zM691 133l181 -108l-49 -80l-180 108z" />
    <glyph glyph-name="uni5012" unicode="&#x5012;" 
d="M217 773l69 -65l-74 -78l15 1l28 -682l-95 -3l-25 603l-44 -47l-69 65zM378 494l148 23l-21 87l92 23l33 -138l-39 -58l-72 -11l6 -110l85 16l16 -94l-96 -18l6 -102l160 45l25 -91l-424 -119l-25 91l170 48l-6 111l-124 -23l-17 94l136 25l-6 112l-114 -17l-51 65
l88 222l-51 2l4 95l346 -15l-4 -95l-194 8zM802 67v697h95v-738l-41 -47l-128 -17l-13 94zM750 607l18 -420l-95 -4l-18 419z" />
    <glyph glyph-name="uni5014" unicode="&#x5014;" 
d="M347 700l45 44l430 21l50 -49l-7 -161l-49 -45l-388 15l-40 -521l-93 7zM271 740l64 -69l-88 -82l15 -619l-95 -3l-12 536l-53 -49l-65 68zM776 669l-338 -17l-2 -33l336 -13zM421 7l15 153l94 -10l-10 -101l80 -1l-1 196l-111 1l-46 52l15 153l94 -10l-10 -101l57 -1
l-1 147h95l1 -148h67l-10 123l93 9l15 -175l-47 -52l-118 1l2 -196h75l18 159l94 -11l-25 -200l-46 -41l-344 1z" />
    <glyph glyph-name="uni5018" unicode="&#x5018;" 
d="M762 94l29 341l-415 -40l59 -418l-94 -12l-65 466l43 53l201 19l44 258l92 -16l-39 -232l40 4l120 189l80 -51l-81 -127l63 6l51 -50l-36 -427l-30 -40l-138 -55l-35 88zM215 717l80 -50l-88 -143l19 2l40 -560l-94 -7l-33 456l-28 -45l-80 50zM401 707l71 -145l-83 -41
l-72 145zM436 307l40 50l205 30l54 -53l-29 -190l-42 -40l-167 -12l-51 44zM619 195l13 90l-100 -15l5 -80z" />
    <glyph glyph-name="uni5019" unicode="&#x5019;" 
d="M163 441l-80 31l-21 73l168 223l76 -56l-130 -174l56 -22l30 -49l-51 -486l-95 10zM440 575l235 -6l38 83l-217 -1l-1 95l293 2l43 -67l-53 -114l78 -2l-3 -95l-415 10zM308 556l94 -14l-42 -305l-94 14zM448 442l94 -7l-4 -54l269 17l6 -95l-154 -10l-28 -77l201 31
l14 -94l-74 -11l86 -76l-62 -70l-144 127l-57 -9l-59 -164l-90 31l42 117l-111 -17l-14 94l161 25l31 86l-65 -4l-52 51z" />
    <glyph glyph-name="uni501A" unicode="&#x501a;" 
d="M505 675l98 118l73 -61l-40 -48l221 16l6 -95l-151 -11l125 -67l-45 -84l-175 95l28 51l-94 -6l-128 -153l-72 60l69 83l-75 -5l-7 95zM298 776l73 -61l-140 -167l26 -1l-20 -570l-95 4l17 480l-59 -71l-73 60zM890 425l2 -94l-53 -2l14 -287l-23 -42l-125 -75l-48 81
l100 60l-13 260l-421 -15l-2 94zM328 238l52 49l286 -27l41 -59l-35 -140l-44 -36l-246 -9l-49 46zM590 117l12 54l-179 17l3 -76z" />
    <glyph glyph-name="uni501C" unicode="&#x501c;" 
d="M807 75l-16 595l-383 -17l-3 -695l-94 1l4 739l45 46l473 22l50 -46l19 -675l-30 -45l-119 -47l-35 87zM200 761l76 -56l-184 -244l-75 57zM575 568l7 67l94 -10l-5 -52l67 3l5 -95l-81 -4l-3 -24l98 11l10 -94l-321 -36l-11 94l128 14l3 31l-100 -4l-4 94zM141 526
l95 -2l-11 -564l-94 1zM453 256l44 54l226 15l50 -49l-3 -146l-40 -45l-198 -34l-55 40zM676 171l2 57l-123 -8l10 -67z" />
    <glyph glyph-name="uni501F" unicode="&#x501f;" 
d="M436 658l-9 102l94 8l9 -107l154 5l15 99l93 -15l-13 -81l50 2l3 -95l-67 -2l-8 -51l130 19l13 -94l-599 -83l-12 93l163 23l-8 83l-75 -2l-3 94zM163 494l-76 -74l-66 67l278 270l65 -67l-107 -105v-594h-95zM661 510l9 61l-131 -4l6 -73zM376 193l10 127l43 43l330 33
l51 -39l54 -332l-44 -55l-408 -20l-50 48l7 99l-42 -6l-12 94zM682 235l13 -94l-230 -31l-4 -64l301 15l-38 237l-247 -25l-5 -67z" />
    <glyph glyph-name="uni5021" unicode="&#x5021;" 
d="M400 719l48 44l350 -17l45 -44l14 -231l-44 -50l-380 -23l-50 50zM185 417l-104 -18l-44 77l238 280l71 -62l-153 -180l34 5l55 -47l-22 -508l-95 4zM713 637l7 -94l-238 -18l-1 -29l280 16l-9 142l-261 13l-3 -46zM337 192l1 114l43 46l444 35l51 -46l6 -330l-46 -48
l-453 -7l-48 47l1 94l-28 -3l-10 94zM723 233l10 -94l-303 -32v-56l357 5l-5 233l-350 -28l-1 -59z" />
    <glyph glyph-name="uni5025" unicode="&#x5025;" 
d="M773 611l-373 -2l6 -84l-93 -7l-12 133l47 52l163 1l-18 34l82 45l43 -79l202 2l48 -48l-5 -158l-94 3zM166 420l-72 -19l-54 68l140 261l83 -44l-89 -166l29 8l58 -47l-2 -543h-95zM769 269l-136 -10l-3 -209l211 -16l-6 -94l-490 38l6 93l185 -14l3 195l-128 -9l-7 93
l356 27l-140 132l65 69l195 -184l-65 -69l-52 49zM448 528l68 -65l-130 -138l-68 64z" />
    <glyph glyph-name="uni5026" unicode="&#x5026;" 
d="M365 596l-30 105l91 28l35 -122l84 176l85 -40l-63 -132l122 10l77 132l81 -47l-44 -76l54 4l8 -95l-344 -26l-25 -53l406 15l3 -94l-82 -3l91 -150l-82 -49l-118 194l-264 -10l-118 -248l-85 41l96 203l-81 -3l-3 95l130 5l24 49l-119 -9l-8 94zM222 743l75 -59
l-115 -148h48v-551h-95v490l-54 -69l-75 58zM391 1l36 259l47 40l231 4l47 -39l24 -134l-37 -53l-104 -20l-18 92l58 11l-9 48l-151 -3l-24 -166l325 -9l-2 -93l-378 10z" />
    <glyph glyph-name="uni5028" unicode="&#x5028;" 
d="M177 449l-72 -7l-46 70l140 261l83 -45l-98 -184l36 4l52 -47l-18 -538l-94 3zM353 224l9 480l45 47l393 21l50 -46v-189l-47 -48l-351 8l-2 -88l159 5l3 67l93 -5l-3 -59l157 5l3 -95l-164 -5l-2 -39l99 18l55 -49l-18 -249l-47 -44h-253l-47 40l-26 194l38 53l105 19
l2 54l-156 -4l-1 -97l-2 -9l-55 -263l-92 18zM757 676l-302 -17l-1 -68l303 -7v92zM752 197l-194 -35l15 -109h169z" />
    <glyph glyph-name="uni5029" unicode="&#x5029;" 
d="M560 749v37l94 2v-36l190 6l2 -95l-190 -6v-35l164 4l2 -93l-164 -5v-37l237 -3l-1 -95l-575 8l1 95l244 -4v33l-169 -4l-3 94l170 4v36l-191 -5l-2 94zM277 750l60 -72l-143 -121l60 2l17 -618l-95 -2l-16 589l-74 -63l-60 73zM389 92l-15 238l47 50l375 -10l46 -50
l-17 -382l-95 5l10 206l-261 -8l3 -44l207 12l5 -95l-206 -12l4 -64l-93 -5l-4 65l-68 -4l-5 94zM473 235l271 9l2 32l-276 9z" />
    <glyph glyph-name="uni502A" unicode="&#x502a;" 
d="M750 505l-10 97l-115 -13l-11 93l162 20l53 -42l36 -351l-45 -53l-121 -6l16 -200l157 45l27 -91l-214 -60l-59 42l-21 260l-81 -4l-125 -292l-88 36l108 252l-40 -2l-49 44l-21 314l21 43l215 138l50 -79l-190 -124l3 -48l139 12l8 -94l-141 -11l7 -99l345 17l-7 63
l-148 -5l-2 95zM252 727l55 -77l-82 -58h7l-37 -625l-95 7l34 554l-58 -41l-55 77z" />
    <glyph glyph-name="uni502C" unicode="&#x502c;" 
d="M546 776l93 -16l-15 -94l197 16l8 -93l-258 -22l-51 55zM288 745l57 -74l-134 -104l62 -2l-20 -604l-94 3l18 577l-74 -57l-58 73zM373 423l1 82l47 46h388l46 -44l18 -245l-47 -50l-408 -12l-48 49l1 80h-33l-3 93zM726 431l3 -94l-264 -6v-35l310 9l-11 152h-296
l-1 -32zM573 136l-2 51l95 4l2 -51l202 9l5 -94l-204 -8l4 -100l-94 -3l-4 99l-218 -9l-4 93z" />
    <glyph glyph-name="uni502D" unicode="&#x502d;" 
d="M822 785l7 -94l-160 -13l-4 -65l213 4l2 -94l-99 -2l93 -93l-66 -67l-114 114l45 45l-80 -1l-9 -159l-93 5l8 152l-77 -1l-76 -153l-85 43l53 108l-51 -1l-1 95l243 4l3 59l-190 -14l-7 94zM243 767l71 -62l-114 -129l57 1l17 -634l-95 -2l-15 593l-54 -61l-71 63z
M429 295l24 66l89 -33l-11 -28l337 15l4 -95l-376 -17l-19 -51l129 -40l141 90l50 -80l-72 -46l104 -31l-27 -92l-184 57l-119 -75l-51 77l53 34l-99 31l-30 61l22 60l-82 -3l-5 95z" />
    <glyph glyph-name="uni502E" unicode="&#x502e;" 
d="M235 766l66 -67l-73 -73h10l7 -660l-94 -1l-7 577l-56 -56l-66 68zM406 222l-84 -4l-4 93l226 10l3 59l-136 -11l-51 45l-4 83l-50 -3l-6 95l52 3l-4 111l47 48h391l46 -46l8 -255l-44 -49l-155 -13l-3 -63l235 11l4 -93l-245 -11l-15 -279l-94 6l15 269l-20 -1
l-145 -252l-81 48zM560 606l3 52h-118l2 -59zM647 482l98 9l-5 167h-84l-2 -45l46 3l6 -93l-57 -4zM553 474l2 38l-105 -8l2 -38zM755 213l142 -160l-71 -63l-141 160z" />
    <glyph glyph-name="uni503A" unicode="&#x503a;" 
d="M659 480l233 8l2 -94l-559 -17l-2 93l231 7l-2 27l-168 -6l-4 94l163 6l-3 36l-182 -7l-5 93l178 8l-4 46l93 9l5 -51l233 10l4 -94l-228 -10l3 -36l187 7l4 -94l-182 -7zM153 536l-61 -62l-68 65l234 239l67 -65l-81 -83l19 -671l-94 -2zM317 288l45 56l486 19l49 -55
l-35 -195l-94 17l25 137l-373 -14l25 -131l-92 -19zM883 12l-55 -75l-229 162l-209 -161l-57 72l309 242l58 -75l-24 -18z" />
    <glyph glyph-name="uni503C" unicode="&#x503c;" 
d="M574 713l11 58l92 -17l-6 -33l176 14l8 -94l-202 -16l-14 -74l159 8l49 -51l-43 -437l73 5l5 -95l-579 -33l-5 93l73 4l-2 43l-52 1l1 94l46 -1l-14 308l45 50l146 7l14 70l-208 -16l-7 94zM265 745l70 -64l-135 -150l66 -3l-30 -559l-94 5l28 524l-63 -70l-70 62z
M466 51l242 15l40 397l-302 -15l1 -26l231 24l9 -93l-235 -26l1 -26l229 14l6 -95l-230 -13l1 -25l203 -1v-95l-198 1z" />
    <glyph glyph-name="uni503E" unicode="&#x503e;" 
d="M684 590l158 10l50 -50l-20 -410l-94 4l16 358l-225 -15l19 -238l93 178l83 -42l-233 -451l-84 43l79 152l-22 -2l-32 400l44 52l58 4l50 99l-181 -6l-2 94l436 15l2 -95l-147 -5zM229 -48l-93 -1l-9 577l-66 -58l-63 71l263 231l62 -70l-104 -92zM278 136l-12 446l93 3
l3 -102l67 9l14 -92l-78 -11l6 -180l77 32l38 -86l-142 -60zM642 104l56 75l224 -170l-58 -75z" />
    <glyph glyph-name="uni5043" unicode="&#x5043;" 
d="M447 536v65l47 48h330l47 -48v-186l-44 -48l-263 -17l48 -18l-2 -6l265 4l1 -95l-132 -2l51 -59l-5 -4l54 -5l-9 -95l-148 13l-51 -42h253v-94h-539l-48 47v721l47 47l538 14l3 -94l-493 -13v-628h130l-16 19l43 36l-64 6l-40 63l24 65h-44l-1 94l80 1l8 22l-20 -1
l-50 48v61h-22l-3 80zM172 460l-90 -19l-51 68l130 251l84 -43l-85 -163l51 10l56 -47l-5 -573l-93 1zM747 545l3 -80l-209 -7v-14l236 15v95h-236v-15zM560 190l96 -9l62 52l-143 -2z" />
    <glyph glyph-name="uni5047" unicode="&#x5047;" 
d="M239 110l5 94l61 -4l-15 513l42 47l190 26l52 -46v-255l-51 -46l-130 14l3 -110l151 38l23 -91l-172 -45l2 -51l127 -8l-7 -93l-118 7l5 -147l-95 -3l-5 156zM135 454l-76 14l-30 73l174 242l76 -55l-129 -180l42 -7l38 -47l-8 -543l-95 2zM620 538l148 -13l22 141
l-171 -7l-4 94l229 10l48 -55l-38 -240l-50 -40l-191 15zM480 686l-93 -13l2 -125l91 -10v148zM632 131l-50 49l66 68l39 -40l63 87l-167 20l11 94l248 -29l32 -75l-119 -163l135 -133l-66 -65l-125 121l-96 -132l-76 53z" />
    <glyph glyph-name="uni5048" unicode="&#x5048;" 
d="M373 647l-9 75l46 54h403l46 -50l-16 -231l-46 -44l-323 -1l44 -25l-21 -37l330 13l50 -47l-10 -389l-95 2l8 338l-81 -3l16 -12l-41 -53l98 -32l-30 -90l-129 44l-73 -93l-34 27l2 -48l210 5l2 -94l-256 -6l-49 45l-10 231l-20 -36l-82 46l127 224l-36 31l-8 61l-59 -2
l-4 95zM202 424l-113 -9l-45 69l141 272l84 -44l-102 -197l78 6l52 -47l-7 -530h-95zM735 661l4 -95l-258 -10l2 -11h269l10 137h-298l4 -32zM502 169l100 129l-160 -7l-13 -23l69 3z" />
    <glyph glyph-name="uni504C" unicode="&#x504c;" 
d="M404 681l-8 60l93 14l9 -65l195 19l11 62l92 -16l-7 -37l78 8l9 -94l-104 -10l-16 -88l-92 16l11 62l-163 -15l8 -48l-94 -14l-8 53l-84 -8l-9 94zM215 755l75 -58l-90 -117l26 1l8 -631l-94 -1l-7 545l-38 -49l-74 57zM395 362l-96 3l3 94l173 -6l87 98l70 -61l-36 -41
l304 -10l-4 -94l-380 13l-210 -239l-70 62zM436 14l-29 193l38 54l324 61l55 -50l-17 -271l-50 -44l-277 17zM726 219l-219 -43l17 -111l192 -11z" />
    <glyph glyph-name="uni504E" unicode="&#x504e;" 
d="M346 625l-9 85l43 53l413 25l50 -51l-19 -265l-45 -45l-365 -17l-49 43l-9 77l-39 -3l-8 95zM184 405l-105 8l-40 66l133 290l86 -39l-105 -228l85 -7l44 -50l-27 -508l-95 5zM644 515l89 4l11 171l-100 -6v-34l75 7l8 -94l-83 -8v-40zM550 642v36l-115 -6l4 -39z
M550 511v36l-100 -9l4 -31zM873 400l7 -93l-213 -15l70 -102l81 65l59 -73l-86 -69l69 -98l-77 -53l-226 322l-70 -5l-12 -214l104 74l54 -77l-183 -130l-75 41l18 299l-75 -5l-8 95z" />
    <glyph glyph-name="uni504F" unicode="&#x504f;" 
d="M312 282l-8 338l45 49l177 8l-34 57l81 47l60 -99l204 10l50 -48l-4 -173l-47 -46l-433 4l4 -150l-1 -12l-65 -306l-93 20zM226 734l73 -59l-113 -141h53l-8 -563l-94 1l6 509l-36 -45l-74 59zM792 595l-393 -19l2 -52l388 -4zM521 63l6 -121l-95 -3l-16 375l42 48
l376 35l52 -48l-13 -379l-94 2l4 106l-28 -2l-1 -102l-95 1l1 96l-18 -1l7 -113l-93 -5l-7 113zM757 171l29 1l5 127l-33 -3zM662 166l1 120l-33 -3l7 -118zM543 160l-7 114l-24 -2l5 -114z" />
    <glyph glyph-name="uni5055" unicode="&#x5055;" 
d="M320 774l95 1l1 -107l135 24l16 -92l-151 -27l1 -66l133 42l29 -90l-194 -60l-61 43zM609 457l2 315h94l-1 -108l133 76l47 -83l-180 -100v-52h156v-95h-204zM170 432l-80 -13l-54 60l96 292l90 -29l-71 -217l60 11l55 -49l-21 -543l-94 3zM348 162l-19 120l46 54l100 1
l65 92l77 -54l-26 -37l208 3l47 -50l-16 -292l-46 -44l-360 -8l-48 40l-13 82l-41 -3l-7 94zM715 191l7 -94l-266 -21l6 -34l277 5l10 199l-318 -4l11 -72z" />
    <glyph glyph-name="uni505A" unicode="&#x505a;" 
d="M210 773l71 -64l-53 -58h3l-29 -697l-95 4l24 585l-55 -61l-70 62zM776 244l138 -225l-82 -50l-91 149l-47 -172l-92 25l71 259l-88 146l81 48l42 -69l53 196l-107 10l-39 65l62 145l87 -38l-37 -85l165 -12l-7 -95l-27 2zM381 632l4 107l94 -3l-4 -97l101 7l6 -94
l-110 -8l-4 -117l54 5l52 -50l-24 -325l-46 -44l-147 -2l-47 41l-38 310l43 52l58 5l5 119l-87 -6l-6 94zM459 107l17 226l-105 -9l26 -218z" />
    <glyph glyph-name="uni505C" unicode="&#x505c;" 
d="M491 701l-16 47l89 30l23 -71l278 17l5 -94l-577 -35l-6 94zM204 721l66 -66l-92 -92l51 1l15 -619l-95 -2l-13 578l-56 -55l-66 68zM315 508l44 53l403 33l51 -50l-8 -129l-45 -45l-378 -17l-49 40zM713 463l2 33l-298 -25l2 -22zM345 353l10 -40l499 55l51 -50l-8 -103
l-94 8l4 45l-429 -47l7 -26l-91 -24l-40 159zM827 203l6 -94l-185 -14v-106l-50 -46l-164 10l5 93l115 -6v48l-211 -15l-8 93z" />
    <glyph glyph-name="uni5065" unicode="&#x5065;" 
d="M619 584l-2 41l-136 4l2 94l130 -3l-1 36l94 5l2 -43l128 -3l45 -59l-11 -48l27 3l10 -93l-60 -6l-20 -87l-43 -36l-62 -5l2 -32l88 7l7 -94l-91 -7l1 -37l155 14l9 -94l-160 -15l2 -46l142 16l11 -93l-389 -45l-35 10l-95 72l-23 -66l-89 31l34 95l-53 41l58 74l28 -21
l39 111l-82 43l-18 68l60 85l-46 8l15 92l120 -18l31 -74l-71 -103l70 -35l24 -58l-64 -179l105 -80l134 15l-2 49l-158 -14l-9 94l163 14l-1 39l-113 -8l-8 93l117 9l-2 32l-120 -9l-6 93l122 9l-1 19l-157 -15l-10 94zM289 759l67 -68l-178 -173l59 -2l-15 -537l-94 2
l14 502l-64 -62l-65 68zM713 593l57 5l6 23l-64 2zM747 502l-30 -3l1 -21l24 2z" />
    <glyph glyph-name="uni506C" unicode="&#x506c;" 
d="M664 299l101 60l15 220l-29 2l-121 -184l44 -25l-48 -81l-47 27l-40 -61l-79 52l37 57l-61 35l-80 -97l-72 58l71 87l-34 20l48 82l47 -28l68 84l-94 9l-49 -75l-78 53l130 196l78 -51l-23 -34l386 -36l42 -50l-18 -292l-23 -37l-122 -73zM-15 512l208 245l72 -61
l-207 -245zM497 475l52 -30l96 147l-48 4zM74 -33l79 565l93 -12l-78 -565zM468 126l23 91l122 -32l-24 -91zM739 165l79 51l117 -175l-79 -52zM468 -59l-108 118l-56 -104l-83 45l89 162l76 9l129 -142l224 97l37 -87l-255 -110z" />
    <glyph glyph-name="uni5076" unicode="&#x5076;" 
d="M333 595l5 127l46 46l368 -1l47 -44l20 -276l-42 -50l-173 -16l1 -42l232 13l50 -50l-23 -313l-94 6l18 260l-181 -10l1 -87l36 7l-6 50l94 12l25 -207l-93 -12l-8 63l-219 -44l-19 92l96 19l-2 101l-137 -7l33 -263l-94 -12l-39 313l44 53l191 10v39l-132 -12l-51 49
l3 92l-28 -2l-7 94zM259 734l55 -77l-130 -93l31 1l24 -610l-95 -3l-23 567l-33 -24l-54 77zM506 607l-1 66h-75l-3 -71zM603 476l119 11l-14 186h-108l1 -60l86 6l6 -94l-91 -6zM508 467l-1 46l-83 -6l-1 -48z" />
    <glyph glyph-name="uni5077" unicode="&#x5077;" 
d="M564 780l56 -75l-21 -16l296 -96l-29 -90l-334 109l11 35l-228 -171l-56 75zM242 737l73 -60l-75 -89l25 -636l-94 -4l-21 531l-51 -61l-73 60zM440 566l277 -19l-7 -95l-276 20zM314 140l-18 237l43 51l203 18l52 -48l-4 -395l-95 2l2 203l-93 -15l3 -37l68 11l16 -94
l-76 -12l7 -94l-93 -7l-7 86l-25 -4l-15 93zM766 107l-14 328l94 3l15 -350l-16 -37l-129 -111l-62 72zM702 408l33 -298l-94 -10l-32 298zM397 288l101 16l1 43l-105 -9z" />
    <glyph glyph-name="uni507B" unicode="&#x507b;" 
d="M853 444l-56 -76l-161 118v-122h-95v118l-129 -138l-69 64l95 103l-87 -7l-8 94l198 16v166h95v-131l101 142l76 -55l-76 -107l142 12l8 -93l-158 -13zM33 541l206 245l73 -61l-208 -244zM367 698l70 63l79 -85l-70 -63zM113 -21l79 572l94 -12l-79 -574zM610 24
l-287 -96l-30 88l156 53l-85 24l-25 72l32 43l-77 2l3 94l144 -3l56 75l76 -56l-16 -21l320 -6l-3 -95l-386 8l-31 -42l148 -42l172 59l30 -90l-40 -14l71 -19l-25 -90z" />
    <glyph glyph-name="uni507E" unicode="&#x507e;" 
d="M797 380l44 6l52 -55l-37 -207l-94 17l28 144l-349 -44l14 -102l-93 -13l-32 233l93 12l5 -37l273 34l12 79l-186 -9l8 -59l-93 -12l-9 67l-85 -4l-3 94l77 3l-6 49l92 11l7 -55l63 3l2 88l-199 -18l-9 94l211 19l2 73l93 -2l-2 -63l162 15l8 -94l-172 -16l-2 -92l56 3
l10 67l94 -15l-8 -48l48 3l4 -94l-67 -3zM27 515l208 245l71 -60l-208 -245zM106 -36l89 573l93 -15l-88 -573zM820 17l-59 -73l-168 135l-152 -150l-65 67l261 256l66 -66l-42 -42z" />
    <glyph glyph-name="uni507F" unicode="&#x507f;" 
d="M823 577l47 -46v-126h-95v79l-399 3v-82h-93v130l47 47l99 -1l-71 135l83 44l79 -146l-62 -34l92 -1l14 178l94 -7l-13 -172h87l-51 44l107 122l71 -62l-91 -105h55zM308 -30l-93 -11l-63 459l-21 -37l-81 48l183 318l81 -46l-84 -147zM411 421l300 36l13 -92l-301 -38z
M501 62l229 34l-25 83l90 28l65 -211l-90 -27l-11 36l-305 -44l-54 51l22 179l-118 -5l-4 94l550 26l5 -95l-337 -15z" />
    <glyph glyph-name="uni5080" unicode="&#x5080;" 
d="M432 277l-44 -2l-49 43l-25 279l42 50l124 17l57 124l86 -39l-32 -70l207 29l53 -50l-19 -321l-45 -45l-252 -11l-131 -336l-87 34zM267 739l62 -71l-111 -98l33 -1l-18 -630l-94 3l16 572l-59 -52l-63 71zM572 376l169 8l12 223l-97 -14l-20 -51l73 7l8 -95l-119 -10z
M531 533l17 45l-135 -19l3 -36zM468 372l25 63l-69 -6l5 -59zM684 258l95 7l7 -96l57 28l40 -85l-119 -57l-67 39zM559 -2l-16 220l94 6l14 -179l236 -20l-9 -93l-276 22z" />
    <glyph glyph-name="uni5085" unicode="&#x5085;" 
d="M557 697l5 75l95 -6l-4 -65l75 4l-15 38l89 35l28 -69l35 2l4 -95l-222 -10l-2 -26l148 11l51 -41l31 -249l-55 -53l-107 20l17 94l43 -9l-18 139l-116 -8l-1 -27l70 5l4 -76l-79 -5l-1 -16l60 5l6 -77l-71 -6l-3 -57l-95 6l2 44l-87 -6l-1 -52l-95 3l4 138l-35 -2l-5 75
l42 3l3 77l43 46l149 11l2 29l-159 -7l-4 95zM178 491l-70 -64l-64 71l246 224l64 -70l-80 -73l-7 -539l-95 1zM542 451l1 26l-93 -7l-1 -25zM536 357l1 18l-90 -6l-1 -19zM653 66l52 -10v48l-182 -16l57 -103l-83 -45l-60 110l68 37l-117 -10l-8 95l325 27v39h95v-31l63 6
l7 -95l-70 -6v-112l-56 -47l-107 19z" />
    <glyph glyph-name="uni5088" unicode="&#x5088;" 
d="M550 278l2 2l1 -2l11 1v32l-132 -4l-48 40l-33 218l45 55l96 4l-4 54h-154v94l550 1v-95h-148l-2 -44l87 4l48 -51l-20 -224l-45 -43l-145 -5v-32l172 9l3 -94l-175 -9v-242h-95v215l-221 -202l-62 70l162 149l-92 -4l-4 94zM237 770l76 -55l-97 -134l38 -1l-17 -585
l-94 3l13 500l-47 -66l-76 55zM640 630l3 48h-60l4 -50zM634 536l-40 -2l10 -127l155 6l12 129l-43 -2l-6 -100l-94 7zM509 403l-9 127l-48 -2l19 -126zM752 155l135 -122l-64 -70l-135 122z" />
    <glyph glyph-name="uni508D" unicode="&#x508d;" 
d="M373 396l12 -79l-92 -15l-23 130l45 55l127 6l-21 17l59 73l99 -77l94 111l-350 -46l-13 94l179 23l-55 65l72 62l93 -109l-5 -4l249 33l11 -94l-179 -24l71 -60l-45 -52l155 7l49 -57l-26 -119l-93 20l14 59l-227 -10l-17 -2l-2 1zM134 428l-88 10l-31 77l178 223
l73 -58l-125 -158l47 -5l41 -47l-3 -493l-93 1zM518 290l-33 30l63 70l105 -93l190 10l5 -95l-271 -15l-13 -18l231 -22l41 -57l-28 -135l-54 -37l-121 20l16 93l76 -13l9 40l-231 21l-127 -184l-78 53l156 228l1 4h2l1 1l-129 -6l-5 95z" />
    <glyph glyph-name="uni50A3" unicode="&#x50a3;" 
d="M577 397l-151 -121l88 -100l-5 -67l-198 -170l-61 72l161 139l-59 67l-61 -48l-60 74l183 146l-137 -6l-5 95l269 12l5 4l-1 24l-131 -8l-7 94l137 8l-1 27l-222 -9l-5 95l226 10l-1 55l95 1l1 -52l234 10l5 -95l-238 -11l1 -26l170 11l5 -94l-174 -11v-25l5 -3l231 11
l5 -95l-112 -5l127 -91l-56 -77l-224 161zM118 501l-38 -48l-74 58l218 275l75 -58l-84 -105l-14 -693l-95 1zM502 51l57 -16l3 326l95 -1l-5 -387l-60 -45l-116 32zM695 161l115 83l55 -76l-68 -50l118 -113l-65 -69l-160 152z" />
    <glyph glyph-name="uni50A5" unicode="&#x50a5;" 
d="M269 639l93 16l6 -36l44 4l-40 98l87 36l50 -125l34 3l-9 125l95 6l8 -122l41 4l72 137l84 -44l-44 -83l70 7l52 -54l-25 -165l-93 14l15 106l-424 -40l9 -45l-92 -17zM9 509l184 245l76 -57l-185 -245zM85 -43l68 579l94 -11l-69 -579zM595 -20v215l-59 -1l-147 -255
l-82 47l117 206h-7l-48 40l-26 159l42 55l355 26l50 -50l-7 -180l-46 -45l-48 -1v-160l165 33l18 -93l-220 -42zM455 287l235 4l4 83l-250 -18z" />
    <glyph glyph-name="uni50A7" unicode="&#x50a7;" 
d="M293 704l94 15l5 -36l144 19l-11 66l93 15l11 -68l220 29l53 -55l-35 -179l-93 18l23 115l-390 -53l8 -49l-93 -15zM102 -36l51 581l-59 -76l-75 57l190 245l75 -57l-124 -160l88 -6l-53 -593zM697 239l165 5l2 -95l-96 -3l80 -147l-83 -45l-91 167l44 24l-193 -6
l-103 -201l-84 43l79 155l-119 -3l-3 93l105 3l-46 234l40 56l360 46l13 -92l-310 -42l8 -40l342 39l11 -94l-112 -13zM601 236l8 77l-127 -14l13 -67z" />
    <glyph glyph-name="uni50A8" unicode="&#x50a8;" 
d="M109 -25l34 460l-83 27l-20 78l236 243l68 -66l-184 -190l48 -15l32 -49l-36 -496zM563 -65l-48 43l-8 102l-43 -9l-20 92l57 11l-3 43l-13 -12l-62 70l130 119l-87 -6l-6 94l119 8l9 121l-80 -16l-18 92l104 21l4 53l95 -6l-2 -28l94 19l19 -91l-120 -25l-9 -125
l129 117l64 -70l-51 -46l57 4l6 -94l-176 -12l-68 -62l179 3l48 -49l-14 -316l-46 -45h-240zM294 618l82 45l62 -110l-83 -46zM281 3l-27 55l84 340l-69 10l12 93l122 -18l40 -57l-88 -351l79 -33l-35 -86zM743 223l18 -92l-160 -32l5 -69h152l8 220l-176 -3l4 -54z" />
    <glyph glyph-name="uni50A9" unicode="&#x50a9;" 
d="M481 -49l3 74l-73 -45l-65 108l-51 -154l-90 30l77 231l-74 124l-14 -370l-94 3l22 548l-32 -40l-74 59l191 245l75 -59l-62 -79h1l-12 -286l71 42l41 -70l38 113l-117 19l15 92l172 -27l37 -62l-81 -242l100 -166l23 515l-29 -44l-79 52l146 223l79 -51l-57 -87l39 -2
l-32 -699zM807 42l92 -5l-5 -95l-283 17l6 93l96 -5l-5 136l-66 -1l-1 95h64l-4 92h-86v93h83l-3 64l-76 -4l-5 94l105 5l-33 86l88 35l44 -115l57 3l5 -94l-90 -5l3 -69h93v-93h-90l3 -91l105 2l1 -94l-103 -2z" />
    <glyph glyph-name="uni50AC" unicode="&#x50ac;" 
d="M314 715l94 5l5 -87l141 16v119h95v-108l140 17l9 63l94 -12l-24 -176l-94 12l2 16l-402 -46l-51 44zM211 754l80 -49l-90 -148l20 1l11 -590l-94 -3l-9 473l-21 -35l-80 49zM727 203l119 5l3 -94l-123 -5l-1 -53l162 7l4 -95l-405 -16l-4 95l148 6l1 53l-103 -4l-4 93
l109 4v39h-110v95h112l1 45l-130 -5l-4 95l130 5l-6 52l93 12l7 -60l141 6l4 -95l-141 -6l-1 -49h120v-95h-121zM423 527l73 -62l-87 -102l18 1l7 -400l-93 -2l-7 314l-7 -9l-73 61z" />
    <glyph glyph-name="uni50B2" unicode="&#x50b2;" 
d="M157 478l42 -48l-9 -481l-93 1l7 438l-79 6l-36 71l193 318l80 -49l-153 -252zM548 244l31 -52l-29 -168l-48 -39l-107 3l3 95l66 -3l15 89l-101 35l-55 -267l-93 18l76 371l-82 -7l-7 94l130 11l3 46l-82 -7l-9 94l97 8l3 36l-90 -9l-10 93l107 11l6 86l93 -8l-5 -67
l94 10l10 -94l-110 -12l-3 -37l68 6l9 -93l-83 -8l-3 -46l127 11l9 -94l-173 -16l-7 -36zM932 577h-239l-44 -145l-90 26l89 294l90 -27l-17 -55h211v-93zM729 318l101 259l88 -35l-123 -316l128 -177l-78 -55l-91 127l-61 -158l-88 35l83 215l-65 92l76 55z" />
    <glyph glyph-name="uni50BA" unicode="&#x50ba;" 
d="M323 263l-70 62l50 57l-42 30l55 77l50 -36l19 23l-69 42l-7 -1v3l-6 5l5 9l-1 12l-36 -43l-73 60l189 225l72 -61l-20 -24l134 -64l15 -74l-138 -158h228l-62 48l-19 39l5 270l94 -2l-2 -88l155 -25l27 -79l-108 -113l139 -107l-58 -75l-148 114v-77h-277v65l-100 -114
l479 24l5 -94l-203 -10l4 -171l-33 -47l-112 -33l-26 90l76 23l-3 133l-188 -9l-4 94h4zM128 409l-74 1l-41 69l129 264l85 -43l-96 -196l45 -1l46 -48l-1 -498l-95 1zM354 603l94 -56l29 33l-102 48zM692 517l1 -2l53 55l-53 8zM403 168l73 -60l-119 -144l-73 60zM702 167
l130 -143l-70 -64l-130 143z" />
    <glyph glyph-name="uni50BB" unicode="&#x50bb;" 
d="M776 151l-80 -56l154 -64l-37 -88l-208 87l-150 -105l-54 77l101 71l-20 9l36 88l76 -32l34 24l-119 21l-92 -115l-72 60l176 221l-113 -6l-50 40l-37 264l45 54l110 2l95 92l66 -68l-21 -20l194 5l48 -52l-27 -253l-44 -42l-24 -2l120 -122l-67 -66l-59 59zM258 747
l62 -71l-106 -90l42 -1l-16 -617l-94 3l15 569l-63 -53l-61 73zM711 488l-22 -35l52 3l17 160l-42 -1l7 -7l-77 -81zM615 612l-106 -2l66 -40zM458 440l-2 3l63 67l-69 42l34 57l-62 -1l24 -168h12zM570 447l49 2l-29 18zM756 236l-63 64l65 63l-198 -11l52 -42l-35 -43z
M351 353l81 -47l-84 -140l-81 49z" />
    <glyph glyph-name="uni50CF" unicode="&#x50cf;" 
d="M656 269l48 -35l86 92l68 -64l-77 -83l90 -63l-55 -78l-122 86l22 -83l-28 -57l-135 -53l-36 86l98 39l-12 45l-237 -159l-48 70l261 176l-7 26l-245 -162l-46 71l268 179l-11 39h-6l-182 -158l-57 65l113 97l-11 1l-45 46l-4 120l47 49h286l19 36l-241 26l-25 -37
l-77 52l100 150l78 -54l-16 -23l259 -28l37 -69l-28 -53h57l45 -59l-36 -135l-48 -35l-165 5zM293 744l45 -82l-94 -52l24 -646l-93 -3l-24 598l-74 -41l-45 83zM546 467h-104v-29l68 -2zM637 432l133 -4l10 39h-103z" />
    <glyph glyph-name="uni50D6" unicode="&#x50d6;" 
d="M539 622l3 21h-184v95h195l5 40l94 -11l-4 -29h219v-95h-230l-2 -19l164 4l1 -94l-410 -10l-2 95zM203 408l-108 -11l-46 70l150 260l81 -48l-103 -180l70 8l52 -49l-20 -505l-95 4zM524 256l130 2l20 54l89 -33l-7 -19l114 2l2 -94l-553 -9l-2 94l110 2l-10 42l66 16
h-65l-48 40l-13 102l46 54l376 4l48 -54l-15 -106l-47 -40h-256zM725 418l-268 -3l1 -8h266zM390 -22l-25 105l45 59l379 2l46 -61l-32 -108l-45 -33h-323zM727 49l-257 -2l3 -10h250z" />
    <glyph glyph-name="uni50DA" unicode="&#x50da;" 
d="M640 -3l-38 -42l-100 -19l-17 92l64 12l7 117h-73l-48 41l-8 62l-43 -3l-7 94l39 3l-8 68l-75 -100l-75 58l75 99l-53 29l40 72l63 -35l33 44l-89 -8l-9 94l175 16l70 92l75 -56l-19 -25l219 20l9 -94l-135 -12l34 -29l41 24l40 -70l-16 -9l86 -72l-62 -72l-43 36
l-10 -222l-47 -45h-85zM149 569l-72 -47l-53 79l241 159l52 -79l-72 -48l-30 -697l-93 5zM706 497l-127 107l-37 -4l-83 -110zM697 402l-190 -5l4 -36l147 12l7 -93l-143 -12l2 -17h166zM429 162l76 -55l-126 -172l-76 53zM729 128l146 -118l-58 -73l-147 118z" />
    <glyph glyph-name="uni50E6" unicode="&#x50e6;" 
d="M350 655l-60 73l73 60l90 -109l-20 -16l105 10l10 -94l-328 -31l-9 94zM259 478l46 51l196 4l48 -53l-16 -165l-39 -41l-36 -6l4 -71l56 30l60 -111l33 369l-41 2l5 95l44 -3l17 186l94 -8l-16 -183l167 -9l-5 -93l-171 8l-47 -541l-94 9l13 155l-76 -41l-34 62l6 -101
l-27 -45l-90 -45l-42 84l62 31l-6 106l-96 -142l-69 46l-7 -126l-94 6l27 461l-77 9l-39 64l110 286l88 -35l-88 -228l61 -6l42 -50l-21 -358l87 127l76 -53l-5 100l-39 -6l-53 43zM821 735l63 -100l-80 -50l-63 100zM710 434l94 8l27 -397l55 12l19 -93l-107 -21l-57 42z
M443 362l7 76l-94 -3l7 -86z" />
    <glyph glyph-name="uni50E7" unicode="&#x50e7;" 
d="M300 548l41 61l129 10l-69 81l71 62l87 -100l-45 -39l103 8l-1 2l136 150l70 -63l-70 -78l65 6l52 -53l-24 -217l-43 -43l-388 -30l-49 33zM280 744l69 -65l-129 -136l26 2l40 -546l-94 -6l-36 482l-36 -38l-69 63zM636 461l55 69l64 -50l-45 -57l45 4l14 122l-138 -12z
M480 405l-43 63l67 45l38 -55l-5 72l-130 -11l37 -117zM392 152l-7 78l46 52l350 2l48 -54l-27 -216l-41 -40l-300 -37l-52 42l-8 79l-72 -5l-7 95zM689 170l5 -93l-200 -13l3 -27l215 26l17 126l-245 -1l2 -31z" />
    <glyph glyph-name="uni50EC" unicode="&#x50ec;" 
d="M633 673l-40 59l78 54l67 -100l-4 -3l90 9l10 -93l-120 -13l1 -28l106 14l12 -92l-117 -17v-47l128 13l10 -94l-136 -14l1 -55l144 4l4 -94l-365 -11l-4 94l126 4l-1 49l-99 -10l-8 94l106 10l-1 44l-98 -13l-12 94l109 14l-1 32l-97 -10l-10 94zM168 449l-76 -28l-59 63
l110 261l86 -36l-68 -163l42 15l63 -47l-24 -580l-94 5zM442 742l56 -75l-112 -85l51 2l9 -428l-94 -1l-10 394l-49 -37l-56 75zM464 97l70 25l108 -71l67 85h74l104 -122l-73 -62l-66 80l-59 -73l-62 -10l-93 61l-23 -70l-90 30zM339 116l87 -36l-55 -131l-87 36z" />
    <glyph glyph-name="uni50ED" unicode="&#x50ed;" 
d="M857 781l7 -93l-70 -4l-28 -118l84 12l14 -94l-91 -13l34 -57l43 35l60 -73l-85 -70l-70 13l-33 55l-17 -73l-93 23l30 129l-33 -5l-54 48l5 112l94 -5l-3 -54l15 2l30 127l-84 -5l-6 95zM171 408l-101 -38l-59 63l139 333l86 -36l-97 -235l63 24l64 -45l-5 -533h-94z
M546 766l14 -93l-55 -9l-31 -112l78 1l2 -94l-70 -1l26 -40l44 10l21 -93l-78 -16l-48 20l-24 35l-20 -74l-90 25l36 131l-59 -1l-46 58l21 93l93 -22l-9 -34h26l27 99l-89 -13l-15 93zM328 132l-16 92l47 55l453 5l48 -56l-44 -238l-45 -39l-367 -13l-49 38l-11 63l-32 -3
l-10 94zM639 164l10 -94l-211 -22l3 -15l289 11l27 145l-342 -4l7 -43z" />
    <glyph glyph-name="uni50EE" unicode="&#x50ee;" 
d="M466 716l-17 40l85 39l34 -75l260 10l4 -94l-48 -2l-41 -57l111 4l4 -94l-563 -20l-3 95l77 2l-7 12l65 44l-93 -3l-4 94zM169 434l-72 -13l-53 64l111 272l88 -36l-79 -192l50 8l55 -51l-55 -555l-94 9zM624 573l41 56l-220 -8l35 -53zM346 340l-12 56l44 58l416 20
l49 -52l-14 -200l-45 -43l-121 -8v-20l155 10l6 -94l-161 -10v-21l209 13l5 -95l-547 -30l-5 93l243 14v20l-209 -12l-6 93l215 13v20l-141 -8l-49 38l-15 66l-54 -4l-5 80zM663 265l75 5l7 106l-82 -4v-9l54 4l6 -81l-60 -5v-16zM568 356v12l-130 -6l3 -15zM568 260v15
l-109 -8l3 -13z" />
    <glyph glyph-name="uni50F3" unicode="&#x50f3;" 
d="M847 770l8 -95l-129 -11l-2 -38l103 6l50 -54l-21 -148l-44 -40l-430 -25l-48 37l-32 145l44 58l88 5l-5 30l-89 -7l-8 94zM266 762l63 -70l-76 -67l-32 -659l-95 5l28 565l-50 -44l-63 71zM629 621l1 35l-107 -9l6 -32zM717 478l52 3l7 54l-57 -4zM622 473l3 53l-81 -5
l9 -52zM457 464l-8 51l-43 -2l11 -51zM391 115l-89 -10l-11 93l91 10l-52 74l77 55l82 -116l45 5l7 129l94 -5l-6 -113l13 1l82 132l80 -49l-43 -69l84 10l11 -94l-231 -26l-9 -182l-95 5l8 166l-15 -2l-118 -179l-79 52zM674 138l205 -91l-39 -86l-205 91z" />
    <glyph glyph-name="uni50F5" unicode="&#x50f5;" 
d="M826 790l6 -81l-475 -37l-6 80zM261 720l56 -76l-115 -85l64 -4l-36 -608l-94 5l34 583l-87 -64l-56 75zM327 606l36 50l435 40l45 -45l-22 -205l-39 -36l-372 -4l-39 30zM619 489l126 1l12 121l-147 -14l1 -14l107 13l9 -80l-109 -13zM518 572l-2 17l-99 -9l5 -20z
M525 488v4l-36 -5zM888 410l4 -81l-564 -25l-3 81zM370 129l-52 1l2 81l35 -1l-5 31l37 48l409 27l42 -42l-15 -200l-40 -38l-361 -2l-40 33zM622 115l124 1l9 116l-115 -8l-4 -20l90 -2l-3 -81l-100 2zM541 206l2 12l-106 -7v-3zM527 115l2 10l-77 2l3 -12h72zM863 37
l5 -81l-513 -27l-4 80z" />
    <glyph glyph-name="uni50FB" unicode="&#x50fb;" 
d="M229 778l77 -53l-159 -230l78 -2l-18 -553l-95 3l17 526l-30 -43l-78 54zM685 665l-36 65l82 46l57 -101l86 8l8 -93l-258 -25l-9 93zM261 288l1 357l39 46l220 41l56 -44l10 -216l-36 -47l-164 -37l-20 93l124 26l-6 123l-129 -24l-1 -321v-5l-41 -323l-93 11zM739 369
l57 208l91 -25l-49 -175l44 3l7 -95l-102 -8l6 -137l106 1v-94l-102 -1l4 -85l-95 -4l-4 88h-96l-1 93l93 1l-6 131l-76 -5l-6 95zM706 531l34 -98l-89 -31l-34 96zM370 302l46 48l126 2l49 -45l10 -305l-45 -49l-137 -3l-49 47v305zM505 47l-6 210l-35 -1l1 -210z" />
    <glyph glyph-name="uni5106" unicode="&#x5106;" 
d="M288 705l-8 34l92 22l13 -55l121 1l26 73l89 -31l-15 -41l25 1l1 -95l-59 -1l-24 -67l-89 33l12 34l-65 -1l9 -36l-91 -22l-14 57h-59l-1 94h37zM146 439l-70 -20l-55 65l118 276l87 -38l-80 -186l35 10l60 -46l-4 -544l-93 1zM707 747l84 -43l-25 -48l98 -21l35 -60
l-94 -303l92 -216l-87 -37l-49 114l-56 -182l-90 28l89 288l-75 179l87 36l32 -76l46 148l-72 17l-27 -52l-84 43zM291 560l89 -29l-9 -25l196 9l49 -49l-6 -442l-30 -43l-103 -42l-36 87l75 30l5 361l-182 -8l-9 -28l-89 30zM266 327l43 49l145 18l52 -48l-6 -194l-41 -45
l-130 -15l-53 45zM407 196l3 98l-46 -5l3 -97z" />
    <glyph glyph-name="uni5107" unicode="&#x5107;" 
d="M325 735l45 56l420 7l48 -49l-3 -149l-45 -46l-388 -13l-48 39zM114 388l-65 57l115 336l90 -31l-79 -227l40 18l69 -41l11 -557l-93 -3l-12 485zM707 645l35 1l1 57l-31 -1zM612 641l5 60l-64 -1l6 -60zM464 637l-6 61h-30l11 -62zM828 545l5 -94l-491 -23l-4 93zM662 3
l-57 207l-63 -5l-43 -60l20 -117l61 16l24 -91l-111 -30l-59 38l-12 74l-33 -47l-76 53l117 167l-35 25l-33 123l42 60l370 20l50 -52l-14 -121l-43 -42l-67 -5l13 -48l106 27l23 -92l-104 -25l6 -22l128 -21l-15 -92l-158 25zM722 313l2 26l-256 -14l7 -30z" />
    <glyph glyph-name="uni510B" unicode="&#x510b;" 
d="M511 863l62 -71l-38 -32l94 6l49 -54l-12 -69l179 7l5 -94l-431 -18l-6 -505l-2 -10l-36 -168l-92 18l35 165l8 545l-2 -1l-60 71zM171 385l-72 -23l-59 61l115 300l88 -33l-79 -208l41 13l61 -45l-11 -579l-95 2zM383 631l187 8l5 29l-152 -8l-1 5zM716 525l140 -42
l-21 -72l-141 41zM483 388l-44 53l94 77l48 -58l-86 -72l116 2l-20 42l85 41l39 -81l164 3l1 -82l-445 -6l-1 80zM480 290h355v-82h-355v82zM465 198h370v-81h-370v81zM448 46l46 54l332 5l48 -53l-16 -146l-47 -41l-295 -2l-46 40zM769 -42l5 52l-225 -4l7 -48h213z" />
    <glyph glyph-name="uni5112" unicode="&#x5112;" 
d="M441 548l109 -23l-18 -79l-89 19l3 -65l-95 -4l-7 197l47 49l166 -1l-1 23l-181 -4l-3 93l432 10l2 -93l-156 -4l1 -25h173l47 -46l3 -204l-94 -1l-3 157h-85l84 -24l-21 -77l-96 26l20 75h-26l2 -88l120 -31l-20 -77l-135 34l3 14l-61 -2l-3 150zM149 580l-7 176l95 4
l6 -171l82 8l9 -94l-87 -9l4 -115l26 12l39 -86l-61 -28l9 -222l-30 -45l-142 -55l-35 86l112 44l-6 151l-78 -35l-39 85l113 51l-6 148l-86 -8l-10 94zM460 450l99 -27l-22 -77l-98 26zM611 102l-35 2l10 -137l-94 -7l-10 149l-26 2l8 -143l-94 -5l-10 197l50 48l142 -9
l4 37l-171 -6l-4 93l405 15l4 -93l-138 -5l-5 -46l150 -9l44 -55l-34 -173l-92 16l24 122l-34 2l-18 -125l-92 13z" />
    <glyph glyph-name="uni5121" unicode="&#x5121;" 
d="M220 771l83 -45l-96 -178l14 1l21 -574l-94 -4l-17 435l-30 -56l-84 45zM335 592l-10 95l47 53h421l48 -54l-36 -252l-47 -40h-361l-46 42l-7 63l-33 -3l-8 94zM535 609v36h-110l4 -45zM628 487h89l23 158h-112v-28l82 8l7 -95l-89 -8v-35zM535 515l-97 -8l2 -20h95v28z
M256 -4l11 309l45 45l205 6l48 -44l18 -280l-2 293l47 47l215 2l48 -47l12 -323l-46 -48l-226 -4l-47 44l-47 -47h-234zM691 214l-1 65h-14v-65h15zM772 214h28l-2 65h-27zM460 202h17l-4 59l-14 -1zM380 202l-1 55h-19l-2 -55h22zM693 46l-1 74h-15v-74h16zM773 120l2 -72
l32 1l-3 71h-31zM381 107h-27l-2 -66h30zM461 107l1 -66h25l-4 66h-22z" />
    <glyph glyph-name="uni513F" unicode="&#x513f;" 
d="M32 37l164 128l45 591l94 -7l-47 -613l-18 -34l-179 -138zM550 49l-29 46l34 639l95 -5l-34 -607l114 -46l77 136l81 -45l-96 -173l-59 -22z" />
    <glyph glyph-name="uni5140" unicode="&#x5140;" 
d="M266 606l-166 -12l-6 95l688 49l6 -95l-425 -30l-124 -620l-92 19zM529 59l38 487l93 -8l-33 -441l200 -23l-12 -93l-245 28z" />
    <glyph glyph-name="uni5141" unicode="&#x5141;" 
d="M622 404l35 -332l156 41l24 -91l-209 -54l-59 39l-40 390l-174 -12l-184 -440l-88 35l167 398l-116 -8l-42 73l220 330l79 -51l-168 -251l414 29l-58 101l82 47l148 -257l-81 -48l-38 66z" />
    <glyph glyph-name="uni5143" unicode="&#x5143;" 
d="M710 760l7 -94l-531 -47l-8 93zM831 496l2 -95l-220 -7l35 -333l198 46l21 -91l-249 -57l-57 40l-42 393l-165 -5l-48 -275l-20 -30l-180 -122l-54 76l164 113l42 235l-197 -5l-3 95z" />
    <glyph glyph-name="uni5144" unicode="&#x5144;" 
d="M91 651l44 56l601 43l49 -57l-68 -335l-44 -37l-62 -4l36 -210l174 43l22 -92l-222 -55l-58 38l-48 270l-140 -8l-218 -333l-80 52l180 274l-57 -3l-50 38zM632 413l49 239l-488 -35l42 -227z" />
    <glyph glyph-name="uni5145" unicode="&#x5145;" 
d="M664 288l-56 -3l-26 -212l275 -27l-10 -94l-322 31l-42 53l29 245l-110 -5l-264 -326l-74 60l211 260l-82 -4l-43 72l139 216l-184 -19l-10 93l358 37l-28 70l88 35l38 -95l252 26l9 -94l-404 -41l-129 -201l336 15l-61 66l69 64l154 -165l-69 -64l-46 49z" />
    <glyph glyph-name="uni5146" unicode="&#x5146;" 
d="M265 313l53 450l94 -11l-93 -797l-94 11l28 241l-196 -72l-33 87zM533 40l14 718l93 -1l-4 -207l163 81l43 -85l-208 -103l-2 -109l232 -67l-26 -90l-207 60l-3 -156l267 -30l-10 -94l-311 35zM98 615l179 -80l-38 -87l-180 80z" />
    <glyph glyph-name="uni5148" unicode="&#x5148;" 
d="M242 279l-135 -5l-2 94l307 11l7 174l-218 -8l-55 -87l-80 50l170 270l80 -52l-54 -85l160 6l5 126l94 -4l-4 -118l227 8l2 -94l-232 -8l-6 -175l323 12l4 -94l-228 -8l50 -226l172 49l26 -91l-219 -63l-59 35l-66 292l-165 -6l-141 -339l-88 36z" />
    <glyph glyph-name="uni5149" unicode="&#x5149;" 
d="M246 403l-120 204l81 47l144 -243l46 4l20 353l95 -5l-19 -341l350 25l7 -95l-247 -18l12 -275l240 21l8 -93l-290 -27l-52 45l-13 322l-152 -11l-210 -364l-83 46l178 310l-178 -13l-6 95zM710 692l73 -60l-147 -180l-74 60z" />
    <glyph glyph-name="uni514B" unicode="&#x514b;" 
d="M630 66l227 -39l-16 -93l-266 46l-39 46v159l-172 14l-208 -264l-74 59l168 214l-40 4l-43 40l-29 208l43 54l223 14l-3 68l-329 -37l-10 93l335 38l-4 91l95 4l3 -84l357 41l10 -93l-363 -42l3 -72l245 16l50 -59l-75 -283l-48 -35l-40 3v-111zM685 454l-447 -32
l18 -120l381 -31z" />
    <glyph glyph-name="uni514D" unicode="&#x514d;" 
d="M250 197l-130 1l-48 50l16 222l47 43l436 8l52 86h-375l-41 -67l-80 48l125 207l80 -50l-27 -43l401 -1l40 -71l-64 -107l101 2l48 -45l11 -235l-47 -49l-430 1l-189 -272l-78 53zM746 290l-8 140l-224 -4l7 -5l-91 -130zM407 424l-227 -4l-10 -128l145 -1zM535 140
l93 -10l-10 -94h229v-94l-281 -1l-48 52z" />
    <glyph glyph-name="uni5151" unicode="&#x5151;" 
d="M482 -15l-21 243l-134 -1l-179 -293l-81 50l150 242h-30l-46 38l-56 273l45 57l105 2l-58 108l84 45l79 -151l172 3l139 184l75 -58l-94 -123l95 2l48 -55l-44 -281l-46 -40l-130 -1l16 -180l260 63l22 -92l-312 -76zM225 321l418 3l30 187l-485 -10z" />
    <glyph glyph-name="uni5154" unicode="&#x5154;" 
d="M250 193l-68 -1l-45 34l-66 208l40 61l325 29l90 83l-237 7l1 67l-96 -166l-82 47l133 229l82 -47l-22 -38l340 -9l31 -81l-86 -79l186 17l49 -62l-81 -256l-44 -32l-320 -8l-244 -267l-70 62zM338 289l124 137l70 -64l-64 -70l196 5l50 157l-535 -48l37 -119zM424 142
l93 15l19 -126l120 13l-62 110l81 47l69 -119l-63 -35l164 19l10 -94l-354 -38l-51 38z" />
    <glyph glyph-name="uni5155" unicode="&#x5155;" 
d="M89 718l46 52h215l47 -45l6 -141l127 12l4 142l49 45l196 -10l44 -52l-34 -338l-42 -43l-119 -13l6 -261l160 68l38 -88l-225 -92l-65 41l-8 322l-149 -16l-60 -277l-31 -34l-157 -52l-30 88l132 44l47 220l-106 -11l-52 42zM699 430l25 251l-97 5l-4 -135l-43 -45
l-217 -21l-51 45l-7 145h-117l30 -297z" />
    <glyph glyph-name="uni5156" unicode="&#x5156;" 
d="M78 694l330 14l-21 44l85 41l39 -81l304 13l3 -93l-736 -32zM656 540l61 72l155 -132l-61 -72zM642 299l-30 -4v-266l224 40l17 -92l-280 -50l-56 46v309l-131 -18l-201 -329l-80 50l160 262l-60 -8l-45 73l173 272l80 -50l-120 -187l300 41l-37 69l82 45l107 -193
l-83 -45zM47 434l103 134l75 -59l-104 -132z" />
    <glyph glyph-name="uni515A" unicode="&#x515a;" 
d="M838 663l49 -51l-17 -170l-94 10l11 115l-647 -24l35 -115l-90 -28l-53 174l44 60l119 4l-54 90l81 49l82 -135l108 4v142h94v-138l113 4l106 139l75 -58l-59 -76zM550 -7l-42 147l26 7l-136 -1l-270 -219l-58 73l179 145h-7l-47 47l-8 260l45 48l420 22l49 -50l-18 -280
l-46 -44l-32 -1l25 -89l233 36l14 -94l-275 -41zM287 240l305 2l13 182l-322 -16z" />
    <glyph glyph-name="uni515C" unicode="&#x515c;" 
d="M285 512l-15 93l46 56h22l78 124l81 -50l-46 -74h121l48 -51l-18 -271l-42 -45l-192 -19l-51 40l-1 5l-141 -90l-73 32l-50 299l8 35l123 178l78 -55l-113 -162l37 -208l81 52l49 -78l-15 95l-45 -6l-13 95zM657 416l83 -39l18 282l-127 -27l-19 93l188 40l57 -50
l-26 -414l-68 -40l-146 69zM476 537l12 -95l-94 -12l9 -56l107 11l12 181h-150l6 -42zM257 96l53 155l90 -30l-59 -176l-26 -29l-202 -82l-36 87zM470 245l95 5l13 -210l277 39l13 -94l-328 -45l-54 42z" />
    <glyph glyph-name="uni5162" unicode="&#x5162;" 
d="M721 547l107 5l49 -53l-30 -257l-57 -42l-138 31l-100 -283l-89 31l97 272l-32 8l-36 46l1 187l45 46l89 4l3 53l-145 13l8 94l143 -13l6 89l95 -6l-7 -92l140 -12l-9 -94l-137 12zM387 60l43 20l38 -85l-102 -48l-68 38l-17 230h-10l-145 -273l-84 43l125 237h-2l-44 43
l-14 210l45 50l89 4l5 72l-175 -19l-10 93l192 21l4 61l94 -7l-3 -43l84 10l10 -94l-101 -11l-6 -78l105 6l48 -60l-63 -236l-49 -35h-1zM777 454l-190 -9l-1 -102l174 -39zM380 443l-175 -10l7 -120l131 -8zM655 183l93 12l19 -140l69 23l30 -90l-124 -39l-61 38z" />
    <glyph glyph-name="uni5165" unicode="&#x5165;" 
d="M470 748l392 -727l-82 -45l-393 727zM391 466l75 -58l-334 -438l-75 57z" />
    <glyph glyph-name="uni5168" unicode="&#x5168;" 
d="M523 58l317 12l4 -95l-765 -25l-3 92l352 13l-5 106l-192 5l3 94l185 -4l-4 103l-233 -3l-1 77l-84 -62l-56 75l435 324l56 -77l-328 -243l299 5h3l197 3l-249 119l41 85l385 -184l-41 -85l-123 59l1 -89l-207 -3l4 -106l203 -4l-2 -95l-197 4z" />
    <glyph glyph-name="uni516B" unicode="&#x516b;" 
d="M366 720l86 -39l-310 -682l-86 38zM617 590l247 -495l-84 -41l-246 493z" />
    <glyph glyph-name="uni516C" unicode="&#x516c;" 
d="M697 766l190 -359l-84 -45l-190 360zM263 735l72 -61l-228 -270l-73 61zM349 515l88 -39l-180 -404l386 54l-54 110l85 43l140 -283l-85 -42l-41 81l-503 -68l-50 67z" />
    <glyph glyph-name="uni516D" unicode="&#x516d;" 
d="M410 611l-57 94l82 50l80 -133l333 34l10 -94l-787 -81l-9 94zM288 426l85 -41l-205 -420l-85 41zM665 387l192 -375l-84 -44l-192 377z" />
    <glyph glyph-name="uni516E" unicode="&#x516e;" 
d="M296 768l79 -54l-136 -201l469 12l-156 172l70 64l256 -282l-70 -63l-88 96l2 -80l-287 -8l-43 -106l285 14l46 -64l-103 -286l-50 -31l-247 32l13 94l207 -28l68 185l-286 -13l-47 63l55 137l-118 -3l-2 57l-93 -136l-78 53z" />
    <glyph glyph-name="uni5170" unicode="&#x5170;" 
d="M853 581l-3 -95l-755 11l2 94l216 -3l-118 113l65 69l129 -123l-56 -60l210 -2l130 182l76 -55l-91 -129zM133 307l655 13l2 -95l-655 -12zM34 45l848 46l5 -94l-848 -47z" />
    <glyph glyph-name="uni5171" unicode="&#x5171;" 
d="M223 227l-177 -8l-5 95l177 8l8 184l-105 -6l-5 95l114 7l6 143l95 -4l-6 -133l269 16l10 132l95 -7l-9 -119l102 6l5 -95l-115 -7l-14 -189l206 10l5 -95l-532 -27l-205 -269l-76 57zM572 340l14 188l-265 -16l-8 -185zM572 216l230 -166l-56 -76l-229 166z" />
    <glyph glyph-name="uni5173" unicode="&#x5173;" 
d="M193 710l63 70l120 -113l-63 -68zM94 -61l-64 67l257 244l-211 -9l-3 94l311 13v150l-300 -28l-9 94l429 40l159 173l68 -63l-88 -97l153 15l9 -93l-326 -32v-155l407 18l4 -94l-461 -20zM453 142l42 84l366 -185l-42 -84z" />
    <glyph glyph-name="uni5174" unicode="&#x5174;" 
d="M318 723l80 48l118 -197l-81 -49zM81 706l80 50l134 -217l-80 -50zM874 489l6 -94l-834 -54l-6 95l513 32l195 286l77 -54l-152 -224zM51 6l270 328l73 -61l-270 -325zM501 228l69 65l248 -262l-69 -65z" />
    <glyph glyph-name="uni5175" unicode="&#x5175;" 
d="M243 157l-215 -12l-5 93l131 7l37 493l93 -7l-3 -45l490 107l20 -92l-517 -113l-24 -337l359 20l-36 197l-282 -17l-7 94l433 28l6 -95l-56 -4l37 -198l188 11l5 -94l-530 -29l-186 -239l-74 57zM696 147l122 -154l-74 -58l-122 153z" />
    <glyph glyph-name="uni5176" unicode="&#x5176;" 
d="M136 -61l-68 65l127 132l-151 -5l-4 95l145 5l18 383h-125v95h129l4 71l95 -5l-3 -66h342v61h95v-61h131v-95h-131v-364l136 5l4 -95l-550 -19zM288 392l302 4l1 -95l-308 -4l-3 -63l365 13v367h-347l-3 -61l280 13l4 -95l-288 -12zM633 72l58 75l174 -133l-59 -75z" />
    <glyph glyph-name="uni5177" unicode="&#x5177;" 
d="M164 607l-1 113l48 48l525 -3l47 -50l-40 -508l109 6l5 -94l-148 -9l98 -90l-64 -68l-163 151l-296 -16l-76 -129l-81 47l45 76l-105 -6l-5 94l108 6l-4 337l-56 -3l-5 95zM260 478l412 27l13 167l-427 2l1 -63l364 18l5 -94l-368 -19v-38zM661 366l3 44l-402 -26l1 -68z
M648 201l5 68l-389 -48v-41z" />
    <glyph glyph-name="uni5178" unicode="&#x5178;" 
d="M104 414l-14 242l95 7l2 -42l74 6l-25 137l94 17l27 -146l167 13l1 110h95l-1 -102l156 13l51 -54l-50 -336l91 11l13 -94l-526 -72l-149 -186l-74 58l87 109l-164 -22l-13 95l77 10l-8 131l-58 -5l-8 95zM521 357l-111 -10l22 -116l245 33l47 306l-106 -9l-1 -99l43 4
l9 -95l-52 -5l-1 -100l-95 2v89zM522 453l1 100l-149 -12l19 -100zM297 432l-18 102l-86 -7l6 -104zM337 218l-22 120l-110 -10l8 -127zM615 144l206 -113l-46 -83l-205 112z" />
    <glyph glyph-name="uni5179" unicode="&#x5179;" 
d="M724 530l-124 -190l105 3l70 98l76 -55l-225 -316l119 21l-25 65l87 34l83 -214l-88 -33l-22 57l-250 -42l-48 73l154 216l-125 -3l-40 72l158 242l-324 -30l-123 -187l106 3l69 99l77 -55l-228 -327l109 22l-14 58l91 23l49 -204l-91 -22l-13 54l-228 -47l-48 74
l160 229l-126 -3l-41 73l131 199l-145 -13l-9 94l210 19l-44 92l85 41l59 -123l223 20l53 134l88 -35l-36 -89l191 18l9 -94l-194 -18z" />
    <glyph glyph-name="uni517B" unicode="&#x517b;" 
d="M874 125l-78 -54l-153 220l-358 -18l-130 -193l-79 52l91 135l-116 -6l-5 94l187 9l48 72l-116 -3l-3 94l184 6l40 59l-232 -15l-7 95l82 5l-45 84l83 45l65 -122l223 14l77 122l79 -50l-41 -64l115 7l5 -95l-286 -19l-42 -63l300 10l3 -94l-368 -12l-47 -70l485 25
l5 -94l-85 -5zM532 251l94 12l46 -342l-93 -13zM160 -49l189 291l78 -50l-187 -292z" />
    <glyph glyph-name="uni517C" unicode="&#x517c;" 
d="M198 152l-73 1l1 93l189 -1l3 54l-116 1l1 94l121 -1l2 42l-155 1v94l161 -1l2 31l-231 3v93l137 -2l-39 36l62 70l93 -82l-22 -25l266 -2l125 125l66 -66l-60 -60l111 -1l-1 -95l-176 2l-1 -28h102l46 -52l-8 -86h48l-1 -94h-55l-9 -105l-47 -42h-77v-35l204 -58
l-26 -90l-179 51v-59l-94 1l1 191l-166 1l-12 -201l-94 6l10 170l-189 -183l-66 67zM570 528l1 29l-144 2l-1 -30zM570 392v42l-150 1l-3 -42zM664 391h47l4 43h-51v-43zM569 243v55l-157 1l-4 -55zM702 297h-39v-54h34z" />
    <glyph glyph-name="uni517D" unicode="&#x517d;" 
d="M149 316l-67 332l92 18l5 -25l104 9l-43 66l80 52l69 -109l158 13l116 146l74 -60l-60 -74l116 10l50 -54l-45 -299l-44 -40l-557 -23zM506 530l166 3l1 -94l-168 -3l-1 -51l206 9l30 201l-234 -21v-44zM412 529v37l-214 -18l4 -22zM409 381l1 53l-189 -3l12 -57zM54 238
l806 52l7 -94l-807 -53zM200 -66l-43 140l42 61l558 18l45 -63l-53 -150l-44 -30l-458 -7zM279 -4l393 7l18 53l-425 -13z" />
    <glyph glyph-name="uni5180" unicode="&#x5180;" 
d="M194 677l-112 12l10 94l232 -25l5 25l91 -19l-40 -201l-92 19l2 13l-210 -27l-12 92zM519 617v153h94v-36l185 49l24 -91l-110 -29h123v-94h-268zM244 127l3 3l2 -3l20 1l5 25l-176 -5l-3 95l197 5l4 21l-92 -5l-50 46v199l48 48h503l47 -48v-169l-44 -46l-360 -22l45 -8
l-3 -13l191 6l-1 13l94 9l1 -20l128 4l4 -94l-123 -4l2 -19l171 7l3 -94l-97 -4l36 -36l-66 -66l-97 96l-355 -15l-109 -97l-64 70l23 21l-68 -3l-4 95zM384 444l4 19h-140v-23zM466 373l192 12v78h-174l-3 -17l121 4l2 -67l-137 -4zM368 367l2 9l-122 -3v-13zM591 142
l-2 20l-218 -6l-4 -24z" />
    <glyph glyph-name="uni5181" unicode="&#x5181;" 
d="M910 -33l-86 -37l-39 93l-170 -106l-73 43l19 220l94 -7l-11 -126l104 64l-39 94l-194 -1l-19 -269l-94 7l55 796l44 44l346 21l50 -53l-23 -181l-44 -41l-42 -3l-1 -53l64 6l9 -94l-74 -7l-2 -78l102 1l1 -93l-77 -1l19 -44l18 11l50 -80l-31 -20zM288 212l1 -38l85 14
l15 -93l-99 -16l1 -151l-94 -1l-1 137l-127 -20l-15 93l141 22l-1 58l-72 5l-42 36l-69 321l93 19l5 -20l146 37l34 148l92 -23l-24 -98l8 2l57 -49l-21 -343l-50 -44zM60 723l90 31l36 -106l-89 -30zM542 604l243 15l11 86l-249 -15zM286 466l34 2l5 69l-39 -10v-61z
M693 462l1 57l-32 -2v-58zM569 450v61l-33 -2l-5 -62zM193 459l-1 44l-65 -16l7 -32zM314 374l-27 -2l1 -67l22 -1zM689 299l2 68l-29 -3v-65h27zM194 311l-1 54l-39 -2l11 -50zM569 298v57l-44 -4l-4 -53h48z" />
    <glyph glyph-name="uni5182" unicode="&#x5182;" 
d="M564 154l178 -73l-3 571l-560 -45l14 -632l-95 -1l-14 676l44 47l655 53l51 -46l3 -693l-65 -42l-243 97z" />
    <glyph glyph-name="uni5185" unicode="&#x5185;" 
d="M555 21l33 88l154 -59l33 488l-296 -19l-28 -63l260 -187l-55 -76l-244 175l-97 -222l-87 38l145 329l-225 -14l27 -556l-94 -5l-34 713l94 4l3 -62l272 17l75 171l86 -38l-56 -127l302 19l50 -50l-41 -606l-65 -40z" />
    <glyph glyph-name="uni5188" unicode="&#x5188;" 
d="M634 25l120 76l13 577l-615 -25l22 -693l-94 -3l-24 740l46 49l713 29l49 -49l-17 -653l-21 -38l-141 -90zM464 288l-184 -181l-66 68l179 175l-167 146l63 70l171 -150l164 162l66 -67l-159 -157l175 -152l-61 -71z" />
    <glyph glyph-name="uni5189" unicode="&#x5189;" 
d="M702 73v45l-455 10l11 -169l-95 -6l-12 177l-103 3l3 95l94 -2l-26 389l44 50l244 13l-8 90l94 8l8 -92l253 14l50 -48l-5 -440l73 -1l-1 -94l-73 1l-1 -72l-25 -40l-108 -61l-46 82zM521 461l186 11l2 129l-200 -11zM427 455l-12 130l-198 -11l9 -131zM704 213l2 164
l-177 -10l13 -150zM448 219l-13 142l-203 -12l8 -125z" />
    <glyph glyph-name="uni518C" unicode="&#x518c;" 
d="M292 15l54 68v240l-136 -6l-20 -335l-94 6l19 325l-48 -2l-5 94l59 2l17 283l47 45l207 2l48 -47v-268l51 3l11 287l45 45l191 13l50 -44l20 -287l45 2l5 -94l-43 -2l21 -285l-16 -40l-85 -70l-60 72l66 55l-19 264l-139 -7l-13 -351l-95 4l13 343l-48 -2v-261l-10 -27
l-63 -83zM715 435l-17 237l-103 -6l-9 -237zM346 418v224l-116 -1l-14 -229z" />
    <glyph glyph-name="uni518D" unicode="&#x518d;" 
d="M850 783l4 -94l-356 -15v-106l280 -2l47 -50l-18 -276l85 5l5 -95l-96 -6l-8 -126l-31 -42l-110 -38l-33 88l81 29l5 83l-465 -28l12 -145l-94 -7l-12 147l-116 -7l-6 93l115 7l-26 322l46 50l245 -2v102l-330 -14l-5 94zM404 391v84l-194 1l7 -90zM498 394l225 7l5 72
l-230 1v-80zM712 234l5 71l-219 -6v-79zM404 214v82l-179 -5l7 -87z" />
    <glyph glyph-name="uni5192" unicode="&#x5192;" 
d="M132 470l-3 80h-37l-3 94h37l-2 83l45 49l609 24l50 -46l4 -278l-47 -47l-606 -5zM221 646l447 9l1 -94l-446 -9l1 -33l513 3l-3 182l-514 -20zM212 -81l-48 47l2 67l-61 -1l-2 94l66 1l6 213l45 45l510 17l49 -43l29 -390l-48 -50h-548zM691 266l-3 40l-420 -14l-1 -36z
M259 12h451l-12 161l-434 -12l-1 -31l389 10l1 -94l-393 -10z" />
    <glyph glyph-name="uni5195" unicode="&#x5195;" 
d="M765 694l-606 -25v-162h-94v207l45 47l701 29l49 -48v-245h-95v197zM221 666h485v-80h-485v80zM198 574l518 -5l-1 -82l-517 7v80zM131 269l47 51l417 -2l20 26l-461 7l-45 55l14 85l92 -15l-5 -32l500 -7l36 -76l-33 -44h77l48 -47l1 -140l-48 -48l-195 -1v-24l258 -22
l-8 -94l-301 26l-44 47v66h-56l-31 -94l-41 -32l-304 -25l-9 93l274 23l11 35l-154 -1l-47 42zM377 174l17 51l-165 1l5 -52h143zM476 175l268 1v48l-252 1z" />
    <glyph glyph-name="uni5196" unicode="&#x5196;" 
d="M653 358l-403 -4l9 -62l-94 -13l-16 115l46 54l533 5l42 -66l-57 -121l-85 40z" />
    <glyph glyph-name="uni5197" unicode="&#x5197;" 
d="M117 691l675 70l52 -53l-39 -260l-94 13l30 200l-564 -58l28 -153l-93 -16l-36 202zM252 129l2 329l46 46l340 6l47 -52l-50 -382l195 -20l-8 -92l-245 24l-42 53l50 374l-238 -5l-3 -311l-25 -41l-197 -100l-43 82z" />
    <glyph glyph-name="uni5199" unicode="&#x5199;" 
d="M810 783l50 -56l-32 -177l-93 17l22 117l-598 -47l-4 -114l-95 4l10 243l94 -3l-2 -35zM553 -22l22 92l128 -31l25 226l-506 -51l-52 54l52 339l93 -14l-11 -72l425 -6l-1 -93l-438 4l-17 -112l504 51l52 -52l-39 -338l-57 -38zM59 135l563 74l12 -94l-562 -73z" />
    <glyph glyph-name="uni519B" unicode="&#x519b;" 
d="M782 677l-626 -16l-16 -83l-93 19l24 120l45 38l711 18l49 -46l1 -170l-94 -1zM288 321l158 -5l10 109l94 -8l-9 -103l249 -7l-3 -95l-254 7l-6 -72l309 -5l-3 -94l-314 5l-9 -108l-94 7l8 103l-382 7l1 94l389 -7l6 73l-221 6l-42 65l58 139l-116 -5l-5 95l162 7l46 109
l86 -36l-29 -68l381 18l4 -94l-425 -21z" />
    <glyph glyph-name="uni519C" unicode="&#x519c;" 
d="M765 451l15 132l-314 -20l-188 -208h17l-3 -315l183 25l12 -94l-236 -32l-54 47l3 283l-94 -104l-70 64l294 325l-145 -9l1 -76l-94 -3l-2 122l44 47l286 18l134 148l70 -63l-69 -76l275 18l50 -52l-21 -188zM885 -15l-65 -67l-445 431l66 67l161 -157l179 157l61 -71
l-172 -152z" />
    <glyph glyph-name="uni51A0" unicode="&#x51a0;" 
d="M66 692l46 48l690 25l49 -54l-17 -140l-94 11l10 87l-589 -23v-100h-95v146zM435 614l12 -95l-256 -33l-11 94zM775 206l-30 -52l-144 -55l-34 88l108 42l-34 205l-145 8l5 95l125 -7l-10 62l94 15l13 -82l98 -5l-5 -95l-78 4zM449 461l18 -94l-49 -10l8 -271l429 -21
l-5 -94l-473 23l-45 45l-9 298l-29 -6l5 -1l-140 -376l-89 32l121 324l-47 -9l-19 94zM551 411l78 -124l-80 -51l-78 125z" />
    <glyph glyph-name="uni51A2" unicode="&#x51a2;" 
d="M813 785l52 -54l-31 -209l-92 14l21 147l-599 -79l-4 -93l-95 4l12 247l93 -4l-3 -58zM617 238l218 -222l-67 -66l-172 176l-29 -153l-52 -38l-188 17l8 94l147 -14l20 107l-408 -188l-40 85l228 105l-12 41l-167 -80l-40 85l181 86l-16 54l-76 -31l-37 87l257 106
l-168 -14l-7 93l482 42l9 -95l-171 -14l78 -127l210 76l32 -89l-211 -75zM478 385l-22 36l-140 -58l14 -49zM356 223l12 -42l155 72l9 44l-5 7z" />
    <glyph glyph-name="uni51A4" unicode="&#x51a4;" 
d="M752 696h-435l70 -54l-14 -19l247 -16l35 -73l-46 -65l132 6l49 -54l-33 -199l-44 -38l-104 -7l-12 -130l129 2l-66 63l66 68l91 -88l-41 -42l75 1l1 -95l-306 -4l-48 52l15 168l-175 -11l-192 -232l-73 60l136 164l-56 -3l-48 41l-25 208l45 52l365 14l38 54l-224 13
l-53 -70l-75 58l133 176h-143l11 -134l-94 -7l-16 184l48 51h692l46 -54l-28 -185l-93 15zM471 322l-52 -62l252 15l16 104l-272 -11zM290 252l95 115l-207 -8l14 -113z" />
    <glyph glyph-name="uni51A5" unicode="&#x51a5;" 
d="M165 554l-93 -9l-13 146l45 51l709 34l49 -55l-29 -181l-93 15l19 124l-602 -29zM835 266l3 -95l-751 -20l-3 95l289 7l-19 38l40 21l-140 -6l-49 43l-7 61l-61 -3l-5 94l57 3l-7 71l46 51l424 14l48 -48v-221l-45 -47l-207 -9l31 -59zM284 510l321 20v14l-323 -10z
M605 416v18l-312 -18l2 -14zM562 161l215 -94l-38 -86l-215 94zM104 22l203 135l52 -78l-202 -135z" />
    <glyph glyph-name="uni51AB" unicode="&#x51ab;" 
d="M497 671l62 -152l-87 -36l-63 153zM542 369l70 -64l-233 -257l-70 63z" />
    <glyph glyph-name="uni51AC" unicode="&#x51ac;" 
d="M275 783l68 -66l-29 -30l504 -45l21 -88l-274 -173l305 -118l-34 -89l-372 144l-363 -229l-51 80l304 191l-158 62l34 89l225 -87l214 135l-440 41l-104 -107l-67 66zM370 254l278 -88l-29 -90l-278 87zM225 67l441 -38l-8 -93l-442 37z" />
    <glyph glyph-name="uni51AF" unicode="&#x51af;" 
d="M836 353l49 -48l-10 -315l-47 -45h-145v93h100l7 218l-375 -20l-49 54l48 321l94 -14l-40 -264l197 10l69 299l-414 39l9 94l467 -44l42 -58l-76 -324zM90 626l78 55l161 -228l-78 -55zM35 22l198 283l77 -54l-197 -283zM306 116l369 66l16 -92l-368 -67z" />
    <glyph glyph-name="uni51B0" unicode="&#x51b0;" 
d="M442 120l95 -46v689h94v-764l-68 -42l-162 78zM86 717l167 -128l-57 -75l-166 128zM642 423l138 241l82 -46l-120 -210l196 -196l-66 -67l-222 222zM421 430l-165 118l54 77l201 -142l12 -63l-230 -386l-81 48zM225 450l77 -52l-242 -354l-78 54z" />
    <glyph glyph-name="uni51B1" unicode="&#x51b1;" 
d="M148 733l162 -169l-69 -65l-161 167zM856 731l1 -95l-261 -3l-24 -72l248 3l42 -68l-204 -415l199 -1l-1 -92l-581 3l1 94l278 -3l40 82l-186 4l-45 61l133 403l-168 -1l-1 95zM473 260l166 -4l104 213l-202 -3zM230 330l81 -49l-174 -282l-80 50z" />
    <glyph glyph-name="uni51B2" unicode="&#x51b2;" 
d="M570 -42l-94 7l14 199h-144l-47 46v358l37 46l191 40l8 109l94 -7l-6 -82l149 31l57 -42l36 -449l-48 -50h-232zM56 694l88 36l113 -277l-87 -35zM592 258h175l-27 345l-125 -26zM497 258l22 299l-127 -27v-272h105zM76 21l93 263l88 -31l-92 -263z" />
    <glyph glyph-name="uni51B3" unicode="&#x51b3;" 
d="M335 -65l-78 53l169 246l-124 -14l-11 92l199 22l16 229l-157 7l3 93l161 -7l9 129l94 -7l-9 -125l172 -7l45 -54l-33 -223l79 9l10 -93l-331 -37zM42 653l74 59l131 -169l-75 -57zM586 345l108 13l28 195l-121 5zM41 -18l143 405l88 -31l-142 -405zM589 157l65 68
l212 -205l-66 -68z" />
    <glyph glyph-name="uni51B5" unicode="&#x51b5;" 
d="M707 69l170 -39l-22 -91l-210 47l-36 50l31 314l-100 -8l-27 -263l-23 -37l-171 -100l-49 79l152 90l22 223l-36 -3l-51 45l-12 356l50 48l410 -23l44 -48l-10 -300l-42 -45l-61 -5zM44 649l64 70l166 -149l-62 -70zM449 430l298 24l7 212l-314 18zM49 11l178 366l85 -41
l-178 -365z" />
    <glyph glyph-name="uni51B6" unicode="&#x51b6;" 
d="M472 766l84 -42l-115 -225l277 50l-26 60l87 37l96 -222l-86 -38l-33 75l-392 -72l-52 67zM120 703l161 -210l-74 -58l-161 210zM189 339l88 -35l-138 -351l-88 35zM321 254l45 51l445 28l50 -48l-4 -272l-47 -47l-420 -3l-48 43zM764 60l2 175l-346 -21l12 -156z" />
    <glyph glyph-name="uni51B7" unicode="&#x51b7;" 
d="M588 785l67 -68l-38 -37l261 -174l-52 -79l-277 186l-194 -190l-67 67zM128 682l152 -199l-75 -57l-152 199zM542 535l109 -137l-74 -58l-109 136zM420 160l162 -63l116 145l-327 -21l-6 94l435 28l40 -76l-165 -206l100 -38l-34 -88l-355 136zM218 338l84 -45l-177 -331
l-83 44z" />
    <glyph glyph-name="uni51BB" unicode="&#x51bb;" 
d="M680 35l-26 -46l-149 -71l-41 85l120 56l-24 259h-198l-42 65l95 225l-114 5l4 95l149 -7l43 100l87 -37l-29 -68l295 -13l-5 -95l-330 15l-81 -190h118l-10 113l94 8l10 -121l201 1v-95l-192 -1zM60 643l60 72l172 -145l-60 -72zM31 26l189 382l85 -42l-189 -381z
M235 28l131 248l84 -45l-131 -247zM724 210l87 36l78 -187l-88 -36z" />
    <glyph glyph-name="uni51BC" unicode="&#x51bc;" 
d="M395 741l86 -37l-64 -144l92 15l43 153l90 -27l-30 -109l154 26l15 -93l-197 -33l-27 -98l231 27l12 -93l-194 -23l61 -222l155 53l31 -88l-202 -70l-61 32l-79 283l-42 -5l-132 -307l-87 38l111 256l-39 -4l-10 94l143 17l26 93l-134 -22l-51 65zM145 726l153 -143
l-65 -69l-153 142zM220 379l81 -46l-153 -264l-81 46z" />
    <glyph glyph-name="uni51BD" unicode="&#x51bd;" 
d="M176 768l97 -214l-85 -38l-98 213zM496 548l113 -34l29 -65l-213 -472l-85 37l105 235l-58 27l-11 -28l-87 35l145 362l-70 4l4 94l280 -14l-5 -93l-110 5zM784 84l-30 634l95 5l31 -670l-32 -47l-179 -55l-28 88zM422 363l62 -28l46 104l-69 21zM711 397l24 -200
l-94 -11l-23 200zM200 368l84 -41l-159 -326l-85 41z" />
    <glyph glyph-name="uni51C0" unicode="&#x51c0;" 
d="M641 60l-25 -43l-170 -95l-45 82l144 80l-3 49h-231v94l225 1l-5 85l-281 -8l-3 94l278 8l-3 48l-222 -17l-8 94l304 24l46 57l-275 5v1l-57 -52l-64 70l179 161l62 -70l-20 -18l273 -5l35 -77l-50 -62l50 4l51 -47l-2 -107l57 2l2 -95l-60 -2l-1 -139l-47 -48l-139 -1z
M41 695l82 45l107 -195l-83 -45zM618 410l112 3l1 59l-116 -9zM729 318l-105 -3l6 -87l98 1zM37 -8l130 316l88 -36l-130 -315z" />
    <glyph glyph-name="uni51C4" unicode="&#x51c4;" 
d="M636 310l1 -27l-95 -2l-1 31l-204 5l2 94l199 -5l-1 31l-219 -5l-3 94l219 6v21l-171 -11l-5 94l173 11l-1 23l-221 -12l-5 94l224 12l-1 42l93 2l1 -38l234 13l5 -95l-236 -13v-22l164 10l50 -48l-3 -75l54 2l3 -95l-60 -2l-3 -93l-49 -45zM44 698l81 48l154 -264
l-81 -47zM628 534l113 3l1 29l-115 -7zM738 443l-107 -3l1 -36l105 -2zM29 10l175 392l86 -39l-175 -392zM823 95l-52 -20l82 -17l-20 -92l-225 48l-275 -104l-33 88l139 52l-31 7l-34 64l13 35l-73 -1l-1 95l110 1l21 56l89 -34l-8 -20l337 5l1 -93l-67 -2zM482 138
l120 -26l133 50l-246 -4z" />
    <glyph glyph-name="uni51C6" unicode="&#x51c6;" 
d="M438 776l53 -77l-87 -60l1 -29l183 17l-43 94l86 40l56 -125l160 15l9 -93l-175 -16l-3 -104l192 17l8 -94l-203 -18l-2 -74h179v-95h-181l-3 -92l207 -3l-2 -94l-448 8l2 -48l-94 -2l-21 634l-46 -32l-53 78zM130 701l105 -197l-83 -45l-106 197zM584 429l3 104
l-179 -17l3 -102zM208 385l85 -39l-165 -371l-86 39zM579 269l2 66l-167 -15l2 -51h163zM574 83l3 91h-158l3 -88z" />
    <glyph glyph-name="uni51C7" unicode="&#x51c7;" 
d="M308 553l-17 213l94 7l14 -181l76 32l37 -87l-105 -44l2 -23l2 1l125 -209l-81 -48l-29 47l25 -303l-94 -7l-16 197l-45 -174l-91 24l113 433l-2 23l-48 -20l-37 87zM558 746l93 -19l-71 -346l-93 18zM775 743l137 -364l-89 -32l-136 362zM78 647l133 -155l-73 -61
l-131 155zM603 391l90 -27l-87 -296l111 23l-34 48l78 54l131 -186l-77 -54l-38 53l-229 -44l-55 57zM157 298l86 -39l-137 -313l-86 37z" />
    <glyph glyph-name="uni51C9" unicode="&#x51c9;" 
d="M264 620l2 94l245 -3l-2 69l94 3l2 -73l219 -2l-1 -94zM38 672l73 61l137 -164l-72 -60zM652 83l-19 -40l-141 -106l-56 75l120 91l-11 171l-142 -5l-49 48v231l50 47l342 -26l43 -47l-5 -194l-45 -46l-100 -4zM448 365l244 9l2 105l-246 18v-132zM28 5l158 430l88 -32
l-157 -430zM698 209l85 40l109 -236l-85 -39zM216 29l160 219l76 -55l-160 -220z" />
    <glyph glyph-name="uni51CB" unicode="&#x51cb;" 
d="M393 677v-731h-95v780l49 47l463 -7l47 -46l16 -773l-95 -2l-15 727zM137 728l108 -327l-90 -30l-108 329zM549 370l-10 106l-81 12l14 94l58 -9l-7 79l95 9l9 -102l106 -16l-13 -93l-84 12l8 -84l102 8l7 -94l-318 -26l-8 95zM432 188l41 60l224 22l51 -45l8 -120
l-41 -50l-197 -27l-52 35zM171 251l84 -45l-120 -226l-84 45zM658 143l-1 27l-119 -12l9 -30z" />
    <glyph glyph-name="uni51CC" unicode="&#x51cc;" 
d="M276 387l116 74l-112 -8l-8 94l247 19l3 53l-169 -1v94l175 1l5 75l95 -5l-5 -69l145 1v-94l-151 -1l-3 -47l262 20l7 -95l-116 -9l115 -104l-64 -69l-179 164l-146 -11l25 -39l-192 -123zM37 692l79 51l130 -203l-79 -50zM861 25l-45 -83l-206 111l-235 -123l-44 83
l179 94l-88 48l33 61l-149 -125l-60 72l335 280l60 -72l-55 -46l249 -62l11 -87l-135 -71zM47 -2l131 409l89 -29l-131 -408zM475 232l136 -73l81 43l-195 48z" />
    <glyph glyph-name="uni51CF" unicode="&#x51cf;" 
d="M151 -17l114 180l-24 463l48 50h338l-21 89l91 21l26 -110h35l-9 75l93 12l11 -87h34v-93h-142l60 -252l20 32l80 -50l-70 -110l60 -249l-91 -21l-38 159l-71 -112l-80 51l120 190l-86 362h-312l23 -430l-8 -28l-121 -191zM20 606l79 53l122 -184l-79 -52zM375 430v95
l242 -1v-95zM416 84l-44 47v185l42 48l180 24l53 -47v-225l-51 -47zM16 73l133 288l86 -38l-133 -289zM554 168v120l-87 -13v-100z" />
    <glyph glyph-name="uni51D1" unicode="&#x51d1;" 
d="M901 213l-88 -32l-64 168l-310 -11l-173 -353l-84 40l150 309l-40 -1l-3 94l90 3l24 50l-75 -2l-2 95l124 2l13 27l-132 -9l-7 94l186 12l42 86l85 -42l-18 -36l164 11l6 -93l-218 -16l-15 -31l230 5l1 -93l-278 -7l-24 -50l414 15l3 -93l-54 -2zM64 686l82 47l91 -157
l-81 -46zM18 42l161 391l87 -35l-160 -392zM801 27l-49 -79l-140 84l39 64l-48 -5l-116 -156l-76 56l64 86l-47 -5l-10 94l135 15l31 41l-131 -10l-7 94l233 19l43 -75l-41 -55l103 11l10 -94l-111 -13z" />
    <glyph glyph-name="uni51DB" unicode="&#x51db;" 
d="M270 643v94h232l-8 26l90 30l18 -56h253v-94h-585zM52 585l57 76l160 -119l-57 -76zM330 320l-28 255l40 45l463 11l41 -44l-20 -237l-37 -37l-415 -28zM406 367l343 24l12 157l-374 -8zM427 411l-12 87l32 38l238 2l34 -35l-3 -73l-31 -32l-223 -16zM489 452l161 11v8
l-163 -1zM51 -15l136 406l89 -30l-136 -406zM396 277l368 15l2 -85l-366 -15zM452 15l82 23l-2 38l-86 2l-94 -136l-77 54l58 84l-74 2l1 94l596 -13l-2 -93h-30l46 -55l-74 -59l-95 117l-75 1l3 -68l-34 -46l-115 -35z" />
    <glyph glyph-name="uni51DD" unicode="&#x51dd;" 
d="M233 726l93 11l6 -49l124 97l58 -75l-156 -122l112 11l9 -94l-171 -15l-52 41zM788 387l-233 -30l-11 94l142 19l-87 56l51 79l40 -26l34 60l-178 12l7 95l252 -19l38 -68l-72 -131l37 -23l-14 -21l35 5l52 -48v-126h-93v72zM123 684l110 -174l-79 -51l-110 173zM421 246
l124 13l9 -94l-112 -11l76 -70l-64 -69l-102 94l-86 -175l-83 41l79 161l-24 -2l-10 93l83 8l48 98l-56 1l-15 -47l-90 29l55 168l90 -29l-9 -28l176 -1v-95h-47zM675 205l11 114l94 -8l-6 -69l121 -16l-12 -94l-167 23zM140 317l89 -33l-115 -294l-89 34zM590 214l88 -35
l-18 -45l218 -100l-40 -85l-214 98l-41 -101l-88 35zM372 147h-1v-1z" />
    <glyph glyph-name="uni51E0" unicode="&#x51e0;" 
d="M57 9l98 667l46 40l485 7l47 -49l-17 -540l147 -40l-23 -90l-184 49l-35 48l17 527l-396 -6l-92 -626z" />
    <glyph glyph-name="uni51E1" unicode="&#x51e1;" 
d="M577 61l75 588l-373 -22l-35 -521l-12 -28l-100 -110l-71 63l89 98l42 624l95 -7l-2 -23l419 23l50 -52l-77 -594l182 -11l-7 -95l-231 14zM362 500l217 -187l-63 -72l-216 188z" />
    <glyph glyph-name="uni51E4" unicode="&#x51e4;" 
d="M741 7l-30 47l42 608l-547 -32l36 -467l-10 -33l-130 -165l-75 58l120 151l-44 575l94 8l2 -34l603 35l49 -50l-44 -625l86 -33l-33 -88zM479 164l-123 -174l-76 55l128 182l-136 123l63 70l128 -115l94 133l-245 50l19 92l316 -65l29 -72l-143 -202l108 -96l-63 -70z
" />
    <glyph glyph-name="uni51EB" unicode="&#x51eb;" 
d="M629 468l34 152l-499 -42l-42 74l110 156l77 -55l-52 -73l461 39l50 -56l-46 -215zM252 484l21 91l294 -67l-20 -91zM699 197l38 137l-603 -72l-52 51l21 227l94 -8l-16 -170l613 75l52 -59l-55 -206zM578 -45l9 198l-356 -9l-97 -215l-86 39l109 242l42 28l435 10
l49 -49l-7 -167l153 77l43 -85l-225 -112z" />
    <glyph glyph-name="uni51ED" unicode="&#x51ed;" 
d="M665 427l190 8l4 -95l-472 -19l-4 94l188 8l-6 70l-218 -10l-4 94l215 10l-6 67l-139 -17l-11 94l407 49l11 -94l-174 -21l6 -73l211 10l5 -94l-208 -10zM269 312l-95 -7l-18 223l-57 -47l-60 72l259 218l61 -73l-115 -96zM655 -27l-38 53l20 175l-330 -20l5 -106
l-24 -44l-155 -86l-46 81l130 74l-7 122l44 50l433 26l50 -52l-22 -186l167 -29l-17 -91z" />
    <glyph glyph-name="uni51EF" unicode="&#x51ef;" 
d="M41 572l3 166l95 -2l-3 -116h55l-17 153l93 10l17 -162l40 1l3 114l95 -4l-6 -157l-46 -45l-281 -5zM369 -37l77 247l11 451l42 45l292 31l51 -52l-68 -608l106 -29l-25 -91l-145 40l-34 50l66 590l-192 -20l-9 -416l-2 -13l-80 -253zM51 2l11 224l42 45l186 25l-4 97
l-222 -2l-2 94l268 3l49 -45l6 -186l-40 -49l-190 -26l-6 -116l200 64l28 -90l-263 -85z" />
    <glyph glyph-name="uni51F0" unicode="&#x51f0;" 
d="M70 116l16 634l95 -3l-1 -28l561 62l53 -46l-3 -616l119 -58l-43 -85l-143 71l-27 43l2 592l-277 -31l12 -7l-31 -52l202 20l51 -48l-2 -66l17 1l5 -94l-25 -2l-2 -63l-44 -46l-333 -24l-50 40l-35 211l43 55l56 5l34 58l-143 -16l-13 -521l-7 -22l-63 -114l-83 46z
M560 492l1 22l-272 -27l20 -120l247 18v12l-236 -15l-6 94zM667 292l13 -93l-156 -22v-20l72 7l8 -94l-80 -7v-22l193 5l3 -95l-526 -12l-3 93l238 6v17l-139 -11l-8 93l147 12v15l-200 -27l-13 94z" />
    <glyph glyph-name="uni51F3" unicode="&#x51f3;" 
d="M161 568l-44 59l75 58l47 -62l85 59l-206 13l6 93l341 -20l24 -86l-138 -97l232 -4l-46 16l-17 80l134 116l63 -71l-72 -61l38 -13l92 84l65 -70l-53 -48l120 -39l-29 -90l-249 81l-1 -80l-326 5v60l-233 -164l-55 78zM699 235l-17 -27l126 -1l-1 -86l-690 10l1 85
l140 -2l-18 23l38 30h-35l-48 48v108l48 48l466 6l48 -45l7 -114l-47 -51h-70zM665 381l-375 -5v-14h377zM571 210l36 57h-269l43 -55zM194 103l30 10h484l47 -42l4 -36h130v-94h-172l-48 44l-4 33h-425l-120 -93l-58 73z" />
    <glyph glyph-name="uni51F5" unicode="&#x51f5;" 
d="M134 565l93 -11l-36 -293l520 34l-42 282l92 14l69 -449l-93 -13l-11 73l-585 -38l-50 52z" />
    <glyph glyph-name="uni51F6" unicode="&#x51f6;" 
d="M412 482l-146 137l63 69l145 -136l179 204l71 -61l-181 -207l149 -138l-64 -69l-147 137l-188 -215l-71 62zM53 628l94 7l45 -541l561 104l20 436l94 -5l-30 -666l-94 3l6 135l-591 -110l-56 43z" />
    <glyph glyph-name="uni51F8" unicode="&#x51f8;" 
d="M64 420l45 54l144 5l-20 191l45 52l325 13l50 -48l-1 -187l156 2l47 -55l-61 -378l-42 -40l-580 -45l-50 40zM707 120l46 287l-149 -2l-47 47l1 187l-226 -9l20 -193l-47 -52l-140 -4l44 -300z" />
    <glyph glyph-name="uni51F9" unicode="&#x51f9;" 
d="M75 54l-14 572l41 48l224 27l53 -44l16 -276l126 5l11 268l45 45l232 12l50 -49l-12 -607l-46 -46h-679zM764 614l-139 -7l-11 -268l-45 -45l-217 -9l-48 45l-17 271l-131 -15l13 -484h586z" />
    <glyph glyph-name="uni51FA" unicode="&#x51fa;" 
d="M143 657h95v-226l168 13l-5 316l95 1l5 -310l160 13l30 173l94 -16l-37 -210l-43 -39l-203 -15l5 -300l211 2l7 231l95 -3l-10 -277l-46 -45l-604 -6l-47 45l-13 233l94 5l10 -188l209 2l-5 294l-214 -16l-51 47v276z" />
    <glyph glyph-name="uni51FB" unicode="&#x51fb;" 
d="M501 61l259 8l28 200l94 -14l-45 -326l-94 12l4 34l-621 -19l-49 39l-39 264l94 12l32 -221l243 8l-7 295l-339 -19l-7 95l343 19l-3 139l-281 9l4 94l274 -9l-2 106l94 3l3 -112l306 -9l-4 -95l-300 10l3 -130l353 20l7 -94l-357 -21z" />
    <glyph glyph-name="uni51FC" unicode="&#x51fc;" 
d="M337 230l98 2l-27 520l94 4l14 -270l249 -201l-59 -74l-184 149l9 -171l-46 -50l-147 -3zM537 557l146 153l68 -65l-146 -153zM178 200l115 311l-125 65l44 83l161 -84l23 -58l-129 -350zM776 -10v27l-688 -53l-51 47v578h95v-527l647 50l11 414l93 -2l-13 -537z" />
    <glyph glyph-name="uni51FD" unicode="&#x51fd;" 
d="M340 207l80 -6l-21 262l11 37l122 131l-347 37l12 95l437 -47l30 -80l-169 -185l25 -299l-51 -51l-137 11zM69 560l95 1l3 -509l555 36l35 437l95 -8l-39 -477l-44 -44l-646 -41l-51 46zM274 382l-86 95l71 64l111 -125l4 -60l-121 -164l-76 56zM517 396l133 145l70 -64
l-108 -119l107 -157l-79 -53l-127 189z" />
    <glyph glyph-name="uni51FF" unicode="&#x51ff;" 
d="M872 569l3 -94l-825 -31l-4 94l150 5l-81 123l79 53l111 -169l-4 -3l32 1l-16 223l94 8l16 -227l90 3l2 231h95l-3 -227l37 1l94 170l83 -46l-66 -120zM528 60l234 20l-38 306l92 12l58 -443l-94 -11l-6 43l-647 -54l-51 51l30 396l94 -7l-25 -342l258 21l3 48l-172 -14
l-8 95l187 14l4 54l-175 -11l-6 93l57 4l-31 43l77 55l66 -90l-1 -1l35 2l81 107l75 -56l-32 -43l52 4l6 -93l-109 -7l-3 -53l145 11l7 -94l-159 -13z" />
    <glyph glyph-name="uni5200" unicode="&#x5200;" 
d="M301 628l-219 -12l-5 95l716 39l50 -49l-5 -686l-61 -45l-245 71l28 91l183 -54l5 574l-346 -19l-225 -657l-90 31z" />
    <glyph glyph-name="uni5201" unicode="&#x5201;" 
d="M460 106l197 -36l67 583l-622 -43l-6 95l678 46l50 -52l-78 -690l-56 -41l-248 45zM522 525l54 -79l-365 -250l-54 79z" />
    <glyph glyph-name="uni5202" unicode="&#x5202;" 
d="M579 128l-40 648l93 7l42 -680l-27 -47l-250 -118l-41 85zM272 583l94 -7l-26 -400l-94 7z" />
    <glyph glyph-name="uni5203" unicode="&#x5203;" 
d="M340 320l31 319l-254 -8l-3 94l677 21l48 -51l-58 -657l-64 -40l-227 86l32 89l170 -65l48 542l-273 -8l-35 -346l-12 -27l-269 -296l-70 62zM207 548l83 -45l-118 -213l-82 46z" />
    <glyph glyph-name="uni5206" unicode="&#x5206;" 
d="M273 776l68 -66l-265 -269l-68 67zM639 734l273 -204l-58 -76l-271 204zM307 344l-178 -14l-7 95l555 45l51 -46l20 -436l-64 -45l-247 90l34 88l178 -66l-13 316l-205 -17l-292 -410l-78 52z" />
    <glyph glyph-name="uni5207" unicode="&#x5207;" 
d="M551 634l-151 19l12 93l428 -51l42 -47l-13 -530l-31 -44l-201 -74l-33 89l171 62l12 455l-142 17l-153 -650l-92 22zM167 563l5 138l93 -3l-4 -114l116 26l20 -92l-139 -31l-11 -359l86 40l39 -87l-155 -71l-68 44l14 412l-104 -23l-20 92z" />
    <glyph glyph-name="uni5208" unicode="&#x5208;" 
d="M255 372l-170 285l81 48l139 -233l136 276l84 -42l-162 -330l135 -226l-80 -49l-105 174l-148 -302l-85 43zM744 123l-35 602l95 5l36 -632l-26 -45l-164 -83l-44 83zM628 577l22 -349l-95 -6l-21 349z" />
    <glyph glyph-name="uni520A" unicode="&#x520a;" 
d="M363 412l182 31l15 -94l-200 -33l-12 -348l-95 2l12 330l-206 -33l-15 92l224 37l9 248l-160 15l8 94l393 -35l-9 -94l-138 12zM780 148l-32 589l95 5l34 -613l-18 -39l-151 -123l-59 73zM614 639l94 -6l-29 -433l-95 7z" />
    <glyph glyph-name="uni520D" unicode="&#x520d;" 
d="M679 -59l4 47l-543 -15l-2 94l555 15l9 96l-572 -37l-6 93l587 38l11 107l-613 -71l-10 94l427 49l-12 8l78 112l-318 -16l-69 -84l-72 60l92 112v5h4l116 140l73 -60l-62 -74l326 15l41 -73l-91 -133l137 16l53 -51l-49 -497z" />
    <glyph glyph-name="uni520E" unicode="&#x520e;" 
d="M370 559l-45 -3l-178 -516l-89 31l165 478l-25 -1l-69 -117l-81 48l180 302l81 -47l-52 -87l296 19l50 -50l-39 -597l-36 -43l-181 -37l-19 91l145 31l33 508l-40 -3l-88 -456l-92 19zM776 125l-32 606l94 5l34 -635l-24 -44l-174 -100l-47 82zM633 542l94 -2l-11 -346
l-94 3z" />
    <glyph glyph-name="uni5211" unicode="&#x5211;" 
d="M527 756l6 -94l-257 -18l-47 -274l154 9l-15 217l94 8l15 -219l70 4l5 -94l-68 -4l22 -305l-94 -6l-22 305l-177 -10l-52 -300l-94 16l48 278l-47 -2l-5 94l69 4l47 272l-111 -7l-6 95zM762 106l-27 628l93 3l30 -663l-32 -47l-204 -63l-29 88zM671 599l30 -365l-95 -8
l-29 365z" />
    <glyph glyph-name="uni5212" unicode="&#x5212;" 
d="M290 720l49 80l141 -85l-48 -80zM301 293l149 127l62 -72l-175 -148l228 -210l-63 -70l-237 219l-151 -129l-61 72l161 137l-25 220l-121 -24l-19 92l129 26l-26 225l93 10l25 -217l179 36l19 -92l-187 -38zM675 23l92 84l10 661l93 -1l-8 -681l-17 -34l-107 -99z
M564 625l94 8l41 -457l-94 -9z" />
    <glyph glyph-name="uni5216" unicode="&#x5216;" 
d="M93 547l-4 172l45 49l328 19l50 -48l5 -712l-41 -48l-149 -19l-12 94l109 14l-2 180l-225 -54l3 -107l-1 -13l-33 -139l-92 22l31 133l-9 364l-40 -2l-5 93zM617 70l157 -33l-4 741l94 1l5 -801l-58 -46l-214 46zM195 291l227 53l-3 345l-234 -14l3 -122l197 11l5 -95
l-200 -10zM662 629l49 -482l-94 -10l-48 482z" />
    <glyph glyph-name="uni5217" unicode="&#x5217;" 
d="M778 75l-15 715l95 1l14 -746l-29 -45l-186 -72l-34 86zM564 790l8 -94l-215 -19l-57 -108l224 -36l38 -63l-109 -288l53 -36l-54 -77l-52 35l-253 -176l-55 76l225 158l-129 89l54 78l131 -91l80 211l-200 31l-121 -229l-84 45l197 371l-151 -13l-8 94zM687 603l12 -422
l-93 -3l-13 422z" />
    <glyph glyph-name="uni5218" unicode="&#x5218;" 
d="M674 9l118 150l-43 601l95 8l45 -620l-12 -33l-130 -163zM634 50l-60 -73l-275 224l-194 -248l-74 56l195 252l-106 87l60 74l104 -86l151 194l-346 55l15 94l162 -26l-20 91l93 20l28 -127l162 -25l30 -77l-202 -259zM604 565l93 9l38 -420l-94 -9z" />
    <glyph glyph-name="uni5219" unicode="&#x5219;" 
d="M575 5l22 91l151 -36l27 713l95 -4l-31 -770l-57 -43zM404 284l33 390l-292 -11l12 -364l-95 -3l-13 410l46 49l390 15l49 -51l-36 -443zM568 629l94 9l37 -434l-94 -8zM92 -26l191 641l90 -27l-191 -640zM280 160l72 61l163 -190l-72 -60z" />
    <glyph glyph-name="uni521A" unicode="&#x521a;" 
d="M625 13l140 80l-20 692l94 3l21 -721l-23 -42l-164 -93zM59 734l48 49l417 -4l48 -46l1 -636l-13 -34l-81 -81l-67 65l67 68l-1 83l-73 -45l-85 140l-76 -138l-64 35l10 -203l-93 -5zM594 684l94 6l36 -491l-94 -6zM478 212l-1 473l-320 3l21 -458l85 156l-79 131l80 48
l51 -84l70 128l83 -45l-97 -176z" />
    <glyph glyph-name="uni521B" unicode="&#x521b;" 
d="M42 519l240 261l61 8l268 -179l-53 -79l-233 156l-213 -231zM666 18l119 91v675h93v-699l-17 -37l-138 -104zM157 -42l-44 50l22 383l37 44l316 66l57 -46v-232l-48 -48l-240 4l1 94l193 -3v126l-224 -46l-17 -302l258 -19l-17 97l92 18l29 -156l-50 -55zM601 175v310h95
v-310h-95z" />
    <glyph glyph-name="uni521D" unicode="&#x521d;" 
d="M295 552l-179 -17l-9 94l86 7l-54 87l80 50l79 -127l93 8l43 -75l-143 -191h9l-1 -7l1 1l9 -10l101 76l56 -75l-93 -70l86 -93l-70 -63l-97 104l-15 -294l-93 5l15 303l-87 -115l-76 57zM592 589h-113v95h358l47 -49l-22 -621l-61 -44l-202 63l27 90l144 -44l19 510h-98
l-187 -642l-90 26z" />
    <glyph glyph-name="uni5220" unicode="&#x5220;" 
d="M691 -33l21 92l92 -21l-4 750h95l4 -810l-58 -46zM646 13l-39 -48l-125 -23l-17 93l85 15l-10 314l-90 -8l-15 -418l-94 4l15 406l-43 -4l-4 -394l-95 2l4 383l-64 -5l-10 -381l-95 3l10 369l-30 -2l-8 94l41 3l9 301l51 46l153 -14l42 -47l-3 -263l45 4l11 271l45 46
l159 9l50 -45l8 -257l22 2l8 -94l-27 -3zM537 459l-6 214l-69 -5l-8 -217zM219 430l3 229l-58 5l-7 -239zM682 612l95 1l3 -434l-94 -1z" />
    <glyph glyph-name="uni5224" unicode="&#x5224;" 
d="M364 291l194 19l10 -95l-209 -20l-3 -73l-18 -35l-188 -148l-58 73l171 137l2 37l-184 -17l-9 93l197 19l7 136l-148 4l3 94l149 -4l13 269l94 -5l-13 -266h17l119 193l81 -48l-91 -148h35l-3 -94l-162 3zM176 737l86 -155l-82 -46l-87 155zM637 100l118 -16l-8 640l94 1
l7 -695l-52 -46l-173 22zM615 550l93 -9l-31 -330l-95 9z" />
    <glyph glyph-name="uni5228" unicode="&#x5228;" 
d="M131 785l87 -35l-25 -64l317 23l50 -49l-23 -503l-36 -43l-198 -44l-20 92l162 35l18 414l-309 -23l-19 -49l-88 35zM780 59v653h93v-691l-36 -46l-185 -41l-21 92zM692 592l40 -451l-94 -9l-40 452zM87 446l41 50l232 25l52 -45l9 -209l-45 -50l-178 -10l14 -178l295 6
l18 70l91 -21l-25 -107l-45 -36l-376 -7l-49 43zM325 309l-5 113l-135 -15l7 -106z" />
    <glyph glyph-name="uni5229" unicode="&#x5229;" 
d="M762 88l-1 678h94l2 -718l-40 -47l-212 -37l-18 92zM292 438h-9l-131 -439l-90 27l120 405l-99 -6l-6 95l221 13l6 106l-202 -29l-14 94l405 56l14 -92l-108 -16l-7 -113l155 10l5 -94l-165 -11l-27 -491l-94 5zM687 586l25 -405l-94 -6l-25 405zM467 283l113 -198
l-82 -47l-112 197z" />
    <glyph glyph-name="uni522B" unicode="&#x522b;" 
d="M367 392l-18 -36l154 -22l39 -55l-49 -296l-46 -40l-118 -1l-1 93l79 2l35 211l-138 20l-146 -288l-84 42l132 260l-97 15l14 93l128 -19l25 50l-92 -7l-50 43l-26 243l44 52l340 26l50 -53l-29 -247l-44 -43l-164 -12zM597 43l152 84l-34 631l94 6l36 -662l-25 -44
l-178 -96zM223 512l200 15l19 152l-235 -17zM575 612l94 2l9 -381l-94 -3z" />
    <glyph glyph-name="uni522D" unicode="&#x522d;" 
d="M572 456l-50 -80l-203 127l-223 -203l-64 69l314 285l-251 12l5 95l363 -20l29 -81l-101 -91zM596 34l36 87l120 -51l43 685l93 -5l-47 -754l-65 -38zM596 611l94 2l5 -370l-94 -2zM388 124l95 26l25 -91l-368 -100l-25 90l178 49v163l-113 -20l-17 93l289 51l16 -92
l-80 -15v-154z" />
    <glyph glyph-name="uni522E" unicode="&#x522e;" 
d="M499 758l18 -94l-171 -32l7 -124l209 11l5 -94l-209 -11l5 -81l126 12l51 -56l-62 -290l-51 -36l-308 36l-41 47v217l42 47l148 14l-4 85l-200 -10l-5 95l199 10l-6 110l-142 -26l-17 92zM765 130l-17 585l95 3l19 -618l-30 -45l-210 -87l-37 87zM612 586l95 -7l-30 -383
l-95 8zM434 245l-261 -26v-130l221 -28z" />
    <glyph glyph-name="uni5230" unicode="&#x5230;" 
d="M587 768l5 -95l-337 -19l-60 -139l260 15l-28 81l90 32l48 -142l-43 -63l-162 -9l9 -104l158 11l7 -95l-156 -11l11 -115l196 40l19 -94l-539 -108l-19 93l249 50l-11 128l-178 -11l-6 95l176 11l-9 105l-143 -8l-47 67l72 165l-90 -5l-7 93zM631 64l131 -9l18 698l95 -3
l-19 -747l-51 -47l-180 13zM616 615l95 -1l-6 -389l-95 1z" />
    <glyph glyph-name="uni5233" unicode="&#x5233;" 
d="M325 584l-113 -114h250v-94h-252v92l-95 -95l-66 66l146 148l-92 -3l-4 95l193 6l102 103l68 -67l-32 -32l180 6l3 -94l-138 -5l112 -65l-48 -81l-217 128zM777 71l-8 692l94 1l9 -725l-30 -44l-168 -62l-34 87zM712 588l26 -438l-95 -6l-25 439zM588 338l7 -94l-286 -23
l-16 -27l220 -3l45 -57l-36 -165l-50 -35l-197 15l8 94l155 -13l15 68l-243 2l-40 71l25 41l-81 -6l-7 95z" />
    <glyph glyph-name="uni5236" unicode="&#x5236;" 
d="M148 763l89 -29l-30 -92l79 7l-3 117l95 2l2 -110l156 14l7 -94l-161 -15l3 -117l161 15l9 -94l-168 -16l3 -98l136 5l49 -55l-32 -209l-93 14l22 154l-80 -3l5 -206l-94 -2l-5 205l-107 -4l24 -119l-93 -19l-35 174l44 56l165 6l-3 93l-207 -19l-9 94l214 19l-3 118
l-113 -10l-24 -76l-89 30zM765 108v635h93v-660l-20 -39l-107 -72l-53 77zM616 597l94 -3l-13 -432l-94 2z" />
    <glyph glyph-name="uni5237" unicode="&#x5237;" 
d="M100 126l-2 566l44 47l398 29l51 -47v-175l-48 -48h-351l1 -381l-2 -18l-56 -142l-88 35zM773 91l5 668l94 -1l-5 -705l-36 -45l-176 -44l-23 93zM716 673l14 -521l-94 -3l-15 522zM496 671l-304 -23v-56h304v79zM355 290l-50 2l13 -264l-93 -5l-17 314l48 50l103 -2
l4 88l95 -4l-4 -86l93 -2l46 -49l-12 -333l-94 4l10 284l-47 1l-14 -337l-94 3z" />
    <glyph glyph-name="uni5238" unicode="&#x5238;" 
d="M287 456l27 26l19 46h-191v94h122l-90 83l62 70l99 -89l-59 -64h96l70 166l87 -36l-55 -130h73l104 155l79 -52l-69 -103h119v-94h-346l-26 -63l446 31l6 -94l-132 -9l151 -180l-72 -60l-195 232l-285 -20l-221 -215l-65 67l142 138l-126 -9l-6 94zM312 191l-52 -3l-6 94
l387 28l51 -44l14 -205l-34 -49l-198 -55l-27 89l163 46l-9 120l-174 -13l-156 -269l-82 45z" />
    <glyph glyph-name="uni5239" unicode="&#x5239;" 
d="M251 585l-154 82l44 84l186 -99l124 108l61 -72l-96 -84l146 -77l-43 -84l-179 94l-189 -166l-62 71zM615 105l139 -29l6 680h95l-8 -739l-57 -46l-194 42zM676 611l40 -398l-94 -8l-40 396zM282 339l-1 108l94 1l1 -92l179 32l16 -93l-194 -35v-42l213 -112l-44 -84
l-167 88l2 -145l-95 -2l-3 280l-199 -36l-18 93zM184 211l83 -43l-105 -208l-83 42z" />
    <glyph glyph-name="uni523A" unicode="&#x523a;" 
d="M462 454l-86 -7l-6 -272l206 -107l-45 -84l-163 86l-2 -117l-95 1l5 227l-151 -185l-73 59l227 279l2 106l-81 -6l-17 -216l-93 7l18 256l43 44l132 10l1 70l-177 14l8 94l171 -14l2 67l95 -2l-2 -73l187 -15l-7 -93l-182 14l-1 -54l129 10l51 -49l-12 -311l-94 3z
M667 155l104 -39l-28 604l95 4l30 -675l-63 -46l-172 65zM602 531l94 -6l-21 -334l-94 7z" />
    <glyph glyph-name="uni523B" unicode="&#x523b;" 
d="M239 674l-32 66l85 41l45 -94l181 23l11 -94l-302 -39l-18 -77l194 -15l-2 -15l82 58l55 -77l-414 -296l-55 76l232 167l-153 13l-43 58l23 95l-68 -8l-11 94zM777 94l-17 646l94 3l18 -682l-32 -45l-198 -68l-32 88zM687 580l50 -397l-93 -12l-51 398zM523 321l54 -77
l-154 -109l136 -106l-59 -74l-156 124l-201 -141l-54 77z" />
    <glyph glyph-name="uni523D" unicode="&#x523d;" 
d="M579 546l-54 -77l-209 146l-225 -261l-71 61l330 383l71 -62l-43 -50zM641 6l163 87l-50 608l94 8l52 -640l-25 -45l-189 -101zM595 549l95 5l19 -379l-95 -5zM204 383l6 95l263 -18l-7 -94zM270 59l188 35l-33 89l89 33l77 -211l-87 -32l-12 31l-286 -53l-52 63l54 146
l-50 -15l-28 90l361 109l28 -90l-200 -61z" />
    <glyph glyph-name="uni523F" unicode="&#x523f;" 
d="M416 134l-64 -70l-28 25l-164 -155l-65 67l160 151l-59 54l64 70l64 -58l94 89l-188 19l-88 -159l-82 47l146 265l-105 -7l-49 60l50 185l90 -23l-31 -123l116 8l-5 205l95 2l4 -200l86 6l-7 134l93 5l17 -287l-94 -5l-3 58l-145 -10l-39 -71l252 -26l27 -81l-164 -155z
M577 15l38 86l115 -51l42 672l95 -6l-47 -739l-67 -38zM598 549l94 1l5 -355l-94 -1z" />
    <glyph glyph-name="uni5240" unicode="&#x5240;" 
d="M426 514l-332 -25l-50 56l34 183l92 -17l-22 -123l98 7l-13 191l94 7l13 -191l77 6l-10 111l93 9l23 -232l-94 -8zM573 21l35 88l130 -53l42 688l95 -6l-47 -753l-65 -40zM582 565l93 1l5 -355l-93 -1zM110 -32l-20 232l42 51l267 33l9 87l-333 -35l-10 94l389 41l53 -51
l-18 -182l-41 -43l-260 -32l11 -132l316 85l25 -91l-371 -97z" />
    <glyph glyph-name="uni5241" unicode="&#x5241;" 
d="M132 598l-5 137l52 48l304 -33l42 -47l3 -142l76 12l15 -93l-130 -22l-55 47l-2 155l-209 23l4 -97l-8 -28l-101 -152l-79 52zM592 66l181 -14l14 698l95 -3l-15 -746l-52 -48l-231 18zM717 616l23 -438l-95 -5l-23 437zM259 386l-2 129l95 1l2 -121l171 17l9 -95
l-179 -18l2 -74l25 41l200 -121l-50 -82l-174 106l4 -233l-95 -1l-7 353l-126 -273l-86 40l104 224l-69 -6l-9 95z" />
    <glyph glyph-name="uni5242" unicode="&#x5242;" 
d="M284 407l-162 -146l-63 70l132 120l-102 48l40 85l137 -65l86 78l-296 11l3 93l178 -6l-12 58l91 20l18 -82l216 -7l-3 -94l-59 2l-129 -117l187 -87l-41 -85zM632 25l138 113l-21 628l93 4l23 -652l-16 -38l-157 -127zM574 156l43 492l94 -9l-44 -491zM372 298l94 5
l23 -349l-95 -6zM74 23l108 88l14 183l94 -6l-15 -203l-18 -34l-125 -101z" />
    <glyph glyph-name="uni5243" unicode="&#x5243;" 
d="M207 225l-91 -1l-47 50l11 175l49 43l147 -4l-4 91l-186 3l1 94l84 -2l-27 63l86 38l44 -102l95 -2l98 115l73 -61l-48 -55l53 -1l45 -53l-21 -186l-48 -43l-148 3l3 -68l166 3l49 -50l-15 -238l-72 -36l-110 70l51 80l42 -27l7 106l-115 -2l11 -269l-94 -4l-9 221
l-160 -217l-76 53zM772 81l2 676h95l-3 -707l-27 -44l-170 -72l-38 86zM705 671l36 -557l-94 -7l-36 558zM370 486l110 -2l11 91l-125 2zM282 321l-3 72l-108 3l-5 -77z" />
    <glyph glyph-name="uni524A" unicode="&#x524a;" 
d="M115 159l-16 287l42 49l160 13l-15 257l94 5l14 -255l9 1l96 211l86 -40l-74 -163l29 3l50 -47l-10 -486l-94 2l9 433l-300 -24l3 -60l262 4l1 -94l-257 -4l4 -80l226 29l11 -94l-231 -30l7 -122l-93 -5l-7 115l-63 -8l-13 94zM645 91l120 -35l15 650l95 -2l-17 -710
l-60 -44l-179 50zM168 692l92 -130l-77 -55l-92 132zM706 501l25 -330l-93 -7l-25 330z" />
    <glyph glyph-name="uni524C" unicode="&#x524c;" 
d="M748 80l27 688l95 -3l-28 -724l-35 -44l-174 -47l-25 90zM258 692l-3 71l95 4l3 -70l216 11l5 -95l-216 -11l3 -61l168 6l49 -55l-28 -181l-40 -40l-136 -17l4 -75l21 29l181 -132l-55 -76l-144 105l7 -149l-94 -5l-12 252l-148 -251l-81 48l136 230l-20 -2l-54 42
l-23 211l45 52l129 4l-3 60l-209 -11l-5 95zM628 605l94 -5l-19 -445l-95 3zM370 348l93 12l14 91l-112 -4zM275 336l-5 108l-80 -3l14 -114z" />
    <glyph glyph-name="uni524D" unicode="&#x524d;" 
d="M871 646l4 -95l-827 -26l-3 95l175 5l-86 79l64 71l116 -105l-39 -43l300 9l134 160l72 -61l-79 -95zM625 10l78 37l13 460l95 -2l-13 -489l-28 -42l-104 -50zM175 252l3 -58l167 -15l-9 -95l-154 15l7 -129l-95 -5l-7 143l-39 4l8 94l26 -3l-12 247l50 49l328 -12
l46 -48l-10 -423l-29 -42l-116 -50l-38 87l88 38l9 345l-230 8l2 -55h200v-95h-195zM520 125l25 316l95 -7l-26 -317z" />
    <glyph glyph-name="uni5250" unicode="&#x5250;" 
d="M364 -40l10 94l102 -11l-4 297l-152 -19l-17 -81l155 -49l-29 -90l-146 46l-20 -96l-92 20l50 237l-68 -8l14 -341l-94 -4l-15 385l41 49l143 18l13 64l-63 -7l-53 37l-45 220l49 57l349 -24l42 -59l-42 -166l-40 -36l-98 -11l-14 -63l172 22l54 -46l5 -405l-53 -47z
M673 -9l94 164l-33 581l94 5l34 -595l-6 -25l-100 -176zM223 563l186 20l20 81l-230 16zM589 623l94 5l21 -409l-93 -5z" />
    <glyph glyph-name="uni5251" unicode="&#x5251;" 
d="M626 541l-43 -83l-271 138l-207 -187l-63 70l334 302l64 -70l-53 -48zM661 25l122 44l-25 676l94 4l26 -711l-31 -47l-154 -53zM616 161l31 350l94 -8l-30 -350zM123 418l380 62l17 -92l-382 -63zM608 111l12 -93l-524 -65l-13 92l319 40l78 266l90 -26l-67 -227z
M267 308l93 18l35 -171l-93 -19zM127 274l90 26l54 -189l-91 -26z" />
    <glyph glyph-name="uni5254" unicode="&#x5254;" 
d="M119 634l-13 86l48 53h360l47 -53l-35 -249l-46 -41h-290l-46 41l-11 70l-47 -3l-6 94zM760 121l-21 627l94 4l22 -659l-26 -43l-179 -85l-40 85zM685 692l19 -555l-94 -4l-19 557zM214 641l243 17l3 22h-252zM444 563l-217 -15l4 -23h208zM469 80l-6 205l-317 -15
l-43 68l48 94l84 -42l-11 -23l281 15l50 -46l9 -290l-33 -46l-123 -38l-28 90zM324 267l90 -27l-91 -295l-90 27zM174 260l86 -38l-107 -246l-88 37z" />
    <glyph glyph-name="uni5256" unicode="&#x5256;" 
d="M69 675l198 -12l-55 51l65 69l102 -95l-28 -30l203 -12l-5 -93l-487 28zM746 71l28 683l95 -4l-30 -720l-39 -45l-141 -26l-19 91zM621 616l94 -3l-16 -420l-94 3zM187 565l99 -111l-71 -63l-98 112zM341 402l75 156l85 -42l-49 -100l118 14l11 -94l-519 -62l-11 94z
M94 195l45 56l375 17l50 -50l-17 -205l-42 -44l-311 -31l-52 35zM456 59l9 112l-266 -11l27 -126z" />
    <glyph glyph-name="uni525C" unicode="&#x525c;" 
d="M531 602l-375 -10l7 -73l-95 -8l-10 123l46 51l166 5l-26 51l84 44l46 -92l217 6l47 -59l-43 -176l-91 22zM780 90l-6 634h95l6 -663l-27 -42l-157 -75l-41 83zM160 108l-55 22l35 87l63 -25l68 135l-68 34l-75 -137l-83 45l169 308l82 -46l-48 -87l108 -53l22 -64
l-202 -393l-83 41zM730 552l23 -362l-94 -5l-23 361zM381 50l7 374l55 46l145 -25l38 -51l-22 -213l-94 10l18 169l-47 7l-5 -277l142 -21l-14 -93l-183 26z" />
    <glyph glyph-name="uni525E" unicode="&#x525e;" 
d="M209 671l77 117l79 -51l-40 -61l245 11l5 -95l-100 -4l75 -69l-64 -70l-145 133l-80 -3l-105 -160l-79 51l69 105l-70 -3l-5 93zM634 90l118 -38l13 687l94 -1l-13 -751l-62 -44l-179 57zM717 533l2 -315l-94 -1l-1 316h93zM589 444l6 -94l-79 -5l26 -333l-38 -50
l-167 -30l-17 91l125 24l-23 291l-355 -23l-6 94zM110 250l52 39l174 -24l41 -51l-13 -129l-47 -42l-187 -6l-48 56zM274 137l5 41l-84 12l-10 -57z" />
    <glyph glyph-name="uni5261" unicode="&#x5261;" 
d="M175 529l-111 70l50 80l104 -65l85 169l84 -43l-53 -105l31 -43l145 81l45 -82l-136 -77l78 -110l-78 -54l-132 190l-100 -200l-85 43zM759 114l-29 635l94 4l31 -663l-23 -42l-183 -110l-49 78zM597 564l93 -4l-13 -349l-94 4zM174 137l-89 58l52 79l77 -50l75 164
l86 -39l-56 -122l56 -48l124 114l64 -70l-116 -106l111 -96l-63 -71l-217 188l-91 -197l-85 39z" />
    <glyph glyph-name="uni5265" unicode="&#x5265;" 
d="M560 486l-2 -93l-209 4l39 -326l-25 -47l-168 -86l-42 83l137 72l-37 306l-204 5l3 94l330 -8l12 49l-262 -4l-2 94l288 4l14 52l-333 -19l-5 94l396 23l49 -59l-60 -236zM675 23l102 72l-10 664l93 2l12 -688l-20 -40l-122 -87zM599 585l94 11l40 -356l-94 -10zM385 203
l-1 65l108 116l70 -64l-78 -84l124 -128l-68 -65zM52 80l103 130l-90 104l70 61l118 -132l1 -60l-129 -162z" />
    <glyph glyph-name="uni5267" unicode="&#x5267;" 
d="M41 -39l66 748l45 43l388 18l49 -50l-14 -195l-48 -44l-345 6v3l-47 -538zM636 30l148 84l-25 626l93 4l27 -655l-24 -43l-171 -97zM485 576l6 98l-294 -14l-6 -79zM607 200l14 351l94 -4l-14 -351zM432 299l-1 -41l100 3l49 -47l-3 -185l-41 -47l-277 -33l-53 40
l-29 210l45 53l115 3l1 52l-127 10l8 94l119 -10l1 64l95 -1l-1 -70l113 -9l-9 -94zM294 47l190 24l1 95l-208 -6z" />
    <glyph glyph-name="uni5269" unicode="&#x5269;" 
d="M378 146l181 -99l-45 -81l-136 72v-89h-95v147l-171 -134l-58 74l229 178v275h-214v95h214l1 67l-164 -17l-10 93l402 44l10 -94l-143 -16l-1 -77h216v-95h-216v-343zM772 110l-5 637h95l5 -666l-27 -42l-172 -89l-43 82zM653 572l95 -7l-35 -381l-94 8zM174 280v30h-111
v95h113l1 40l93 -1l-2 -197l-30 -43l-134 -52l-34 89zM395 251l-5 191l94 3l2 -86l74 47l50 -80l-87 -55l56 -22l-34 -88l-120 48z" />
    <glyph glyph-name="uni526A" unicode="&#x526a;" 
d="M245 679l-37 62l81 49l62 -104l194 12l53 100l84 -45l-26 -47l184 12l7 -95l-765 -48l-7 93zM697 305l-12 275l94 3l13 -312l-35 -48l-143 -37l-25 91zM223 333l145 17l11 -93l-155 -19v-18l-94 -2l-2 142l-54 1l1 95l52 -1v56l46 47l315 10l47 -47v-246l-13 -34l-58 -55
l-65 67l43 42v177l-220 -6v-13l181 -2v-94l-180 2v-26zM565 531l94 -5l-9 -189l-93 4zM228 88l-125 2l1 93l663 -6l46 -46v-119l-30 -45l-111 -40l-33 89l80 29v38l-364 4l-153 -167l-70 63z" />
    <glyph glyph-name="uni526F" unicode="&#x526f;" 
d="M680 100l93 -29v700h95v-764l-62 -46l-155 49zM556 766l6 -94l-462 -32l-7 95zM116 556l42 59l350 21l50 -55l-21 -125l-34 -37l-281 -77l-59 34zM695 546l33 -374l-93 -8l-35 373zM448 502l7 37l-233 -15l21 -77zM78 180l-21 59l40 63l448 50l51 -53l-38 -289l-43 -40
l-314 -21l-48 31l-40 107l-56 -3l-5 95zM381 55l89 6l25 190l-127 -14l3 -41l79 5l5 -95l-77 -4zM275 191l-2 35l-106 -11l11 -29zM286 49l-4 47l-70 -4l18 -46z" />
    <glyph glyph-name="uni5272" unicode="&#x5272;" 
d="M98 693h159l-20 38l83 45l44 -83h173l48 -48v-84h-95v37h-332l9 -35l-92 -23l-23 95zM626 113l146 -54l-2 664l95 1l2 -734l-64 -45l-211 79zM279 526l2 57l95 -4l-2 -52l166 3l1 -95l-171 -3v-20l135 8l5 -95l-144 -8v-21l154 13l7 -95l-165 -14l-1 -27l137 1l47 -39
l20 -96l-43 -56l-386 -40l-53 48l5 137l48 45h130l1 20l-151 -12l-8 95l162 13l1 23l-136 -7l-5 95l145 7l1 24l-181 -3l-3 95zM627 543l95 -7l-25 -343l-95 7zM461 71l-1 8l-278 -1l-1 -35z" />
    <glyph glyph-name="uni527D" unicode="&#x527d;" 
d="M462 645l97 8l50 -57l-30 -135l-42 -38l-404 -33l-50 33l-37 133l41 60l102 8l-7 57h-104v94h506v-94h-120zM782 100l-26 645l93 3l28 -675l-25 -43l-166 -85l-44 82zM366 638l3 43h-92l5 -50zM452 511l42 4l9 40l-48 -4zM356 503l3 40l-66 -6l4 -40zM717 537l26 -271
l-94 -9l-26 270zM204 489l-5 41l-47 -4l11 -40zM479 392l5 -95l-321 -17l-5 95zM125 143l-37 -3l-7 93l520 42l7 -94l-206 -16l9 -133l-35 -49l-140 -33l-24 90l102 25l-7 92l-69 -5l-112 -201l-83 44zM511 156l80 -118l-79 -53l-80 117z" />
    <glyph glyph-name="uni527F" unicode="&#x527f;" 
d="M412 683l86 98l72 -61l-52 -59l43 -26l-49 -80l-90 56zM256 671l42 109l88 -34l-31 -81l60 -65l-70 -64l-79 87zM128 380l-17 89l44 56l57 2l-97 93l-10 54l45 99l86 -40l-31 -68l76 -72l-62 -65l311 15l48 -48l-1 -214l-39 -46l-127 -20l2 -41l150 14l9 -94l-40 -4
l45 -30l-54 -79l-104 72l6 -107l-95 -3l-7 128l-27 -3l-133 -130l-66 67l51 50l-67 -6l-9 94l184 17l1 1l1 -1l61 5l-2 35l-104 -16l-53 36l-14 68l-58 -10l-16 92zM751 80l-18 669l94 2l20 -712l-42 -48l-139 -16l-10 94zM621 565h95l-1 -369l-95 2zM407 310l76 13l2 123
l-84 -4v-13l64 12l16 -92l-75 -14zM307 412l-1 26l-93 -4l7 -38zM313 295l-1 23l-73 -13l4 -21z" />
    <glyph glyph-name="uni5281" unicode="&#x5281;" 
d="M137 525l-35 -34l-65 68l246 239l65 -68l-112 -109l-21 -438l-95 5zM469 516l91 5l5 -93l-91 -6l2 -37l84 5l6 -94l-85 -5l2 -41h98v-94h-331v94h138l-2 35l-109 -6l-6 94l111 6l-2 37l-127 -7l-6 94l128 7l-2 41l-101 4l4 94l182 -8l-97 54l45 83l102 -57l-44 -80
l133 -5l-4 -93l-126 4zM720 71l67 -17l-17 715l95 2l18 -777l-58 -45l-129 31zM728 635l17 -471l-95 -4l-15 473zM112 125l89 -31l-54 -149l-89 30zM272 100l73 9l73 -71l78 87l72 -2l100 -129l-75 -56l-65 82l-72 -80l-68 -2l-67 62l-49 -77l-80 47z" />
    <glyph glyph-name="uni5282" unicode="&#x5282;" 
d="M55 723l46 45h566v-94h-520l-22 -707l-94 2zM795 112l-11 606l93 1l12 -625l-14 -34l-109 -108l-66 65zM560 495l-90 5l-41 64l33 96l89 -32l-12 -38l80 -5l43 -56l-17 -94l-93 18zM271 175l-1 48h-58l-46 45l-10 180l94 5l7 -135h10l-4 174h-94v93h21l-10 33l90 29
l20 -62h23l17 59l91 -24l-10 -35h15v-93h-81l3 -174h14l-2 137h95l2 -183l-47 -49h-60l2 -61l-11 -29l-115 -124l-60 55zM680 633l80 -1l-10 -473l-81 1zM536 447l89 -35l-116 -293l51 49l114 -121l-69 -65l-106 112l-45 -112l-88 33z" />
    <glyph glyph-name="uni5288" unicode="&#x5288;" 
d="M735 423l122 10l8 -93l-129 -11l1 -79l-95 -2l-1 73l-119 -9l-7 94l125 10l-1 38l-123 2l1 94l85 -1l-33 67l-47 -4l-7 94l101 8l-9 11l73 60l51 -62l126 10l8 -93l-23 -2l2 -1l-60 -90l100 -1l-2 -95l-148 2zM94 693l42 40l308 20l50 -48l-8 -140l-46 -45l-275 -2
l-35 -262l-94 12zM395 613l1 43l-215 -14l-4 -29h218zM725 628l-56 -4l23 -45zM184 448l47 47l199 1l47 -44l9 -126l-46 -51l-210 -5l-49 48zM389 368l-3 34l-109 -1l-1 -35zM247 119l-106 -2l-2 94l665 12l47 -53l-29 -198l-58 -37l-234 62l25 91l181 -50l14 90l-337 -6
l-246 -176l-55 76z" />
    <glyph glyph-name="uni5290" unicode="&#x5290;" 
d="M89 729l107 4l-4 21l92 19l7 -37l184 7l3 28l94 -9l-2 -16l74 3l3 -95l-85 -3l-3 -39l-94 7l2 29l-158 -5l6 -27l-92 -18l-9 42l-122 -4zM892 49l-39 -47l-210 -35l-15 92l169 29l-27 670l95 4zM500 489v-11l104 3l3 -77l-107 -3v-11l84 1v-77h-84v-11h108v-76h-340v76
h137v10h-118v76l118 1v8l-143 -4l-3 77l146 4v11l-145 -5l-2 76l109 4l-10 16l78 52l43 -65l127 5l4 -76zM138 257v186l-46 -41l-63 70l159 144l64 -70l-19 -17v-272h-95zM634 539l94 2l7 -357l-93 -1zM607 121l-105 -46l82 -18l-17 -79l-191 43l-174 -75l-33 73l75 32
l-67 16l17 79l176 -41l54 24l-230 17l-11 1l5 80l406 -29z" />
    <glyph glyph-name="uni5293" unicode="&#x5293;" 
d="M123 482l-31 204l43 55l42 2l36 62l81 -47l-6 -10l219 10l50 -50l-13 -221l-46 -45h-329zM780 111l-25 655l94 4l26 -679l-18 -39l-149 -117l-59 72zM195 632l263 5l1 24l-266 -13zM454 561l-247 -4l3 -20h243zM713 506l19 -259l-94 -7l-19 260zM69 173l-25 202l48 53
h465l46 -56l-34 -201l-47 -39h-405zM295 317v16h-151l2 -16h149zM372 317h125l3 16h-128v-16zM295 241h-139l2 -15h137v15zM485 241h-113v-15h111zM232 117l3 3l2 -3l331 4v-94l-71 -1l5 -78l-94 -6l-5 83l-128 -1l-101 -109l-70 62l41 45h-46l-1 94z" />
    <glyph glyph-name="uni529B" unicode="&#x529b;" 
d="M298 524l-223 8l3 93l257 -9l64 162l87 -34l-52 -131l366 -11l45 -53l-52 -551l-74 -34l-206 138l53 78l140 -95l40 424l-348 12l-229 -579l-88 35z" />
    <glyph glyph-name="uni529D" unicode="&#x529d;" 
d="M633 37l149 38l-14 455l-137 9l-158 -589l-91 25l153 570l-115 8l7 95l133 -10l41 150l91 -25l-36 -132l162 -11l44 -45l16 -535l-36 -47l-186 -47zM397 200l-54 -78l-97 67l-90 -259l-89 31l99 284l-124 87l54 78l102 -72l80 228l-223 51l20 93l276 -63l34 -61
l-106 -304z" />
    <glyph glyph-name="uni529E" unicode="&#x529e;" 
d="M752 645l45 -52l-21 -175l123 -145l-72 -62l-67 79l-28 -235l-60 -40l-192 58l26 90l140 -42l51 433l-289 12l-192 -608l-90 28l185 585l-176 8l4 95l201 -10l31 97l90 -28l-23 -73zM21 249l141 169l72 -62l-142 -167z" />
    <glyph glyph-name="uni529F" unicode="&#x529f;" 
d="M502 508l-121 -19l-15 94l165 26l44 154l92 -26l-32 -112l180 29l55 -50l-49 -592l-60 -43l-206 58l25 91l151 -41l39 475l-164 -27l-162 -569l-92 25zM248 179l83 43l43 -84l-278 -144l-44 84l102 52l-4 462l-99 16l15 95l285 -45l-14 -94l-92 14z" />
    <glyph glyph-name="uni52A0" unicode="&#x52a0;" 
d="M214 559h-108v95h134l32 119l92 -25l-26 -94h113l46 -49l-13 -616l-64 -41l-181 66l33 89l118 -45l12 501h-89l-161 -594l-91 24zM524 578l41 47l242 28l53 -48l-19 -539l-39 -45l-216 -36l-54 46zM749 108l15 446l-145 -18l6 -448z" />
    <glyph glyph-name="uni52A1" unicode="&#x52a1;" 
d="M851 391l-28 -90l-354 106l-383 -148l-34 89l269 103l-90 28l27 90l207 -62l193 74l-377 47l-129 -177l-76 57l214 293l76 -55l-22 -30l512 -65l11 -90l-255 -99zM552 -12l35 87l118 -47l15 117l-361 -20l-173 -204l-71 62l114 135l-82 -4l-5 94l171 9l125 148l73 -61
l-68 -79l328 18l50 -53l-30 -234l-64 -38z" />
    <glyph glyph-name="uni52A2" unicode="&#x52a2;" 
d="M680 4l15 93l51 -8l49 385l-126 6l-95 -536l-93 16l92 524l-114 6l5 94l126 -6l35 198l94 -16l-34 -187l166 -8l44 -53l-61 -483l-55 -40zM210 476l194 -46l36 -48l-17 -373l-42 -45l-193 -20l-10 93l152 17l14 293l-151 37l-75 -408l-93 18l115 632l-86 -4l-4 94l409 18
l5 -94l-226 -10z" />
    <glyph glyph-name="uni52A3" unicode="&#x52a3;" 
d="M427 524l-21 242l94 7l18 -217l145 52l-68 56l60 73l205 -169l-61 -72l-51 42l-644 -230l-32 89zM285 711l55 -78l-225 -157l-54 76zM254 161l-163 -10l-6 95l261 17l99 109l70 -64l-33 -37l303 20l51 -48v-249l-54 -46l-268 36l12 94l215 -30v145l-351 -23l-204 -224
l-70 63z" />
    <glyph glyph-name="uni52A8" unicode="&#x52a8;" 
d="M628 28l156 65l-29 480l-99 -13l-123 -619l-93 18l117 588l-83 -11l-13 93l116 15l27 134l92 -19l-20 -102l117 16l53 -44l34 -565l-29 -46l-187 -76zM88 638l3 94l294 -14l-5 -94zM153 71l135 14l-23 99l93 22l56 -244l-91 -21l-13 52l-221 -22l-49 61l129 379l-124 -5
l-4 95l377 17l5 -95l-152 -7z" />
    <glyph glyph-name="uni52A9" unicode="&#x52a9;" 
d="M570 537l-81 3l2 94l96 -4l26 141l92 -16l-23 -128l167 -6l46 -50l-46 -585l-70 -37l-153 83l45 83l89 -49l36 463l-131 4l-102 -561l-93 18zM93 325l-23 319l44 50l255 16l50 -48l-4 -481l38 11l26 -91l-429 -122l-25 90l85 24l-10 137h-37l-2 95h32zM174 513l150 14
l1 85l-157 -8zM202 120l119 34l2 278l-142 -12l6 -94l112 1l1 -95l-106 -1z" />
    <glyph glyph-name="uni52AA" unicode="&#x52aa;" 
d="M161 428l-55 21l-23 69l47 74l-80 23l26 90l106 -30l69 108l80 -51l-54 -84l136 -38l17 -81l-84 -70l93 -35l-34 -87l-142 53l-123 -103l-61 72zM578 461l-98 59l49 80l132 -80l75 54l19 90l-327 -39l-12 94l393 46l51 -56l-35 -172l-19 -29l-57 -41l121 -73l-49 -80
l-155 94l-132 -94l-55 76zM194 517l51 -20l55 47l-75 21zM233 141l-127 8l7 94l210 -12l102 102l66 -66l-43 -43l308 -17l44 -37l25 -106l-29 -54l-161 -65l-35 88l124 50l-8 31l-358 20l-197 -197l-66 66z" />
    <glyph glyph-name="uni52AB" unicode="&#x52ab;" 
d="M580 532l-127 5l4 95l140 -7l26 150l92 -16l-24 -138l139 -6l45 -50l-37 -496l-31 -42l-134 -43l-30 88l104 35l31 417l-103 4l-97 -562l-94 16zM197 630l-9 119l94 6l9 -120l96 5l5 -94l-94 -5l7 -98l168 27l15 -93l-221 -35l-109 -248l184 -6l-35 108l90 29l81 -253
l-89 -28l-17 52v-2l-287 7l-41 66l112 257l-83 -13l-15 93l154 24l-8 108l-112 -6l-5 95z" />
    <glyph glyph-name="uni52AC" unicode="&#x52ac;" 
d="M149 801l82 -44l-44 -83l274 -7l45 -51l-56 -647l-60 -42l-156 44l25 90l102 -29l48 543l-272 7l-48 -91l-83 45zM613 514l-92 3l3 95l109 -3l32 156l92 -20l-29 -139l142 -4l45 -50l-25 -590l-64 -42l-132 50l32 87l73 -26l20 478l-110 3l-122 -593l-92 20zM77 441
l47 51l198 7l48 -53l-26 -259l-45 -41l-150 -6l-49 44zM254 239l17 163l-95 -2l14 -164z" />
    <glyph glyph-name="uni52AD" unicode="&#x52ad;" 
d="M121 678l-80 2l3 95l369 -9l46 -50l-15 -301l-59 -44l-115 31l25 92l58 -17l10 195l-147 3l-66 -288l-91 22zM560 559l-86 7l7 94l96 -8l21 113l92 -18l-19 -103l172 -13l42 -51l-59 -596l-61 -40l-137 45l28 90l83 -28l47 490l-132 10l-106 -592l-93 17zM35 287l46 53
l310 1l48 -55l-45 -287l-45 -40l-233 -10l-48 42zM306 51l30 195l-201 -1l21 -200z" />
    <glyph glyph-name="uni52B1" unicode="&#x52b1;" 
d="M669 16l126 132l-28 414l-103 -10l-56 -601l-94 8l54 583l-46 -4l-9 94l64 6l12 130l94 -9l-10 -111l134 13l51 -44l32 -483l-12 -35l-140 -147zM29 -32l60 688l45 42l326 15l5 -94l-286 -13l-56 -645zM344 448l-19 -91l88 9l51 -44l19 -260l-34 -49l-111 -31l-25 91
l74 20l-13 174l-68 -7l-61 -304l-92 17l95 480l-50 3l4 93l275 -13l-5 -95z" />
    <glyph glyph-name="uni52B2" unicode="&#x52b2;" 
d="M670 45l97 62l32 425l-94 16l-143 -603l-93 22l142 597l-88 16l16 92l94 -16l29 119l91 -22l-27 -113l131 -22l40 -50l-38 -491l-21 -36l-116 -74zM509 445l-44 -84l-204 107l-181 -135l-56 75l283 212l-222 42l18 93l327 -63l19 -84l-104 -78zM320 143l118 48l36 -88
l-150 -60h-1l-195 -78l-35 86l134 54l-7 139l-98 -11l-10 94l300 34l10 -94l-107 -12z" />
    <glyph glyph-name="uni52B3" unicode="&#x52b3;" 
d="M221 618h-146v95h130l-8 48l93 17l11 -65h307l30 73l88 -35l-16 -38h136v-95h-174l-32 -79l-88 35l18 44h-253l8 -48l-93 -15zM743 334l20 102l-612 -6l10 -92l-93 -12l-16 147l46 52l722 5l47 -56l-31 -158zM576 13l127 78l-17 117l-351 -25l-170 -238l-78 55l125 175
l-82 -6l-8 95l162 11l111 155l76 -55l-65 -92l316 22l50 -40l30 -190l-22 -47l-155 -95z" />
    <glyph glyph-name="uni52BE" unicode="&#x52be;" 
d="M190 686l-27 83l90 29l36 -111l164 2l1 -94l-210 -3l-67 -119l117 4l66 82l74 -60l-321 -395l-73 60l174 215l-119 -5l-42 70l82 147l-100 -1l-1 94zM567 560l-77 5l8 95l80 -6l16 130l94 -10l-15 -127l170 -12l44 -51l-59 -610l-56 -41l-124 26l20 91l71 -15l49 510
l-126 8l-73 -615l-94 11zM417 409l73 -59l-144 -181l141 -143l-67 -66l-133 135l-138 -172l-74 58z" />
    <glyph glyph-name="uni52BF" unicode="&#x52bf;" 
d="M651 333l49 263l-131 6l-58 -104l110 -90l-60 -72l-97 78l-65 -117l-83 46l74 132l-49 41l60 74l36 -30l26 46l-104 5l3 94l152 -7l62 110l83 -46l-39 -69l139 -6l43 -56l-41 -224l98 46l41 -85l-183 -86zM237 586l63 19l27 -90l-87 -27l5 -153l-58 -48l-156 35l20 91
l98 -21l-2 68l-76 -23l-26 90l99 30l-2 60l-113 -9l-8 94l118 9l-2 64l95 2l1 -58l72 6l7 -94l-76 -6zM526 -78l5 93l140 -8l-1 129l-376 -15l-175 -211l-73 58l123 148l-78 -3l-4 94l163 6l85 103l72 -60l-31 -38l339 14l49 -46l2 -228l-50 -46z" />
    <glyph glyph-name="uni52C3" unicode="&#x52c3;" 
d="M243 731v52h95v-49l133 6l4 -93l-137 -6v-45l139 7l49 -56l-25 -117l-93 20l13 55l-279 -12l13 -95l-94 -13l-19 145l44 54l157 7v45l-138 -6l-5 95zM579 565l-46 -2l-5 94l70 3l22 114l92 -19l-17 -90l135 7l48 -50l-41 -630l-62 -42l-140 52l32 88l81 -30l33 515
l-105 -5l-115 -602l-93 17zM211 223l5 20l84 104l-138 8l6 94l228 -15l34 -76l-89 -110l122 24l18 -93l-169 -33l30 -153l-54 -56l-136 21l14 94l71 -12l-17 88l-144 -28l-18 93z" />
    <glyph glyph-name="uni52C7" unicode="&#x52c7;" 
d="M399 470v27l-208 -7l15 -209l-94 -7l-19 259l45 50l172 6l-7 6l59 74l80 -64l-2 -3l134 72l-423 14l2 93l601 -18l20 -89l-139 -74l144 5l48 -52l-33 -284l-93 11l27 229l-234 -8v-28l162 7l3 -95l-165 -7v-36l157 -6l-4 -93l-153 6v-38h-95v42l-156 6l4 94l152 -7v29
l-150 -6l-3 95zM187 74l-88 1v94l166 -2l64 77l73 -60l-15 -18l375 -2l44 -64l-48 -126l-51 -30l-124 19l15 93l85 -13l10 27l-384 3l-113 -135l-72 60z" />
    <glyph glyph-name="uni52C9" unicode="&#x52c9;" 
d="M152 201l-48 1l-46 45l-8 214l45 48l175 4l60 81l-140 18l-56 -70l-74 60l156 191l73 -60l-28 -35l160 -20l32 -75l-63 -87l54 2l49 -46v-230l-49 -46l-193 3l-93 -272l-89 31zM620 551l-86 -4l-5 95l123 6l34 104l89 -30l-23 -69l68 4l50 -49l-16 -475l-59 -44l-145 35
l23 92l88 -22l13 365l-53 -3l-156 -478l-90 30zM284 293l114 -2v132l-70 -2zM227 419l-82 -2l5 -121l35 -1zM325 -13l-35 174l93 18l27 -137l456 -23l-3 -93l-494 23z" />
    <glyph glyph-name="uni52CB" unicode="&#x52cb;" 
d="M898 609l-60 -613l-53 -41l-135 20l15 94l85 -14l50 508l-112 -8l-101 -637l-92 15l97 615l-114 -8l-6 95l135 9l25 157l93 -15l-22 -136l145 10zM61 529l-39 167l44 58l307 15l50 -53l-20 -165l-43 -41l-249 -17zM127 663l18 -73l170 11l8 70zM450 144l-94 7l19 233
l-252 -15l23 -211l125 187l79 -52l-238 -358l-79 53l110 165l-90 -10l-28 265l43 52l354 20l50 -50zM356 151l122 -130l-68 -65l-144 154l69 64z" />
    <glyph glyph-name="uni52D0" unicode="&#x52d0;" 
d="M631 486l-130 22l15 93l134 -22l41 194l91 -20l-39 -190l124 -20l40 -50l-36 -489l-48 -43l-132 2l1 94l89 -1l28 401l-85 14l-108 -525l-93 18zM238 575l61 94l-223 3l1 95l311 -5l38 -74l-73 -110l105 3l1 -94l-113 -3l17 -106l-44 -54l-162 -8l-5 93l110 7l-11 66
l-193 -5l-2 94zM46 42l-12 205l47 50h337l48 -48v-161l42 5l10 -94l-495 -53l-10 93zM153 54l-10 148h-11l9 -149zM265 67l-13 135h-15l10 -137zM359 77l13 1v124h-25z" />
    <glyph glyph-name="uni52D2" unicode="&#x52d2;" 
d="M586 590l-75 -3l-4 95l91 4l13 94l93 -13l-11 -77l147 6l49 -50l-34 -630l-65 -41l-173 70l37 86l111 -45l26 514l-110 -5l-85 -638l-92 11zM78 712l-4 46l93 9l5 -50l167 9l2 50l94 -4l-2 -42l29 2l5 -94l-37 -2l-3 -90l-95 4l3 81l-154 -9l3 -30l92 8l50 -48v-88
l109 12l52 -50l-10 -213l-42 -45l-107 -10v-38l137 15l10 -94l-147 -16l1 -84l-94 -1l-1 75l-177 -19l-10 94l187 20v39l-82 -8l-52 40l-29 206l41 54l120 13v47l-88 -8l-50 44l-8 80l-50 -2l-5 95zM327 252l58 6l5 118l-63 -7v-117zM233 242v117l-62 -7l16 -114z" />
    <glyph glyph-name="uni52D6" unicode="&#x52d6;" 
d="M34 735l45 54l343 7l48 -51l-20 -256l-45 -44l-292 -11l-48 41zM717 73l67 -33l6 559l-119 -13l-28 -377l-1 -10l-77 -274l-90 26l74 269l27 356l-79 -8l-10 93l96 10l9 113l93 -6l-7 -96l155 17l52 -48l-7 -686l-68 -42l-135 65zM370 672l2 29l-238 -6l4 -34zM363 577
l-215 -10l5 -37l207 8zM80 364l45 51l275 14l49 -51l-27 -384l-48 -44l-216 -1l-48 42zM349 299l3 32l-174 -7l2 -25h169zM340 178l2 27h-155l2 -27h151zM333 84h-136l3 -41l130 2z" />
    <glyph glyph-name="uni52D8" unicode="&#x52d8;" 
d="M612 565l-67 -3l-5 93l82 4l10 104l93 -9l-9 -91l112 6l49 -49l-22 -595l-62 -42l-129 44l31 88l68 -23l17 481l-73 -4l-59 -612l-94 8zM102 553l-1 29l-53 -2l-4 95l54 2l-1 58l93 3l2 -57l194 8l3 70l95 -4l-3 -62l33 2l4 -93l-41 -2l-12 -286l64 3l4 -94l-189 -9
l-71 -142l260 6l1 -95l-406 -8l-49 52l17 176l-38 -1l-4 95l56 2l-5 160l-25 -1l-5 94zM200 430l176 7l6 158l-187 -8l1 -28l137 9l5 -95l-139 -8zM371 310l1 32l-169 -6l1 -33zM389 210l140 -31l-21 -92l-139 32zM268 72l-80 41l48 96l-45 -2l-12 -137z" />
    <glyph glyph-name="uni52DF" unicode="&#x52df;" 
d="M485 185l21 -20l-15 -16l164 10l49 -58l-38 -166l-91 21l24 104l-202 -12l-117 -125l-69 65l49 52l-27 -1l-4 72l-116 -88l-58 75l91 69l-18 -1l-5 94l157 8l30 23l-101 -2l-48 40l-11 70l-50 -1l-2 80l39 1l-9 57l46 54l420 4l-61 35l11 20l-198 -4l5 -11l-87 -34
l-17 44l-176 -3l-1 95l140 2l-5 13l88 35l17 -46l288 5l28 50l83 -46l-1 -2l117 2l1 -95l-173 -3l-32 -56l93 1l46 -55l-30 -200l-45 -40l-213 -6l-24 -18l333 18l5 -94l-16 -1l95 -71l-56 -76l-186 139zM579 491l2 -81l-336 -9l3 -17l395 10l16 107l-429 -5l2 -15zM354 140
l37 40l-77 -4l-54 -41z" />
    <glyph glyph-name="uni52E4" unicode="&#x52e4;" 
d="M325 486l132 9l48 -57l-23 -121l-45 -37l-106 -5v-19l118 7l5 -80l-121 -7l1 -13l105 7l5 -80l-108 -8v-20l161 20l12 -94l-440 -53l-12 93l184 22v26l-143 -10l-6 81l147 10v13l-159 -9l-5 81l163 9l-1 20l-104 -4l-45 29l-48 110l42 65l151 9l-1 38h6l-89 2l-46 45
l-3 56l-65 -1l-1 93l62 1l-2 42l95 4l2 -43l172 4l6 62l94 -8l-5 -51l40 1l2 -95l-51 -1l-7 -72l-48 -42l-69 1v-30zM619 528l-112 -5l-4 94l134 6l28 147l93 -18l-24 -125l103 5l48 -49l-18 -523l-22 -39l-88 -55l-50 80l67 41l15 449l-73 -4l-109 -572l-93 17zM354 627
l-160 -4l1 -10l158 -3zM328 369l69 3l5 25l-74 -5v-23zM235 365v21l-81 -5l8 -19z" />
    <glyph glyph-name="uni52F0" unicode="&#x52f0;" 
d="M99 623l-75 1l1 93l87 -1l12 80l93 -12l-10 -69l128 -1l46 -50l-17 -248l-58 -42l-104 22l19 93l53 -12l10 143l-90 1l-34 -245l-94 13zM480 321l-11 398l47 48l316 5l48 -52l-44 -424l-50 -41l-264 21zM716 572l54 -2l11 107l-57 -1zM622 576l9 99l-66 -1l2 -95z
M614 482l-45 2l3 -118l32 -3zM760 475l-52 3l-10 -122l49 -4zM-14 209l-15 3l14 94l11 -2l5 52l94 -10l-6 -56l77 -11l40 -52l-25 -246l-51 -42l-63 6l9 94l16 -3l15 156l-27 4l-25 -249l-94 10zM237 185l-25 4l13 93l29 -4l12 67l93 -16l-11 -64l79 -10l40 -55l-41 -233
l-47 -38l-65 1l1 94h26l25 145l-35 4l-42 -243l-94 16zM652 254l102 -97l-65 -68l-102 96zM877 216l82 -114l-78 -55l-80 115zM524 -49l-80 50l68 109l70 10l110 -94l87 108l72 -59l-115 -145l-67 -6l-105 90z" />
    <glyph glyph-name="uni52F9" unicode="&#x52f9;" 
d="M357 751l72 -60l-44 -54l352 16l50 -50l-35 -592l-54 -43l-276 43l15 93l223 -35l29 486l-385 -17l-97 -119l-73 60z" />
    </font>
</defs>
</svg>
